G04 PROTEUS GERBER X2 FILE*
%TF.GenerationSoftware,Labcenter,Proteus,8.11-SP0-Build30052*%
%TF.CreationDate,2021-11-08T23:16:57+00:00*%
%TF.FileFunction,Copper,L1,Top*%
%TF.FilePolarity,Positive*%
%TF.Part,Single*%
%TF.SameCoordinates,{af5e3d67-cc9f-4e8b-9fcc-2bf036155207}*%
%FSLAX45Y45*%
%MOMM*%
G01*
%TA.AperFunction,Conductor*%
%ADD10C,0.381000*%
%ADD11C,0.635000*%
%ADD12C,0.508000*%
%TA.AperFunction,ViaPad*%
%ADD13C,0.762000*%
%TA.AperFunction,Conductor*%
%ADD14C,1.016000*%
%TA.AperFunction,WasherPad*%
%ADD15C,1.524000*%
%TA.AperFunction,ComponentPad*%
%ADD16C,2.032000*%
%TA.AperFunction,ComponentPad*%
%ADD17R,2.032000X2.032000*%
%TA.AperFunction,ComponentPad*%
%ADD18C,3.048000*%
%TA.AperFunction,ComponentPad*%
%ADD19C,2.100000*%
%TA.AperFunction,SMDPad,CuDef*%
%ADD70R,1.920000X0.650000*%
%TA.AperFunction,SMDPad,CuDef*%
%ADD71R,0.635000X2.032000*%
%TA.AperFunction,SMDPad,CuDef*%
%ADD20R,2.032000X0.635000*%
%TA.AperFunction,SMDPad,CuDef*%
%ADD21R,2.540000X1.524000*%
%ADD22R,6.985000X6.985000*%
%TA.AperFunction,SMDPad,CuDef*%
%ADD23R,2.200000X1.700000*%
%TA.AperFunction,SMDPad,CuDef*%
%ADD24R,0.889000X0.889000*%
%TA.AperFunction,ComponentPad*%
%ADD25R,1.270000X1.270000*%
%ADD26C,1.270000*%
%TA.AperFunction,SMDPad,CuDef*%
%ADD27R,0.889000X0.939800*%
%ADD28R,0.889000X1.524000*%
%ADD29R,0.990600X1.397000*%
%ADD72R,0.939800X0.889000*%
%TA.AperFunction,SMDPad,CuDef*%
%ADD73R,1.400000X2.290000*%
%ADD30R,5.690000X6.180000*%
%TA.AperFunction,SMDPad,CuDef*%
%ADD31R,1.041400X2.997200*%
%ADD32R,10.490200X6.908800*%
%TA.AperFunction,SMDPad,CuDef*%
%ADD33R,1.016000X1.524000*%
%ADD34R,3.000000X1.400000*%
%TA.AperFunction,SMDPad,CuDef*%
%ADD35R,1.600000X3.000000*%
%ADD36R,5.800000X6.200000*%
%TA.AperFunction,SMDPad,CuDef*%
%ADD37R,1.397000X0.990600*%
%ADD38R,3.300000X6.000000*%
%ADD39R,2.350000X1.550000*%
%ADD40R,1.270000X1.016000*%
%TA.AperFunction,ComponentPad*%
%ADD41C,1.520000*%
%ADD42C,1.980000*%
%TA.AperFunction,SMDPad,CuDef*%
%ADD43R,2.000000X1.000000*%
%TA.AperFunction,SMDPad,CuDef*%
%ADD44R,1.524000X0.889000*%
%TA.AperFunction,SMDPad,CuDef*%
%ADD45R,0.300000X0.950000*%
%AMPPAD040*
4,1,34,
-0.550010,0.550000,
0.550010,0.550000,
0.662460,0.539060,
0.766460,0.507570,
0.859980,0.457550,
0.941020,0.391020,
1.007550,0.309980,
1.057570,0.216460,
1.089060,0.112460,
1.100000,-0.000010,
1.089060,-0.112460,
1.057570,-0.216460,
1.007550,-0.309980,
0.941020,-0.391020,
0.859980,-0.457550,
0.766460,-0.507570,
0.662460,-0.539060,
0.550010,-0.550000,
-0.550010,-0.550000,
-0.662460,-0.539060,
-0.766460,-0.507570,
-0.859980,-0.457550,
-0.941020,-0.391020,
-1.007550,-0.309980,
-1.057570,-0.216460,
-1.089060,-0.112460,
-1.100000,0.000010,
-1.089060,0.112460,
-1.057570,0.216460,
-1.007550,0.309980,
-0.941020,0.391020,
-0.859980,0.457550,
-0.766460,0.507570,
-0.662460,0.539060,
-0.550010,0.550000,
0*%
%TA.AperFunction,ComponentPad*%
%ADD46PPAD040*%
%AMPPAD041*
4,1,34,
-0.350010,0.350000,
0.350010,0.350000,
0.421570,0.343040,
0.487750,0.323000,
0.547260,0.291170,
0.598830,0.248830,
0.641170,0.197260,
0.673000,0.137750,
0.693040,0.071570,
0.700000,-0.000010,
0.693040,-0.071570,
0.673000,-0.137750,
0.641170,-0.197260,
0.598830,-0.248830,
0.547260,-0.291170,
0.487750,-0.323000,
0.421570,-0.343040,
0.350010,-0.350000,
-0.350010,-0.350000,
-0.421570,-0.343040,
-0.487750,-0.323000,
-0.547260,-0.291170,
-0.598830,-0.248830,
-0.641170,-0.197260,
-0.673000,-0.137750,
-0.693040,-0.071570,
-0.700000,0.000010,
-0.693040,0.071570,
-0.673000,0.137750,
-0.641170,0.197260,
-0.598830,0.248830,
-0.547260,0.291170,
-0.487750,0.323000,
-0.421570,0.343040,
-0.350010,0.350000,
0*%
%ADD47PPAD041*%
%TA.AperFunction,SMDPad,CuDef*%
%ADD48R,0.558800X0.889000*%
%TA.AperFunction,Profile*%
%ADD49C,0.203200*%
%TD.AperFunction*%
G36*
X+11898241Y+7886049D02*
X+11614573Y+7886049D01*
X+11602382Y+7898240D01*
X+11898241Y+7898240D01*
X+11898241Y+7886049D01*
G37*
G36*
X+10121000Y+7884446D02*
X+10107206Y+7898240D01*
X+10134794Y+7898240D01*
X+10121000Y+7884446D01*
G37*
G36*
X+9867000Y+7884446D02*
X+9853206Y+7898240D01*
X+9880794Y+7898240D01*
X+9867000Y+7884446D01*
G37*
G36*
X+9613000Y+7884446D02*
X+9599206Y+7898240D01*
X+9626794Y+7898240D01*
X+9613000Y+7884446D01*
G37*
G36*
X+9359000Y+7884446D02*
X+9345206Y+7898240D01*
X+9372794Y+7898240D01*
X+9359000Y+7884446D01*
G37*
G36*
X+9105000Y+7884446D02*
X+9091206Y+7898240D01*
X+9118794Y+7898240D01*
X+9105000Y+7884446D01*
G37*
G36*
X+8851000Y+7884446D02*
X+8837206Y+7898240D01*
X+8864794Y+7898240D01*
X+8851000Y+7884446D01*
G37*
G36*
X+8597000Y+7884446D02*
X+8583206Y+7898240D01*
X+8610794Y+7898240D01*
X+8597000Y+7884446D01*
G37*
G36*
X+8343000Y+7884446D02*
X+8329206Y+7898240D01*
X+8356794Y+7898240D01*
X+8343000Y+7884446D01*
G37*
G36*
X+8089000Y+7884446D02*
X+8075206Y+7898240D01*
X+8102794Y+7898240D01*
X+8089000Y+7884446D01*
G37*
G36*
X+3962109Y+7883111D02*
X+3932997Y+7853999D01*
X+3744410Y+7853999D01*
X+3616356Y+7725946D01*
X+3504373Y+7837929D01*
X+3376049Y+7837929D01*
X+3376049Y+7898240D01*
X+3977238Y+7898240D01*
X+3962109Y+7883111D01*
G37*
G36*
X+2425701Y+7867649D02*
X+1270827Y+7867649D01*
X+940627Y+7537449D01*
X+887038Y+7537449D01*
X+923999Y+7574410D01*
X+923999Y+7784830D01*
X+810589Y+7898240D01*
X+2425701Y+7898240D01*
X+2425701Y+7867649D01*
G37*
G36*
X+5756801Y+7636801D02*
X+5756801Y+7198649D01*
X+5341773Y+7198649D01*
X+5327649Y+7212773D01*
X+5327649Y+7383522D01*
X+5365170Y+7346001D01*
X+5575590Y+7346001D01*
X+5724379Y+7494790D01*
X+5724379Y+7705210D01*
X+5575590Y+7853999D01*
X+5365170Y+7853999D01*
X+5245470Y+7734299D01*
X+5194910Y+7734299D01*
X+5075210Y+7853999D01*
X+4886623Y+7853999D01*
X+4842382Y+7898240D01*
X+5756801Y+7898240D01*
X+5756801Y+7636801D01*
G37*
G36*
X+416001Y+7784830D02*
X+416001Y+7574410D01*
X+452962Y+7537449D01*
X+407227Y+7537449D01*
X+260351Y+7390573D01*
X+260351Y+2083627D01*
X+394529Y+1949449D01*
X+176227Y+1949449D01*
X+121759Y+1894981D01*
X+121759Y+7898240D01*
X+529411Y+7898240D01*
X+416001Y+7784830D01*
G37*
G36*
X+11443951Y+6945427D02*
X+11443951Y+6823951D01*
X+11898241Y+6823951D01*
X+11898241Y+1430588D01*
X+11500545Y+1430588D01*
X+11531599Y+1461642D01*
X+11531599Y+1678358D01*
X+11442936Y+1767021D01*
X+11635210Y+1767021D01*
X+11783999Y+1915810D01*
X+11783999Y+2126230D01*
X+11639019Y+2271210D01*
X+11783999Y+2416190D01*
X+11783999Y+2626610D01*
X+11640289Y+2770320D01*
X+11783999Y+2914030D01*
X+11783999Y+3124450D01*
X+11639019Y+3269430D01*
X+11783999Y+3414410D01*
X+11783999Y+3624830D01*
X+11639019Y+3769810D01*
X+11783999Y+3914790D01*
X+11783999Y+4125210D01*
X+11639019Y+4270190D01*
X+11783999Y+4415170D01*
X+11783999Y+4625590D01*
X+11635210Y+4774379D01*
X+11424790Y+4774379D01*
X+11276001Y+4625590D01*
X+11276001Y+4454963D01*
X+11017251Y+4196213D01*
X+11017251Y+3273349D01*
X+10880649Y+3273349D01*
X+10880649Y+3328551D01*
X+10911129Y+3328551D01*
X+10911129Y+3671449D01*
X+10868271Y+3671449D01*
X+10880649Y+3683827D01*
X+10880649Y+3828551D01*
X+10911129Y+3828551D01*
X+10911129Y+4171449D01*
X+10693973Y+4171449D01*
X+10629973Y+4235449D01*
X+9967624Y+4235449D01*
X+9986599Y+4254424D01*
X+9986599Y+4425576D01*
X+9865576Y+4546599D01*
X+9694424Y+4546599D01*
X+9573401Y+4425576D01*
X+9573401Y+4254424D01*
X+9592376Y+4235449D01*
X+9551115Y+4235449D01*
X+9532065Y+4254499D01*
X+9416335Y+4254499D01*
X+9334501Y+4172665D01*
X+9334501Y+4056935D01*
X+9359901Y+4031535D01*
X+9359901Y+3955335D01*
X+9378951Y+3936285D01*
X+9378951Y+3886915D01*
X+9359901Y+3867865D01*
X+9359901Y+3752135D01*
X+9441735Y+3670301D01*
X+9461501Y+3670301D01*
X+9461501Y+3620648D01*
X+9368226Y+3620648D01*
X+9367077Y+3619499D01*
X+9340135Y+3619499D01*
X+9312385Y+3591749D01*
X+9312385Y+4552951D01*
X+10438871Y+4552951D01*
X+10438871Y+4328551D01*
X+10921129Y+4328551D01*
X+10921129Y+4671449D01*
X+10906049Y+4671449D01*
X+10906049Y+4768476D01*
X+10939098Y+4768476D01*
X+11002823Y+4832201D01*
X+11083647Y+4832201D01*
X+11187799Y+4936353D01*
X+11187799Y+5083647D01*
X+11083647Y+5187799D01*
X+10936353Y+5187799D01*
X+10883000Y+5134446D01*
X+10876648Y+5140798D01*
X+10876648Y+5208773D01*
X+10777648Y+5307773D01*
X+10777648Y+5566101D01*
X+10790349Y+5566101D01*
X+10790349Y+5924552D01*
X+11276774Y+5924552D01*
X+11423649Y+6071427D01*
X+11423649Y+6857173D01*
X+11314871Y+6965951D01*
X+11423427Y+6965951D01*
X+11443951Y+6945427D01*
G37*
G36*
X+11898241Y+920749D02*
X+11291015Y+920749D01*
X+11284665Y+927099D01*
X+11168935Y+927099D01*
X+11087101Y+845265D01*
X+11087101Y+812799D01*
X+10132797Y+812799D01*
X+9891497Y+571499D01*
X+9873535Y+571499D01*
X+9791701Y+489665D01*
X+9791701Y+373935D01*
X+9867188Y+298448D01*
X+9079670Y+298448D01*
X+9080649Y+299427D01*
X+9080649Y+454241D01*
X+9125099Y+454241D01*
X+9125099Y+571501D01*
X+9151065Y+571501D01*
X+9174804Y+595240D01*
X+9261642Y+508401D01*
X+9478358Y+508401D01*
X+9631599Y+661642D01*
X+9631599Y+878358D01*
X+9623966Y+885991D01*
X+10270245Y+885991D01*
X+10330735Y+825501D01*
X+10446465Y+825501D01*
X+10528299Y+907335D01*
X+10528299Y+1023065D01*
X+10504959Y+1046405D01*
X+10504959Y+1056613D01*
X+10464504Y+1097068D01*
X+11898241Y+1097068D01*
X+11898241Y+920749D01*
G37*
G36*
X+11395170Y+226001D02*
X+11605590Y+226001D01*
X+11731411Y+351822D01*
X+11731411Y+333951D01*
X+11898241Y+333951D01*
X+11898241Y+121760D01*
X+11366499Y+121760D01*
X+11366499Y+159465D01*
X+11284665Y+241299D01*
X+11168935Y+241299D01*
X+11140985Y+213349D01*
X+11137899Y+213349D01*
X+11137899Y+258690D01*
X+11250190Y+370981D01*
X+11395170Y+226001D01*
G37*
G36*
X+3408401Y+661642D02*
X+3561642Y+508401D01*
X+3778358Y+508401D01*
X+3816351Y+546394D01*
X+3816351Y+479099D01*
X+3490901Y+479099D01*
X+3490901Y+121760D01*
X+3389599Y+121760D01*
X+3389599Y+844552D01*
X+3402774Y+844552D01*
X+3408401Y+850179D01*
X+3408401Y+661642D01*
G37*
G36*
X+2606401Y+121760D02*
X+2534099Y+121760D01*
X+2534099Y+375351D01*
X+2606401Y+375351D01*
X+2606401Y+121760D01*
G37*
G36*
X+1761901Y+121760D02*
X+1589324Y+121760D01*
X+1663699Y+196135D01*
X+1663699Y+223077D01*
X+1761901Y+321279D01*
X+1761901Y+121760D01*
G37*
G36*
X+1458676Y+121760D02*
X+1436924Y+121760D01*
X+1447800Y+132636D01*
X+1458676Y+121760D01*
G37*
G36*
X+7276201Y+7753421D02*
X+7250871Y+7778751D01*
X+7276201Y+7778751D01*
X+7276201Y+7753421D01*
G37*
G36*
X+11443951Y+7715427D02*
X+11443951Y+7715249D01*
X+11187799Y+7715249D01*
X+11187799Y+7778752D01*
X+11380626Y+7778752D01*
X+11443951Y+7715427D01*
G37*
G36*
X+10706101Y+7512049D02*
X+10678671Y+7512049D01*
X+10706101Y+7539479D01*
X+10706101Y+7512049D01*
G37*
G36*
X+4716001Y+7512049D02*
X+4603999Y+7512049D01*
X+4603999Y+7677151D01*
X+4716001Y+7677151D01*
X+4716001Y+7512049D01*
G37*
G36*
X+8855000Y+7400367D02*
X+8832216Y+7423151D01*
X+8877784Y+7423151D01*
X+8855000Y+7400367D01*
G37*
G36*
X+8601000Y+7400367D02*
X+8578216Y+7423151D01*
X+8623784Y+7423151D01*
X+8601000Y+7400367D01*
G37*
G36*
X+8347000Y+7400367D02*
X+8324216Y+7423151D01*
X+8369784Y+7423151D01*
X+8347000Y+7400367D01*
G37*
G36*
X+8093000Y+7400367D02*
X+8070216Y+7423151D01*
X+8115784Y+7423151D01*
X+8093000Y+7400367D01*
G37*
G36*
X+7839000Y+7400367D02*
X+7816216Y+7423151D01*
X+7861784Y+7423151D01*
X+7839000Y+7400367D01*
G37*
G36*
X+2273951Y+7313951D02*
X+2273951Y+7310671D01*
X+2245271Y+7339351D01*
X+2273951Y+7339351D01*
X+2273951Y+7313951D01*
G37*
G36*
X+1298401Y+7448401D02*
X+1367779Y+7448401D01*
X+1276351Y+7356973D01*
X+1276351Y+7299889D01*
X+1044311Y+7299889D01*
X+1298401Y+7553979D01*
X+1298401Y+7448401D01*
G37*
G36*
X+3521707Y+7479351D02*
X+3611060Y+7479351D01*
X+3744410Y+7346001D01*
X+3954830Y+7346001D01*
X+4099810Y+7490981D01*
X+4109884Y+7480906D01*
X+3869626Y+7240648D01*
X+3639974Y+7240648D01*
X+3506049Y+7374573D01*
X+3506049Y+7495009D01*
X+3521707Y+7479351D01*
G37*
G36*
X+11265729Y+7207249D02*
X+11217199Y+7207249D01*
X+11217199Y+7255779D01*
X+11265729Y+7207249D01*
G37*
G36*
X+7231935Y+7251701D02*
X+7254801Y+7251701D01*
X+7254801Y+7197921D01*
X+7223199Y+7229523D01*
X+7223199Y+7260437D01*
X+7231935Y+7251701D01*
G37*
G36*
X+8897832Y+7036801D02*
X+8999779Y+7036801D01*
X+8865427Y+6902449D01*
X+8775699Y+6902449D01*
X+8775699Y+6941265D01*
X+8693865Y+7023099D01*
X+8578135Y+7023099D01*
X+8559085Y+7004049D01*
X+8408671Y+7004049D01*
X+8441423Y+7036801D01*
X+8558168Y+7036801D01*
X+8601000Y+7079633D01*
X+8643832Y+7036801D01*
X+8812168Y+7036801D01*
X+8855000Y+7079633D01*
X+8897832Y+7036801D01*
G37*
G36*
X+4984751Y+7265227D02*
X+4984751Y+7004049D01*
X+4946649Y+7004049D01*
X+4946649Y+7212885D01*
X+4965699Y+7231935D01*
X+4965699Y+7270751D01*
X+4979227Y+7270751D01*
X+4984751Y+7265227D01*
G37*
G36*
X+5756801Y+6953249D02*
X+5588715Y+6953249D01*
X+5584613Y+6957351D01*
X+5756801Y+6957351D01*
X+5756801Y+6953249D01*
G37*
G36*
X+1423951Y+6942707D02*
X+1423951Y+6821231D01*
X+1682752Y+6821231D01*
X+1682751Y+6653973D01*
X+1276352Y+6247574D01*
X+1276352Y+6197600D01*
X+1276351Y+5664915D01*
X+1257301Y+5645865D01*
X+1257301Y+5530135D01*
X+1339135Y+5448301D01*
X+1366077Y+5448301D01*
X+1367747Y+5446631D01*
X+1373951Y+5446631D01*
X+1373951Y+5372099D01*
X+1339135Y+5372099D01*
X+1257301Y+5290265D01*
X+1257301Y+5174535D01*
X+1281987Y+5149849D01*
X+1143715Y+5149849D01*
X+1124665Y+5168899D01*
X+1085849Y+5168899D01*
X+1085848Y+6354394D01*
X+923999Y+6516243D01*
X+923999Y+6704830D01*
X+775210Y+6853619D01*
X+564790Y+6853619D01*
X+501649Y+6790478D01*
X+501649Y+6988382D01*
X+564790Y+6925241D01*
X+775210Y+6925241D01*
X+908560Y+7058591D01*
X+1308067Y+7058591D01*
X+1423951Y+6942707D01*
G37*
G36*
X+9631599Y+6906621D02*
X+9631599Y+6965951D01*
X+9690929Y+6965951D01*
X+9631599Y+6906621D01*
G37*
G36*
X+7480301Y+6902449D02*
X+7410449Y+6902449D01*
X+7410449Y+6909627D01*
X+7415973Y+6915151D01*
X+7480301Y+6915151D01*
X+7480301Y+6902449D01*
G37*
G36*
X+3408401Y+6761642D02*
X+3449394Y+6720649D01*
X+2898774Y+6720649D01*
X+2838393Y+6781029D01*
X+2845515Y+6788151D01*
X+3388773Y+6788151D01*
X+3408401Y+6807779D01*
X+3408401Y+6761642D01*
G37*
G36*
X+9108401Y+6761642D02*
X+9162394Y+6707649D01*
X+9011871Y+6707649D01*
X+9108401Y+6804179D01*
X+9108401Y+6761642D01*
G37*
G36*
X+2469614Y+6964901D02*
X+2546351Y+6964901D01*
X+2546351Y+6731827D01*
X+2578929Y+6699249D01*
X+1981915Y+6699249D01*
X+1962865Y+6718299D01*
X+1924049Y+6718299D01*
X+1924048Y+6858826D01*
X+1954973Y+6889751D01*
X+2393773Y+6889751D01*
X+2469268Y+6965246D01*
X+2469614Y+6964901D01*
G37*
G36*
X+6774735Y+6819901D02*
X+6816801Y+6819901D01*
X+6816801Y+6769099D01*
X+6774735Y+6769099D01*
X+6692901Y+6687265D01*
X+6692901Y+6664324D01*
X+6499299Y+6664324D01*
X+6499299Y+6692901D01*
X+6534865Y+6692901D01*
X+6616699Y+6774735D01*
X+6616699Y+6813551D01*
X+6653973Y+6813551D01*
X+6717529Y+6877107D01*
X+6774735Y+6819901D01*
G37*
G36*
X+5880101Y+6647735D02*
X+5930187Y+6597649D01*
X+5505893Y+6597649D01*
X+5500368Y+6603174D01*
X+5500368Y+6692901D01*
X+5569665Y+6692901D01*
X+5588715Y+6711951D01*
X+5880101Y+6711951D01*
X+5880101Y+6647735D01*
G37*
G36*
X+9913951Y+6580649D02*
X+9823449Y+6580649D01*
X+9823449Y+6628685D01*
X+9836865Y+6642101D01*
X+9862265Y+6642101D01*
X+9881315Y+6661151D01*
X+9913951Y+6661151D01*
X+9913951Y+6580649D01*
G37*
G36*
X+8514401Y+6580649D02*
X+8499773Y+6580649D01*
X+8496299Y+6584123D01*
X+8496299Y+6611065D01*
X+8446213Y+6661151D01*
X+8514401Y+6661151D01*
X+8514401Y+6580649D01*
G37*
G36*
X+5259072Y+6553200D02*
X+5259072Y+6521449D01*
X+5231573Y+6521449D01*
X+5226049Y+6526973D01*
X+5226049Y+6711951D01*
X+5259072Y+6711951D01*
X+5259072Y+6553200D01*
G37*
G36*
X+11182351Y+6757227D02*
X+11182351Y+6507606D01*
X+11128358Y+6561599D01*
X+11038769Y+6561599D01*
X+11038769Y+6756049D01*
X+11012893Y+6756049D01*
X+11006191Y+6762751D01*
X+11176827Y+6762751D01*
X+11182351Y+6757227D01*
G37*
G36*
X+4686301Y+7231935D02*
X+4705351Y+7212885D01*
X+4705351Y+7004049D01*
X+4679951Y+7004049D01*
X+4679951Y+6711951D01*
X+4878071Y+6711951D01*
X+4878071Y+6417751D01*
X+4698173Y+6597649D01*
X+4305299Y+6597649D01*
X+4305299Y+6712665D01*
X+4223465Y+6794499D01*
X+4107735Y+6794499D01*
X+4033885Y+6720649D01*
X+3890606Y+6720649D01*
X+3931599Y+6761642D01*
X+3931599Y+6978358D01*
X+3910605Y+6999352D01*
X+3969574Y+6999352D01*
X+4240973Y+7270751D01*
X+4686301Y+7270751D01*
X+4686301Y+7231935D01*
G37*
G36*
X+560981Y+6349430D02*
X+501649Y+6290098D01*
X+501649Y+6408762D01*
X+560981Y+6349430D01*
G37*
G36*
X+3182941Y+6251574D02*
X+3163059Y+6251574D01*
X+3173000Y+6261515D01*
X+3182941Y+6251574D01*
G37*
G36*
X+2928941Y+6251574D02*
X+2909059Y+6251574D01*
X+2919000Y+6261515D01*
X+2928941Y+6251574D01*
G37*
G36*
X+2674941Y+6251574D02*
X+2655059Y+6251574D01*
X+2665000Y+6261515D01*
X+2674941Y+6251574D01*
G37*
G36*
X+2420941Y+6251574D02*
X+2401059Y+6251574D01*
X+2411000Y+6261515D01*
X+2420941Y+6251574D01*
G37*
G36*
X+4737929Y+6216649D02*
X+4242515Y+6216649D01*
X+4223465Y+6235699D01*
X+4107735Y+6235699D01*
X+4025901Y+6153865D01*
X+4025901Y+6083299D01*
X+4006135Y+6083299D01*
X+3924301Y+6001465D01*
X+3924301Y+5885735D01*
X+4006135Y+5803901D01*
X+4121865Y+5803901D01*
X+4140915Y+5822951D01*
X+5219700Y+5822952D01*
X+5882329Y+5822951D01*
X+5862577Y+5803199D01*
X+5745832Y+5803199D01*
X+5626801Y+5684168D01*
X+5626801Y+5515832D01*
X+5745832Y+5396801D01*
X+5914168Y+5396801D01*
X+6033199Y+5515832D01*
X+6033199Y+5632577D01*
X+6096573Y+5695951D01*
X+6601461Y+5695951D01*
X+6601461Y+5656025D01*
X+6591301Y+5645865D01*
X+6591301Y+5581649D01*
X+6554027Y+5581649D01*
X+6483351Y+5510973D01*
X+6483351Y+5353049D01*
X+6474461Y+5353049D01*
X+6474461Y+5327649D01*
X+6350715Y+5327649D01*
X+6331665Y+5346699D01*
X+6215935Y+5346699D01*
X+6196885Y+5327649D01*
X+5918915Y+5327649D01*
X+5899865Y+5346699D01*
X+5784135Y+5346699D01*
X+5702301Y+5264865D01*
X+5702301Y+5238749D01*
X+4533073Y+5238749D01*
X+4152899Y+5618923D01*
X+4152899Y+5645865D01*
X+4071065Y+5727699D01*
X+3999668Y+5727699D01*
X+3924168Y+5803199D01*
X+3755832Y+5803199D01*
X+3727449Y+5774816D01*
X+3727449Y+6029973D01*
X+3656773Y+6100649D01*
X+3641599Y+6100649D01*
X+3641599Y+6166599D01*
X+3550649Y+6166599D01*
X+3550649Y+6180898D01*
X+3479973Y+6251574D01*
X+3417059Y+6251574D01*
X+3465099Y+6299614D01*
X+3465099Y+6356351D01*
X+4598227Y+6356351D01*
X+4737929Y+6216649D01*
G37*
G36*
X+8283987Y+6199649D02*
X+7967599Y+6199649D01*
X+7967599Y+6212351D01*
X+8271284Y+6212352D01*
X+8283987Y+6199649D01*
G37*
G36*
X+8514401Y+6325901D02*
X+8514401Y+6199649D01*
X+8484427Y+6199649D01*
X+8479400Y+6194622D01*
X+8474373Y+6199649D01*
X+8429213Y+6199649D01*
X+8496299Y+6266735D01*
X+8496299Y+6339351D01*
X+8514401Y+6339351D01*
X+8514401Y+6325901D01*
G37*
G36*
X+7473951Y+5937249D02*
X+7258049Y+5937249D01*
X+7258049Y+5949951D01*
X+7458373Y+5949951D01*
X+7473951Y+5965529D01*
X+7473951Y+5937249D01*
G37*
G36*
X+6571535Y+5956301D02*
X+6591301Y+5956301D01*
X+6591301Y+5937249D01*
X+6515099Y+5937249D01*
X+6515099Y+5975351D01*
X+6552485Y+5975351D01*
X+6571535Y+5956301D01*
G37*
G36*
X+10076735Y+6337301D02*
X+10142651Y+6337301D01*
X+10142651Y+6086801D01*
X+10155351Y+6086801D01*
X+10155351Y+6058773D01*
X+10154477Y+6057899D01*
X+10127535Y+6057899D01*
X+10045701Y+5976065D01*
X+10045701Y+5949123D01*
X+10033826Y+5937248D01*
X+9919412Y+5937248D01*
X+9944099Y+5961935D01*
X+9944099Y+6077665D01*
X+9862265Y+6159499D01*
X+9746535Y+6159499D01*
X+9717685Y+6130649D01*
X+9506049Y+6130649D01*
X+9506049Y+6187799D01*
X+9492399Y+6187799D01*
X+9492399Y+6339351D01*
X+10074685Y+6339351D01*
X+10076735Y+6337301D01*
G37*
G36*
X+2114551Y+5876173D02*
X+2109027Y+5870649D01*
X+2104271Y+5870649D01*
X+2114551Y+5880929D01*
X+2114551Y+5876173D01*
G37*
G36*
X+9213951Y+5866049D02*
X+9166049Y+5866049D01*
X+9166049Y+6007101D01*
X+9201865Y+6007101D01*
X+9213951Y+6019187D01*
X+9213951Y+5866049D01*
G37*
G36*
X+2821929Y+5846649D02*
X+2621599Y+5846649D01*
X+2621599Y+5859351D01*
X+2809227Y+5859351D01*
X+2821929Y+5846649D01*
G37*
G36*
X+844552Y+5704277D02*
X+775210Y+5773619D01*
X+564790Y+5773619D01*
X+501649Y+5710478D01*
X+501649Y+5908382D01*
X+564790Y+5845241D01*
X+775210Y+5845241D01*
X+844552Y+5914583D01*
X+844552Y+5704277D01*
G37*
G36*
X+8375706Y+5930130D02*
X+8312151Y+5866573D01*
X+8264227Y+5818649D01*
X+7967599Y+5818649D01*
X+7967599Y+5958351D01*
X+8347485Y+5958351D01*
X+8375706Y+5930130D01*
G37*
G36*
X+10142651Y+5657849D02*
X+10121899Y+5657849D01*
X+10121899Y+5695952D01*
X+10133774Y+5695952D01*
X+10142651Y+5704829D01*
X+10142651Y+5657849D01*
G37*
G36*
X+2146301Y+5595065D02*
X+2146301Y+5530649D01*
X+1976049Y+5530649D01*
X+1976049Y+5629351D01*
X+2180587Y+5629351D01*
X+2146301Y+5595065D01*
G37*
G36*
X+2749551Y+5588827D02*
X+2749551Y+5523471D01*
X+2742373Y+5530649D01*
X+2530649Y+5530649D01*
X+2530649Y+5539401D01*
X+2621599Y+5539401D01*
X+2621599Y+5605351D01*
X+2733027Y+5605351D01*
X+2749551Y+5588827D01*
G37*
G36*
X+560981Y+5269430D02*
X+501649Y+5210098D01*
X+501649Y+5328762D01*
X+560981Y+5269430D01*
G37*
G36*
X+844551Y+5203898D02*
X+779019Y+5269430D01*
X+844552Y+5334963D01*
X+844551Y+5203898D01*
G37*
G36*
X+9334501Y+5174535D02*
X+9365351Y+5143685D01*
X+9365351Y+5140797D01*
X+9359000Y+5134446D01*
X+9305647Y+5187799D01*
X+9158353Y+5187799D01*
X+9105000Y+5134446D01*
X+9051647Y+5187799D01*
X+8970823Y+5187799D01*
X+8945271Y+5213351D01*
X+9334501Y+5213351D01*
X+9334501Y+5174535D01*
G37*
G36*
X+8597000Y+5134446D02*
X+8594295Y+5137151D01*
X+8599705Y+5137151D01*
X+8597000Y+5134446D01*
G37*
G36*
X+2647951Y+5283827D02*
X+2647951Y+5182315D01*
X+2628901Y+5163265D01*
X+2628901Y+5103648D01*
X+2621599Y+5103648D01*
X+2621599Y+5289351D01*
X+2642427Y+5289351D01*
X+2647951Y+5283827D01*
G37*
G36*
X+3218401Y+5793401D02*
X+3218401Y+5676565D01*
X+3136901Y+5595065D01*
X+3136901Y+5479335D01*
X+3143307Y+5472929D01*
X+3079751Y+5409373D01*
X+3079751Y+4901373D01*
X+3074227Y+4895849D01*
X+3067049Y+4895849D01*
X+3067049Y+5942773D01*
X+2999546Y+6010276D01*
X+3218401Y+6010276D01*
X+3218401Y+5793401D01*
G37*
G36*
X+10428353Y+4832201D02*
X+10441231Y+4832201D01*
X+10441231Y+4794249D01*
X+10368649Y+4794249D01*
X+10368649Y+4879203D01*
X+10375000Y+4885554D01*
X+10428353Y+4832201D01*
G37*
G36*
X+844551Y+4494658D02*
X+775210Y+4563999D01*
X+564790Y+4563999D01*
X+501649Y+4500858D01*
X+501649Y+4828382D01*
X+564790Y+4765241D01*
X+775210Y+4765241D01*
X+844551Y+4834582D01*
X+844551Y+4494658D01*
G37*
G36*
X+3568701Y+4753599D02*
X+3273221Y+4753599D01*
X+3316023Y+4796401D01*
X+3568701Y+4796401D01*
X+3568701Y+4753599D01*
G37*
G36*
X+3208401Y+4687649D02*
X+3207271Y+4687649D01*
X+3208401Y+4688779D01*
X+3208401Y+4687649D01*
G37*
G36*
X+1643935Y+4889501D02*
X+1701979Y+4889501D01*
X+1378147Y+4565669D01*
X+1085849Y+4565669D01*
X+1085849Y+4889501D01*
X+1124665Y+4889501D01*
X+1143715Y+4908551D01*
X+1624885Y+4908551D01*
X+1643935Y+4889501D01*
G37*
G36*
X+8408227Y+4502151D02*
X+8429976Y+4502151D01*
X+8410224Y+4482398D01*
X+8263471Y+4629151D01*
X+8281227Y+4629151D01*
X+8408227Y+4502151D01*
G37*
G36*
X+7302501Y+4437935D02*
X+7384335Y+4356101D01*
X+7500065Y+4356101D01*
X+7519115Y+4375151D01*
X+7543401Y+4375151D01*
X+7543401Y+4286249D01*
X+7315915Y+4286249D01*
X+7296865Y+4305299D01*
X+7252385Y+4305299D01*
X+7252385Y+4552952D01*
X+7302501Y+4552952D01*
X+7302501Y+4437935D01*
G37*
G36*
X+3208401Y+4380401D02*
X+3208401Y+4280649D01*
X+2851115Y+4280649D01*
X+2826465Y+4305299D01*
X+2710735Y+4305299D01*
X+2628901Y+4223465D01*
X+2628901Y+4159249D01*
X+2611599Y+4159249D01*
X+2611599Y+4432301D01*
X+2648665Y+4432301D01*
X+2662715Y+4446351D01*
X+3208401Y+4446351D01*
X+3208401Y+4380401D01*
G37*
G36*
X+8044735Y+4356101D02*
X+8160465Y+4356101D01*
X+8177871Y+4373507D01*
X+8332027Y+4219351D01*
X+8388474Y+4219351D01*
X+8397776Y+4210049D01*
X+8242299Y+4210049D01*
X+8242299Y+4248865D01*
X+8160465Y+4330699D01*
X+8044735Y+4330699D01*
X+8000285Y+4286249D01*
X+7956599Y+4286249D01*
X+7956599Y+4375151D01*
X+8025685Y+4375151D01*
X+8044735Y+4356101D01*
G37*
G36*
X+1749351Y+4468589D02*
X+1723951Y+4468589D01*
X+1723951Y+4171411D01*
X+2176049Y+4171411D01*
X+2176049Y+4178301D01*
X+2188401Y+4178301D01*
X+2188401Y+4159249D01*
X+1575515Y+4159249D01*
X+1556465Y+4178299D01*
X+1548769Y+4178299D01*
X+1548769Y+4395047D01*
X+1749351Y+4595629D01*
X+1749351Y+4468589D01*
G37*
G36*
X+5655089Y+4835111D02*
X+5619751Y+4799773D01*
X+5619751Y+4091599D01*
X+5305378Y+4091599D01*
X+5305378Y+4928427D01*
X+5310902Y+4933951D01*
X+5753929Y+4933951D01*
X+5655089Y+4835111D01*
G37*
G36*
X+560981Y+4059810D02*
X+501649Y+4000478D01*
X+501649Y+4119142D01*
X+560981Y+4059810D01*
G37*
G36*
X+3703951Y+4013951D02*
X+3703951Y+3967648D01*
X+3631599Y+3967648D01*
X+3631599Y+4033599D01*
X+3540649Y+4033599D01*
X+3540649Y+4039351D01*
X+3703951Y+4039351D01*
X+3703951Y+4013951D01*
G37*
G36*
X+1042227Y+3968751D02*
X+1081231Y+3968751D01*
X+1081231Y+3942333D01*
X+1073865Y+3949699D01*
X+1009649Y+3949699D01*
X+1009649Y+4001329D01*
X+1042227Y+3968751D01*
G37*
G36*
X+6409351Y+4696085D02*
X+6409351Y+4511526D01*
X+6323401Y+4425576D01*
X+6323401Y+4254424D01*
X+6409351Y+4168474D01*
X+6409351Y+3946599D01*
X+6244424Y+3946599D01*
X+6165848Y+3868023D01*
X+6165848Y+3916774D01*
X+6098539Y+3984083D01*
X+6098539Y+3995975D01*
X+6108699Y+4006135D01*
X+6108699Y+4044951D01*
X+6160769Y+4044951D01*
X+6160769Y+4051301D01*
X+6230065Y+4051301D01*
X+6311899Y+4133135D01*
X+6311899Y+4248865D01*
X+6230065Y+4330699D01*
X+6160769Y+4330699D01*
X+6160769Y+4337049D01*
X+5861049Y+4337049D01*
X+5861049Y+4699827D01*
X+5866573Y+4705351D01*
X+6400085Y+4705351D01*
X+6409351Y+4696085D01*
G37*
G36*
X+10428871Y+3828551D02*
X+10639351Y+3828551D01*
X+10639351Y+3783773D01*
X+10633827Y+3778249D01*
X+9678115Y+3778249D01*
X+9659065Y+3797299D01*
X+9639299Y+3797299D01*
X+9639299Y+3867865D01*
X+9620249Y+3886915D01*
X+9620249Y+3936285D01*
X+9639299Y+3955335D01*
X+9639299Y+3994151D01*
X+10428871Y+3994151D01*
X+10428871Y+3828551D01*
G37*
G36*
X+3208401Y+3713649D02*
X+2611599Y+3713649D01*
X+2611599Y+3917951D01*
X+3208401Y+3917951D01*
X+3208401Y+3713649D01*
G37*
G36*
X+3703951Y+3680272D02*
X+3684871Y+3699352D01*
X+3703951Y+3699352D01*
X+3703951Y+3680272D01*
G37*
G36*
X+1562101Y+3675935D02*
X+1581151Y+3656885D01*
X+1581151Y+3651249D01*
X+1546049Y+3651249D01*
X+1546049Y+3771901D01*
X+1562101Y+3771901D01*
X+1562101Y+3675935D01*
G37*
G36*
X+11420981Y+3769810D02*
X+11283949Y+3632778D01*
X+11283949Y+3906842D01*
X+11420981Y+3769810D01*
G37*
G36*
X+6222176Y+3555649D02*
X+6164671Y+3555649D01*
X+6165848Y+3556826D01*
X+6165848Y+3611977D01*
X+6222176Y+3555649D01*
G37*
G36*
X+879889Y+3597689D02*
X+915226Y+3562352D01*
X+1040684Y+3562352D01*
X+1059735Y+3543301D01*
X+1093951Y+3543301D01*
X+1093951Y+3540269D01*
X+998267Y+3540269D01*
X+873794Y+3415796D01*
X+775210Y+3514379D01*
X+564790Y+3514379D01*
X+501649Y+3451238D01*
X+501649Y+3618762D01*
X+564790Y+3555621D01*
X+775210Y+3555621D01*
X+848584Y+3628994D01*
X+879889Y+3597689D01*
G37*
G36*
X+8153401Y+3654424D02*
X+8274424Y+3533401D01*
X+8445576Y+3533401D01*
X+8566599Y+3654424D01*
X+8566599Y+3670301D01*
X+8617665Y+3670301D01*
X+8636715Y+3689351D01*
X+8813085Y+3689351D01*
X+8832135Y+3670301D01*
X+8870951Y+3670301D01*
X+8870951Y+3441699D01*
X+8806735Y+3441699D01*
X+8787685Y+3422649D01*
X+7912099Y+3422649D01*
X+7912099Y+3537665D01*
X+7905749Y+3544015D01*
X+7905749Y+3771901D01*
X+7957265Y+3771901D01*
X+7976315Y+3790951D01*
X+8153401Y+3790951D01*
X+8153401Y+3654424D01*
G37*
G36*
X+10428871Y+3379351D02*
X+10428871Y+3346449D01*
X+10186115Y+3346449D01*
X+10167065Y+3365499D01*
X+10051335Y+3365499D01*
X+9969501Y+3283665D01*
X+9969501Y+3273349D01*
X+9938826Y+3273349D01*
X+9865576Y+3346599D01*
X+9694424Y+3346599D01*
X+9573401Y+3225576D01*
X+9573401Y+3067049D01*
X+9373315Y+3067049D01*
X+9354265Y+3086099D01*
X+9312385Y+3086099D01*
X+9312385Y+3367851D01*
X+9340135Y+3340101D01*
X+9455865Y+3340101D01*
X+9495116Y+3379352D01*
X+10428871Y+3379351D01*
G37*
G36*
X+4397789Y+5032789D02*
X+4433127Y+4997451D01*
X+5064080Y+4997451D01*
X+5064080Y+3304302D01*
X+5055427Y+3295649D01*
X+4966413Y+3295649D01*
X+5041899Y+3371135D01*
X+5041899Y+3486865D01*
X+4960065Y+3568699D01*
X+4844335Y+3568699D01*
X+4762501Y+3486865D01*
X+4762501Y+3459923D01*
X+4750627Y+3448049D01*
X+4626599Y+3448049D01*
X+4626599Y+4081599D01*
X+4286248Y+4081599D01*
X+4286248Y+4317174D01*
X+4135494Y+4467928D01*
X+3986049Y+4467928D01*
X+3986049Y+4666049D01*
X+3976049Y+4666049D01*
X+3976049Y+5086049D01*
X+3950649Y+5086049D01*
X+3950649Y+5338573D01*
X+3892421Y+5396801D01*
X+3924168Y+5396801D01*
X+3975668Y+5448301D01*
X+3982277Y+5448301D01*
X+4397789Y+5032789D01*
G37*
G36*
X+3917951Y+3353515D02*
X+3898901Y+3334465D01*
X+3898901Y+3295649D01*
X+3746499Y+3295649D01*
X+3746499Y+3334465D01*
X+3696413Y+3384551D01*
X+3899973Y+3384551D01*
X+3917951Y+3402529D01*
X+3917951Y+3353515D01*
G37*
G36*
X+3417129Y+3295649D02*
X+3161471Y+3295649D01*
X+3205923Y+3340101D01*
X+3232865Y+3340101D01*
X+3299165Y+3406401D01*
X+3306377Y+3406401D01*
X+3417129Y+3295649D01*
G37*
G36*
X+5353877Y+3263899D02*
X+5326935Y+3263899D01*
X+5305378Y+3242342D01*
X+5305378Y+3288401D01*
X+5378379Y+3288401D01*
X+5353877Y+3263899D01*
G37*
G36*
X+5655089Y+3267489D02*
X+5683307Y+3239271D01*
X+5676901Y+3232865D01*
X+5676901Y+3205923D01*
X+5631627Y+3160649D01*
X+5591871Y+3160649D01*
X+5630649Y+3199427D01*
X+5630649Y+3288401D01*
X+5634177Y+3288401D01*
X+5655089Y+3267489D01*
G37*
G36*
X+1687578Y+3229800D02*
X+1606551Y+3148773D01*
X+1606551Y+3143249D01*
X+1303007Y+3143249D01*
X+1225427Y+3065669D01*
X+1103951Y+3065669D01*
X+1103951Y+3040269D01*
X+1016827Y+3040269D01*
X+882884Y+2906326D01*
X+779019Y+3010190D01*
X+908560Y+3139731D01*
X+938973Y+3139731D01*
X+1010639Y+3211397D01*
X+1059735Y+3162301D01*
X+1091231Y+3162301D01*
X+1091231Y+3153571D01*
X+1556049Y+3153571D01*
X+1556049Y+3178971D01*
X+1599373Y+3178971D01*
X+1668890Y+3248488D01*
X+1687578Y+3229800D01*
G37*
G36*
X+8806735Y+3162301D02*
X+8870951Y+3162301D01*
X+8870951Y+3072573D01*
X+8865427Y+3067049D01*
X+8766599Y+3067049D01*
X+8766599Y+3181351D01*
X+8787685Y+3181351D01*
X+8806735Y+3162301D01*
G37*
G36*
X+7473951Y+3378200D02*
X+7473951Y+3328227D01*
X+7560002Y+3242176D01*
X+7543401Y+3225576D01*
X+7543401Y+3067049D01*
X+7417515Y+3067049D01*
X+7398465Y+3086099D01*
X+7282735Y+3086099D01*
X+7252385Y+3055749D01*
X+7252385Y+4025901D01*
X+7296865Y+4025901D01*
X+7315915Y+4044951D01*
X+7473951Y+4044951D01*
X+7473951Y+3378200D01*
G37*
G36*
X+8353401Y+3067049D02*
X+7956599Y+3067048D01*
X+7956599Y+3181351D01*
X+8353401Y+3181351D01*
X+8353401Y+3067049D01*
G37*
G36*
X+560981Y+3010190D02*
X+501649Y+2950858D01*
X+501649Y+3069522D01*
X+560981Y+3010190D01*
G37*
G36*
X+2745401Y+2966823D02*
X+2566227Y+2787649D01*
X+2298699Y+2787649D01*
X+2298699Y+2851865D01*
X+2281163Y+2869401D01*
X+2444835Y+2869401D01*
X+2456735Y+2857501D01*
X+2572465Y+2857501D01*
X+2654299Y+2939335D01*
X+2654299Y+3054351D01*
X+2745401Y+3054351D01*
X+2745401Y+2966823D01*
G37*
G36*
X+4923891Y+2750649D02*
X+4838699Y+2750649D01*
X+4838699Y+2801065D01*
X+4819648Y+2820116D01*
X+4819648Y+2919351D01*
X+4923891Y+2919351D01*
X+4923891Y+2750649D01*
G37*
G36*
X+6323401Y+2805977D02*
X+6323401Y+2737221D01*
X+6318249Y+2742373D01*
X+6318249Y+2811129D01*
X+6323401Y+2805977D01*
G37*
G36*
X+8353401Y+2825751D02*
X+8353401Y+2684424D01*
X+8377176Y+2660649D01*
X+7932824Y+2660649D01*
X+7956599Y+2684424D01*
X+7956599Y+2825752D01*
X+8353401Y+2825751D01*
G37*
G36*
X+7282735Y+2806701D02*
X+7398465Y+2806701D01*
X+7417515Y+2825751D01*
X+7543401Y+2825751D01*
X+7543401Y+2684424D01*
X+7567176Y+2660649D01*
X+7252385Y+2660649D01*
X+7252385Y+2837051D01*
X+7282735Y+2806701D01*
G37*
G36*
X+1606551Y+2589973D02*
X+1601027Y+2584449D01*
X+1359613Y+2584449D01*
X+1384299Y+2609135D01*
X+1384299Y+2643571D01*
X+1566049Y+2643571D01*
X+1566049Y+2668972D01*
X+1606551Y+2668972D01*
X+1606551Y+2589973D01*
G37*
G36*
X+1101231Y+2643571D02*
X+1104901Y+2643571D01*
X+1104901Y+2609135D01*
X+1129587Y+2584449D01*
X+853658Y+2584449D01*
X+908560Y+2639351D01*
X+957153Y+2639351D01*
X+1101231Y+2783429D01*
X+1101231Y+2643571D01*
G37*
G36*
X+8978865Y+2570957D02*
X+8889173Y+2660649D01*
X+8742824Y+2660649D01*
X+8766599Y+2684424D01*
X+8766599Y+2825751D01*
X+8965373Y+2825751D01*
X+8978865Y+2839243D01*
X+8978865Y+2570957D01*
G37*
G36*
X+10428871Y+2828551D02*
X+10639351Y+2828551D01*
X+10639351Y+2158173D01*
X+10615830Y+2134652D01*
X+9475027Y+2134652D01*
X+9328152Y+1987777D01*
X+9328152Y+1370774D01*
X+9322627Y+1365249D01*
X+9312385Y+1365249D01*
X+9312385Y+2806701D01*
X+9354265Y+2806701D01*
X+9373315Y+2825751D01*
X+9573401Y+2825751D01*
X+9573401Y+2684424D01*
X+9694424Y+2563401D01*
X+9865576Y+2563401D01*
X+9986599Y+2684424D01*
X+9986599Y+2825752D01*
X+10387774Y+2825752D01*
X+10428871Y+2866849D01*
X+10428871Y+2828551D01*
G37*
G36*
X+11420981Y+3269430D02*
X+11276001Y+3124450D01*
X+11276001Y+2953823D01*
X+10880649Y+2558471D01*
X+10880649Y+2828551D01*
X+10911129Y+2828551D01*
X+10911129Y+3006651D01*
X+11129633Y+3006651D01*
X+11283949Y+3160967D01*
X+11283949Y+3406462D01*
X+11420981Y+3269430D01*
G37*
G36*
X+560981Y+2509810D02*
X+501649Y+2450478D01*
X+501649Y+2569142D01*
X+560981Y+2509810D01*
G37*
G36*
X+6918865Y+2446557D02*
X+6907973Y+2457449D01*
X+6247573Y+2457449D01*
X+6242048Y+2462974D01*
X+6242048Y+2495551D01*
X+6653973Y+2495551D01*
X+6800848Y+2642426D01*
X+6800848Y+3039774D01*
X+6736599Y+3104023D01*
X+6736599Y+3225576D01*
X+6734948Y+3227226D01*
X+6877048Y+3369326D01*
X+6877048Y+4547426D01*
X+6882574Y+4552952D01*
X+6918865Y+4552952D01*
X+6918865Y+2446557D01*
G37*
G36*
X+1749351Y+2386773D02*
X+1743827Y+2381249D01*
X+1739071Y+2381249D01*
X+1749351Y+2391529D01*
X+1749351Y+2386773D01*
G37*
G36*
X+3308351Y+2691574D02*
X+3308351Y+2201599D01*
X+3117849Y+2201599D01*
X+3117849Y+2718627D01*
X+3123373Y+2724151D01*
X+3340928Y+2724151D01*
X+3308351Y+2691574D01*
G37*
G36*
X+7423151Y+2310573D02*
X+7423151Y+2178671D01*
X+7334249Y+2267573D01*
X+7334249Y+2298701D01*
X+7398465Y+2298701D01*
X+7417515Y+2317751D01*
X+7430329Y+2317751D01*
X+7423151Y+2310573D01*
G37*
G36*
X+6123401Y+2175221D02*
X+6115661Y+2182961D01*
X+6123401Y+2182961D01*
X+6123401Y+2175221D01*
G37*
G36*
X+11276001Y+2416190D02*
X+11420981Y+2271210D01*
X+11297790Y+2148019D01*
X+11004549Y+2148019D01*
X+11004549Y+2305207D01*
X+11276001Y+2576659D01*
X+11276001Y+2416190D01*
G37*
G36*
X+2876551Y+2118071D02*
X+2843973Y+2150649D01*
X+2471599Y+2150649D01*
X+2471599Y+2201599D01*
X+2076449Y+2201599D01*
X+2076449Y+2546351D01*
X+2666173Y+2546351D01*
X+2876551Y+2756729D01*
X+2876551Y+2118071D01*
G37*
G36*
X+6813552Y+2210626D02*
X+6813552Y+2095499D01*
X+6723935Y+2095499D01*
X+6704885Y+2076449D01*
X+6528624Y+2076449D01*
X+6536599Y+2084424D01*
X+6536599Y+2216151D01*
X+6808027Y+2216151D01*
X+6813552Y+2210626D01*
G37*
G36*
X+8718551Y+2210627D02*
X+8718551Y+1991051D01*
X+8566599Y+2143003D01*
X+8566599Y+2216151D01*
X+8713027Y+2216151D01*
X+8718551Y+2210627D01*
G37*
G36*
X+5857319Y+1871459D02*
X+5854699Y+1871459D01*
X+5854699Y+1874079D01*
X+5857319Y+1871459D01*
G37*
G36*
X+5575301Y+1871459D02*
X+5524499Y+1871459D01*
X+5524499Y+1879351D01*
X+5575301Y+1879351D01*
X+5575301Y+1871459D01*
G37*
G36*
X+11360212Y+1831599D02*
X+11161642Y+1831599D01*
X+11106999Y+1776956D01*
X+11106999Y+1894021D01*
X+11297790Y+1894021D01*
X+11360212Y+1831599D01*
G37*
G36*
X+3401401Y+1777751D02*
X+4146551Y+1777751D01*
X+4146551Y+1777173D01*
X+4141027Y+1771649D01*
X+3379027Y+1771649D01*
X+3346649Y+1739271D01*
X+3346649Y+1776973D01*
X+3265221Y+1858401D01*
X+3401401Y+1858401D01*
X+3401401Y+1777751D01*
G37*
G36*
X+10737851Y+1703349D02*
X+9938826Y+1703349D01*
X+9865576Y+1776599D01*
X+9694424Y+1776599D01*
X+9573401Y+1655576D01*
X+9573401Y+1484424D01*
X+9694424Y+1363401D01*
X+9865576Y+1363401D01*
X+9938826Y+1436651D01*
X+9994649Y+1436651D01*
X+9762992Y+1204994D01*
X+9740899Y+1204994D01*
X+9740899Y+1226265D01*
X+9659065Y+1308099D01*
X+9569448Y+1308099D01*
X+9569448Y+1887829D01*
X+9574973Y+1893354D01*
X+10715776Y+1893354D01*
X+10737851Y+1915429D01*
X+10737851Y+1703349D01*
G37*
G36*
X+8153401Y+2084424D02*
X+8274424Y+1963401D01*
X+8386997Y+1963401D01*
X+8573799Y+1776599D01*
X+8474424Y+1776599D01*
X+8387994Y+1690170D01*
X+8312865Y+1765299D01*
X+8303883Y+1765299D01*
X+8107033Y+1962149D01*
X+7811215Y+1962149D01*
X+7804865Y+1968499D01*
X+7689135Y+1968499D01*
X+7664449Y+1943813D01*
X+7664449Y+2210627D01*
X+7669973Y+2216151D01*
X+8153401Y+2216151D01*
X+8153401Y+2084424D01*
G37*
G36*
X+5056331Y+1667491D02*
X+4990271Y+1733551D01*
X+5056331Y+1733551D01*
X+5056331Y+1667491D01*
G37*
G36*
X+8115301Y+1576717D02*
X+8115301Y+1567735D01*
X+8139987Y+1543049D01*
X+8077915Y+1543049D01*
X+8058865Y+1562099D01*
X+7956599Y+1562099D01*
X+7956599Y+1655576D01*
X+7916724Y+1695451D01*
X+7996567Y+1695451D01*
X+8115301Y+1576717D01*
G37*
G36*
X+6122226Y+1835152D02*
X+6172200Y+1835152D01*
X+6704885Y+1835151D01*
X+6723935Y+1816101D01*
X+6813552Y+1816101D01*
X+6813552Y+1416049D01*
X+6668224Y+1416049D01*
X+6736599Y+1484424D01*
X+6736599Y+1655576D01*
X+6615576Y+1776599D01*
X+6444424Y+1776599D01*
X+6323401Y+1655576D01*
X+6323401Y+1484424D01*
X+6391776Y+1416049D01*
X+6325315Y+1416049D01*
X+6306265Y+1435099D01*
X+6190535Y+1435099D01*
X+6115049Y+1359613D01*
X+6115049Y+1842329D01*
X+6122226Y+1835152D01*
G37*
G36*
X+1403352Y+1575626D02*
X+1403352Y+1410412D01*
X+1378665Y+1435099D01*
X+1371449Y+1435099D01*
X+1371449Y+1581151D01*
X+1397827Y+1581151D01*
X+1403352Y+1575626D01*
G37*
G36*
X+3931599Y+1385963D02*
X+3931599Y+1389351D01*
X+3934987Y+1389351D01*
X+3931599Y+1385963D01*
G37*
G36*
X+7329351Y+1931227D02*
X+7329351Y+1386049D01*
X+7303951Y+1386049D01*
X+7303951Y+1376049D01*
X+7252385Y+1376049D01*
X+7252385Y+2008193D01*
X+7329351Y+1931227D01*
G37*
G36*
X+4406901Y+1810465D02*
X+4406901Y+1694735D01*
X+4488735Y+1612901D01*
X+4528401Y+1612901D01*
X+4528401Y+1331821D01*
X+4285422Y+1574800D01*
X+4387849Y+1677227D01*
X+4387849Y+1822201D01*
X+4418637Y+1822201D01*
X+4406901Y+1810465D01*
G37*
G36*
X+1661642Y+1308401D02*
X+1748401Y+1308401D01*
X+1748401Y+1307799D01*
X+1644648Y+1307799D01*
X+1644648Y+1325395D01*
X+1661642Y+1308401D01*
G37*
G36*
X+920751Y+1600000D02*
X+920751Y+1550027D01*
X+991427Y+1479351D01*
X+1028551Y+1479351D01*
X+1028551Y+1268871D01*
X+1079351Y+1268871D01*
X+1079351Y+1250649D01*
X+1009973Y+1250649D01*
X+923999Y+1336623D01*
X+923999Y+1525210D01*
X+775210Y+1673999D01*
X+564790Y+1673999D01*
X+416001Y+1525210D01*
X+416001Y+1314790D01*
X+560981Y+1169810D01*
X+416001Y+1024830D01*
X+416001Y+814410D01*
X+523812Y+706599D01*
X+338401Y+706599D01*
X+338401Y+571499D01*
X+327799Y+571499D01*
X+327799Y+696049D01*
X+270649Y+696049D01*
X+270649Y+1702627D01*
X+276173Y+1708151D01*
X+920751Y+1708151D01*
X+920751Y+1600000D01*
G37*
G36*
X+8243951Y+1175573D02*
X+8216049Y+1147671D01*
X+8216049Y+1200151D01*
X+8243951Y+1200151D01*
X+8243951Y+1175573D01*
G37*
G36*
X+10173865Y+1162536D02*
X+10209112Y+1127289D01*
X+10044491Y+1127289D01*
X+10173865Y+1256663D01*
X+10173865Y+1162536D01*
G37*
G36*
X+2945226Y+1708152D02*
X+3047175Y+1708152D01*
X+3060700Y+1721678D01*
X+3105351Y+1677027D01*
X+3105351Y+1431599D01*
X+3044401Y+1431599D01*
X+3044401Y+1085848D01*
X+2951599Y+1085848D01*
X+2951599Y+1431599D01*
X+2890649Y+1431599D01*
X+2890649Y+1472373D01*
X+2743773Y+1619249D01*
X+2591515Y+1619249D01*
X+2572465Y+1638299D01*
X+2456735Y+1638299D01*
X+2374901Y+1556465D01*
X+2374901Y+1529523D01*
X+2255351Y+1409973D01*
X+2255351Y+1356099D01*
X+2204401Y+1356099D01*
X+2204401Y+1085848D01*
X+2183574Y+1085848D01*
X+2178049Y+1091373D01*
X+2178049Y+1751773D01*
X+2071421Y+1858401D01*
X+2471599Y+1858401D01*
X+2471599Y+1909351D01*
X+2744027Y+1909351D01*
X+2945226Y+1708152D01*
G37*
G36*
X+2588401Y+1085848D02*
X+2547599Y+1085848D01*
X+2547599Y+1356099D01*
X+2542721Y+1356099D01*
X+2545523Y+1358901D01*
X+2572465Y+1358901D01*
X+2588401Y+1374837D01*
X+2588401Y+1085848D01*
G37*
G36*
X+5168901Y+958849D02*
X+5143499Y+958849D01*
X+5143499Y+996951D01*
X+5168901Y+996951D01*
X+5168901Y+958849D01*
G37*
G36*
X+3508401Y+1323401D02*
X+3508401Y+1069401D01*
X+3931599Y+1069401D01*
X+3931599Y+1135351D01*
X+3950285Y+1135351D01*
X+3955335Y+1130301D01*
X+4071065Y+1130301D01*
X+4152899Y+1212135D01*
X+4152899Y+1327865D01*
X+4091413Y+1389351D01*
X+4129627Y+1389351D01*
X+4458529Y+1060449D01*
X+3963227Y+1060449D01*
X+3856368Y+953590D01*
X+3778358Y+1031599D01*
X+3561642Y+1031599D01*
X+3473448Y+943405D01*
X+3473448Y+1524826D01*
X+3478973Y+1530351D01*
X+3508401Y+1530351D01*
X+3508401Y+1323401D01*
G37*
G36*
X+5530849Y+774539D02*
X+5530849Y+811973D01*
X+5472871Y+869951D01*
X+5626261Y+869951D01*
X+5530849Y+774539D01*
G37*
G36*
X+4744599Y+675221D02*
X+4744599Y+762091D01*
X+4687539Y+819151D01*
X+4888529Y+819151D01*
X+4744599Y+675221D01*
G37*
G36*
X+2606401Y+616649D02*
X+2534099Y+616649D01*
X+2534099Y+844552D01*
X+2606401Y+844552D01*
X+2606401Y+616649D01*
G37*
G36*
X+1761901Y+616649D02*
X+1716027Y+616649D01*
X+1710600Y+611222D01*
X+1710600Y+793751D01*
X+1761901Y+793751D01*
X+1761901Y+616649D01*
G37*
G36*
X+5564661Y+551649D02*
X+5536373Y+551649D01*
X+5530849Y+557173D01*
X+5530849Y+585461D01*
X+5564661Y+551649D01*
G37*
G36*
X+4343401Y+762091D02*
X+4343401Y+595909D01*
X+4388661Y+550649D01*
X+4090026Y+550649D01*
X+4057649Y+518272D01*
X+4057649Y+813627D01*
X+4063173Y+819151D01*
X+4400461Y+819151D01*
X+4343401Y+762091D01*
G37*
G36*
X+7188401Y+470650D02*
X+7112828Y+470650D01*
X+7112827Y+470649D01*
X+7051599Y+470649D01*
X+7051599Y+485991D01*
X+7188401Y+485991D01*
X+7188401Y+470650D01*
G37*
G36*
X+1418502Y+602201D02*
X+1701579Y+602201D01*
X+1511299Y+411921D01*
X+1511299Y+489665D01*
X+1429465Y+571499D01*
X+1381599Y+571499D01*
X+1381599Y+706599D01*
X+1370600Y+706599D01*
X+1370600Y+774701D01*
X+1418502Y+774701D01*
X+1418502Y+602201D01*
G37*
G36*
X+6495335Y+393701D02*
X+6527879Y+393701D01*
X+6508827Y+374649D01*
X+6473599Y+374649D01*
X+6473599Y+415437D01*
X+6495335Y+393701D01*
G37*
G36*
X+6338773Y+880463D02*
X+6221401Y+763091D01*
X+6221401Y+607564D01*
X+6118401Y+504564D01*
X+6118401Y+374649D01*
X+6072973Y+374649D01*
X+6023599Y+424023D01*
X+6023599Y+504564D01*
X+5920599Y+607564D01*
X+5920599Y+763091D01*
X+5803091Y+880599D01*
X+5779769Y+880599D01*
X+5779769Y+895351D01*
X+6323885Y+895351D01*
X+6338773Y+880463D01*
G37*
G36*
X+5324889Y+421889D02*
X+5436427Y+310351D01*
X+5715486Y+310351D01*
X+5727388Y+298449D01*
X+5422173Y+298449D01*
X+5297599Y+423023D01*
X+5297599Y+449179D01*
X+5324889Y+421889D01*
G37*
G36*
X+10822343Y+298448D02*
X+10677277Y+298448D01*
X+10749810Y+370981D01*
X+10822343Y+298448D01*
G37*
G36*
X+10245621Y+374790D02*
X+10321963Y+298448D01*
X+9995612Y+298448D01*
X+10071099Y+373935D01*
X+10071099Y+391897D01*
X+10238003Y+558801D01*
X+10245621Y+558801D01*
X+10245621Y+374790D01*
G37*
G36*
X+5045401Y+606564D02*
X+4942401Y+503564D01*
X+4942401Y+356436D01*
X+5046436Y+252401D01*
X+5126977Y+252401D01*
X+5166029Y+213349D01*
X+4431031Y+213349D01*
X+4387574Y+229590D01*
X+4375865Y+241299D01*
X+4359099Y+241299D01*
X+4359099Y+309351D01*
X+4539486Y+309351D01*
X+4596436Y+252401D01*
X+4743564Y+252401D01*
X+4847599Y+356436D01*
X+4847599Y+436977D01*
X+5045401Y+634779D01*
X+5045401Y+606564D01*
G37*
D10*
X+1955800Y+4445000D02*
X+2077800Y+4567000D01*
X+2400000Y+4567000D01*
X+1524000Y+3429000D02*
X+1514620Y+3419620D01*
X+1412720Y+3419620D01*
X+2133600Y+3683000D02*
X+2133600Y+3770800D01*
X+2209800Y+3847000D01*
X+2400000Y+3847000D01*
X+1549400Y+2921000D02*
X+1548020Y+2919620D01*
X+1422720Y+2919620D01*
X+1402720Y+4419620D02*
X+1834500Y+4851400D01*
X+2870200Y+4851400D01*
X+2946400Y+4927600D01*
X+2946400Y+5892800D01*
X+2859200Y+5980000D01*
X+2410000Y+5980000D01*
X+2184400Y+5181600D02*
X+2239800Y+5237000D01*
X+2410000Y+5237000D01*
X+1600200Y+3911600D02*
X+1592180Y+3919620D01*
X+1400000Y+3919620D01*
X+3429000Y+5435600D02*
X+3276600Y+5435600D01*
X+3200400Y+5359400D01*
X+3200400Y+4851400D01*
X+3124200Y+4775200D01*
X+1946200Y+4775200D01*
X+1870000Y+4699000D01*
X+1870000Y+4320000D01*
X+3251200Y+7518400D02*
X+3355680Y+7518400D01*
X+3360000Y+7522720D01*
X+3175000Y+3479800D02*
X+3098800Y+3403600D01*
X+1946200Y+3403600D01*
X+1870000Y+3479800D01*
X+1870000Y+3830000D01*
X+2971800Y+7543800D02*
X+2972880Y+7542720D01*
X+3110000Y+7542720D01*
X+1701800Y+3733800D02*
X+1701800Y+3386200D01*
X+1778000Y+3310000D01*
X+1870000Y+3310000D01*
X+2667000Y+7518400D02*
X+2671320Y+7522720D01*
X+2810000Y+7522720D01*
X+1870000Y+2800000D02*
X+1870000Y+2336800D01*
X+1793800Y+2260600D01*
X+965200Y+2260600D01*
X+889000Y+2184400D01*
X+889000Y+2133600D01*
X+812800Y+2057400D01*
X+457200Y+2057400D01*
X+381000Y+2133600D01*
X+381000Y+7340600D01*
X+457200Y+7416800D01*
X+990600Y+7416800D01*
X+1320800Y+7747000D01*
X+2463800Y+7747000D01*
X+2550000Y+7660800D01*
X+2550000Y+7542720D01*
X+10760000Y+3000000D02*
X+10760000Y+2108200D01*
X+10665803Y+2014003D01*
X+9525000Y+2014003D01*
X+9448800Y+1937803D01*
X+9448800Y+1320800D01*
X+9372600Y+1244600D01*
X+8991600Y+1244600D01*
X+8915400Y+1320800D01*
X+8915400Y+2463800D01*
X+8839200Y+2540000D01*
X+7289800Y+2540000D01*
X+7213600Y+2463800D01*
X+7213600Y+2217600D01*
X+7450000Y+1981200D01*
X+7450000Y+1240000D01*
X+1270000Y+1940000D02*
X+1270000Y+1778000D01*
X+1346200Y+1701800D01*
X+1447800Y+1701800D01*
X+1524000Y+1625600D01*
X+1524000Y+1130000D01*
X+1624960Y+1130000D01*
X+5003800Y+939800D02*
X+4013200Y+939800D01*
X+3937000Y+863600D01*
X+3937000Y+300000D01*
X+3710000Y+300000D01*
X+5384800Y+3124200D02*
X+5510000Y+3249400D01*
X+5510000Y+3690000D01*
X+5384800Y+1854200D02*
X+5380000Y+1849400D01*
X+5380000Y+1620000D01*
X+7035800Y+1168400D02*
X+7138400Y+1168400D01*
X+7200000Y+1230000D01*
X+6781800Y+1955800D02*
X+6172200Y+1955800D01*
X+5994400Y+2133600D01*
X+4343400Y+2133600D01*
X+4267200Y+2057400D01*
X+4267200Y+1727200D01*
X+4191000Y+1651000D01*
X+3429000Y+1651000D01*
X+3352800Y+1574800D01*
X+3352800Y+965200D01*
X+2133600Y+965200D01*
X+2057400Y+1041400D01*
X+2057400Y+1701800D01*
X+1981200Y+1778000D01*
X+1524000Y+1778000D01*
X+1447800Y+1854200D01*
X+1447800Y+2082800D01*
X+1117600Y+2082800D01*
X+1041400Y+2006600D01*
X+1041400Y+1600000D01*
X+1200000Y+1600000D01*
X+6172200Y+4191000D02*
X+6014720Y+4191000D01*
X+10109200Y+3225800D02*
X+10683800Y+3225800D01*
X+10760000Y+3302000D01*
X+10760000Y+3500000D01*
X+9601200Y+3657600D02*
X+10683800Y+3657600D01*
X+10760000Y+3733800D01*
X+10760000Y+4000000D01*
X+9601200Y+1168400D02*
X+8915400Y+1168400D01*
X+8839200Y+1244600D01*
X+8839200Y+2260600D01*
X+8763000Y+2336800D01*
X+7620000Y+2336800D01*
X+7543800Y+2260600D01*
X+7543800Y+1428920D01*
X+7730000Y+1242720D01*
X+8620000Y+606640D02*
X+6731000Y+606640D01*
X+6654800Y+682840D01*
X+6654800Y+1117600D01*
X+6578600Y+1193800D01*
X+6070600Y+1193800D01*
X+5994400Y+1270000D01*
X+5994400Y+1905000D01*
X+5899400Y+2000000D01*
X+4543130Y+2000000D01*
X+8620000Y+820000D02*
X+8509000Y+820000D01*
X+8478150Y+850850D01*
X+6769150Y+850850D01*
X+6756400Y+863600D01*
X+5765800Y+1320800D02*
X+5091400Y+1320800D01*
X+4902200Y+1510000D01*
X+4740000Y+1510000D01*
X+8620000Y+820000D02*
X+8620000Y+820001D01*
X+8737600Y+820001D01*
X+8737601Y+820000D01*
X+8960000Y+820000D01*
X+6553200Y+533400D02*
X+6578600Y+558800D01*
X+6578600Y+1041400D01*
X+6502400Y+1117600D01*
X+4572000Y+1117600D01*
X+4179600Y+1510000D01*
X+3720000Y+1510000D01*
X+7950200Y+1143000D02*
X+7950200Y+1191900D01*
X+7988300Y+1230000D01*
X+8070000Y+1230000D01*
X+7112000Y+5588000D02*
X+7239000Y+5461000D01*
X+7670800Y+5461000D01*
X+7797800Y+5334000D01*
X+10312400Y+5334000D01*
X+10403000Y+5424600D01*
X+10403000Y+5769300D01*
X+7340600Y+5562600D02*
X+7366000Y+5537200D01*
X+10199800Y+5537200D01*
X+10276000Y+5613400D01*
X+10276000Y+5769300D01*
X+7340600Y+6223000D02*
X+6903720Y+6223000D01*
X+6451600Y+965200D02*
X+6400800Y+1016000D01*
X+5633720Y+1016000D01*
X+8102600Y+4495800D02*
X+7442200Y+4495800D01*
X+9601200Y+5130800D02*
X+9677400Y+5207000D01*
X+10453800Y+5207000D01*
X+10530000Y+5283200D01*
X+10530000Y+5769300D01*
X+9804400Y+6781800D02*
X+10816520Y+6781800D01*
X+10892720Y+6705600D01*
X+10892720Y+6610000D01*
X+9804400Y+6019800D02*
X+9794600Y+6010000D01*
X+9360000Y+6010000D01*
X+889000Y+101600D02*
X+735000Y+101600D01*
X+735000Y+260000D01*
X+889000Y+660400D02*
X+735000Y+506400D01*
X+735000Y+410000D01*
X+152400Y+330200D02*
X+150000Y+327800D01*
X+150000Y+210000D01*
X+990600Y+533400D02*
X+990600Y+703800D01*
X+1066800Y+780000D01*
X+1224551Y+780000D01*
X+990600Y+101600D02*
X+985000Y+107200D01*
X+985000Y+260000D01*
X+10760000Y+4800000D02*
X+10760000Y+4500000D01*
X+10770000Y+4500000D01*
X+3430000Y+5980000D02*
X+3430000Y+6130925D01*
X+2273300Y+6130925D01*
X+2235200Y+6092825D01*
X+2235200Y+6045200D01*
X+3430000Y+5980000D02*
X+3606800Y+5980000D01*
X+3606800Y+5511800D01*
X+3830000Y+5288600D01*
X+3830000Y+4940000D01*
X+2235200Y+6045200D02*
X+2235200Y+5826200D01*
X+2159000Y+5750000D01*
X+1830000Y+5750000D01*
X+2514600Y+1498600D02*
X+2693800Y+1498600D01*
X+2770000Y+1422400D01*
X+2770000Y+1180000D01*
X+2514600Y+1498600D02*
X+2376000Y+1360000D01*
X+2376000Y+1140000D01*
X+2297000Y+3041000D02*
X+1835800Y+3041000D01*
X+1828800Y+3048000D01*
X+2297000Y+3041000D02*
X+2476500Y+3041000D01*
X+2514600Y+3002900D01*
X+2514600Y+2997200D01*
X+2768600Y+5105400D02*
X+2768600Y+5333800D01*
X+2692400Y+5410000D01*
X+1830000Y+5410000D01*
X+3850000Y+4160000D02*
X+4058400Y+4160000D01*
X+4064000Y+4165600D01*
X+3733800Y+5232400D02*
X+3729200Y+5237000D01*
X+3430000Y+5237000D01*
X+3850000Y+4160000D02*
X+2774200Y+4160000D01*
X+2768600Y+4165600D01*
X+1310000Y+1130000D02*
X+960000Y+1130000D01*
X+670000Y+1420000D01*
X+2997200Y+1955800D02*
X+2997200Y+2768600D01*
X+3073400Y+2844800D01*
X+4216400Y+2844800D01*
X+4343400Y+2971800D01*
X+4622800Y+2971800D01*
X+4699000Y+2895600D01*
X+4699000Y+2743200D01*
X+2220000Y+2030000D02*
X+2794000Y+2030000D01*
X+2995200Y+1828800D01*
X+2997200Y+1828800D01*
X+2997200Y+1955800D01*
X+3226000Y+1727000D01*
X+3226000Y+1180000D01*
X+2220000Y+2030000D02*
X+1969600Y+2030000D01*
X+1879600Y+1940000D01*
X+1700000Y+1940000D01*
X+4699000Y+2743200D02*
X+4695800Y+2740000D01*
X+4590000Y+2740000D01*
X+4699000Y+1854200D02*
X+5210000Y+1854200D01*
X+5210000Y+1620000D01*
X+3420000Y+4567000D02*
X+3632200Y+4567000D01*
X+3679200Y+4520000D01*
X+3840000Y+4520000D01*
X+3420000Y+4567000D02*
X+2595800Y+4567000D01*
X+2590800Y+4572000D01*
X+7975600Y+5435600D02*
X+7981200Y+5430000D01*
X+9077280Y+5430000D01*
X+7950200Y+6553200D02*
X+7916400Y+6587000D01*
X+7770000Y+6587000D01*
X+3420000Y+3847000D02*
X+3683000Y+3847000D01*
X+3710000Y+3820000D01*
X+3850000Y+3820000D01*
X+1498600Y+5892800D02*
X+1517650Y+5873750D01*
X+1517650Y+5742350D01*
X+1520000Y+5740000D01*
X+3420000Y+3847000D02*
X+3420000Y+4038600D01*
X+1498600Y+4038600D01*
X+965200Y+4216400D02*
X+965200Y+6304420D01*
X+670000Y+6599620D01*
X+1955800Y+2184400D02*
X+1041400Y+2184400D01*
X+965200Y+2108200D01*
X+965200Y+1905000D01*
X+889000Y+1828800D01*
X+226200Y+1828800D01*
X+150000Y+1752600D01*
X+150000Y+550000D01*
X+1920000Y+1140000D02*
X+1920000Y+1305800D01*
X+1905000Y+1320800D01*
X+6273800Y+5207000D02*
X+5842000Y+5207000D01*
X+4090000Y+3040000D02*
X+5681600Y+3040000D01*
X+5816600Y+3175000D01*
X+11010000Y+5010000D02*
X+10889125Y+4889125D01*
X+10676405Y+4889125D01*
X+10587280Y+4800000D01*
X+965200Y+4216400D02*
X+1092200Y+4089400D01*
X+1326520Y+4089400D01*
X+1402720Y+4165600D01*
X+1402720Y+4289620D01*
X+5842000Y+3683000D02*
X+5842000Y+4191000D01*
X+965200Y+4216400D02*
X+889000Y+4140200D01*
X+889000Y+3759200D01*
X+965200Y+3683000D01*
X+1117600Y+3683000D01*
X+1828800Y+914400D02*
X+1564551Y+914400D01*
X+1564551Y+780000D01*
X+6604000Y+5207000D02*
X+6604000Y+5461000D01*
X+6731000Y+5461000D01*
X+1117600Y+3683000D02*
X+1303380Y+3683000D01*
X+1400000Y+3779620D01*
X+1920000Y+1140000D02*
X+1920000Y+914400D01*
X+1828800Y+914400D01*
X+6530000Y+3140000D02*
X+6680200Y+2989800D01*
X+6680200Y+2692400D01*
X+6604000Y+2616200D01*
X+6273800Y+2616200D01*
X+6197600Y+2692400D01*
X+6197600Y+3098800D01*
X+6121400Y+3175000D01*
X+5969000Y+3175000D01*
X+8204200Y+965200D02*
X+8296280Y+1057280D01*
X+8390000Y+1057280D01*
X+7450000Y+1067280D02*
X+7378700Y+1067280D01*
X+7353780Y+1092200D01*
X+7340600Y+1092200D01*
X+8204200Y+965200D02*
X+8070000Y+965200D01*
X+8070000Y+1057280D01*
X+1117600Y+3302000D02*
X+1119980Y+3299620D01*
X+1237280Y+3299620D01*
X+5842000Y+3683000D02*
X+5969000Y+3683000D01*
X+7450000Y+1067280D02*
X+7594600Y+1067280D01*
X+7597320Y+1070000D01*
X+7730000Y+1070000D01*
X+8102600Y+2438400D02*
X+7340600Y+2438400D01*
X+1955800Y+2667000D02*
X+1955800Y+2184400D01*
X+6604000Y+5207000D02*
X+6273800Y+5207000D01*
X+5969000Y+3175000D02*
X+5816600Y+3175000D01*
X+6477000Y+7239000D02*
X+6477000Y+7640000D01*
X+6296100Y+7640000D01*
X+4090000Y+3040000D02*
X+3784600Y+3040000D01*
X+3665600Y+2921000D01*
X+2870200Y+2921000D01*
X+2616200Y+2667000D01*
X+1955800Y+2667000D01*
X+1244600Y+2667000D02*
X+1247280Y+2669680D01*
X+1247280Y+2789620D01*
X+9144000Y+6146800D02*
X+9144000Y+6290000D01*
X+9340000Y+6290000D01*
X+9144000Y+6146800D02*
X+9020000Y+6146800D01*
X+9020000Y+6010000D01*
X+7620000Y+6883400D02*
X+8636000Y+6883400D01*
X+4013200Y+5588000D02*
X+4483100Y+5118100D01*
X+6680200Y+5118100D01*
X+6921500Y+5359400D01*
X+7620000Y+5359400D01*
X+8890000Y+6375400D02*
X+8868100Y+6353500D01*
X+8712000Y+6353500D01*
X+8712000Y+6333000D01*
X+6832600Y+6629400D02*
X+6954200Y+6629400D01*
X+6959600Y+6624000D01*
X+7020000Y+6624000D01*
X+8432800Y+5156200D02*
X+7035800Y+5156200D01*
X+9474200Y+5232400D02*
X+9486000Y+5220600D01*
X+9486000Y+5010000D01*
X+7188200Y+6858000D02*
X+7168200Y+6878000D01*
X+7020000Y+6878000D01*
X+7137400Y+5257800D02*
X+8730200Y+5257800D01*
X+8978000Y+5010000D01*
X+8102600Y+4191000D02*
X+8077200Y+4165600D01*
X+7239000Y+4165600D01*
X+8051800Y+355600D02*
X+8042200Y+346000D01*
X+7779000Y+346000D01*
X+8051800Y+355600D02*
X+8061400Y+346000D01*
X+8319000Y+346000D01*
X+8229600Y+6680200D02*
X+7518400Y+6680200D01*
X+7442200Y+6604000D01*
X+7442200Y+6477000D01*
X+7366000Y+6400800D01*
X+6502400Y+6400800D01*
X+6426200Y+6324600D01*
X+5074920Y+6324600D01*
X+4998720Y+6400800D01*
X+4998720Y+6858000D01*
X+8474000Y+7240000D02*
X+8269800Y+7035800D01*
X+7366000Y+7035800D01*
X+7289800Y+6959600D01*
X+7289800Y+6827200D01*
X+7213600Y+6751000D01*
X+7020000Y+6751000D01*
X+9220200Y+7086600D02*
X+11473400Y+7086600D01*
X+11590000Y+6970000D01*
X+9220200Y+7213600D02*
X+9220200Y+7086600D01*
X+2284000Y+7130000D02*
X+2175000Y+7239000D01*
X+1669000Y+7239000D01*
X+1570000Y+7140000D01*
X+9236000Y+7240000D02*
X+9220200Y+7240000D01*
X+9220200Y+7213600D01*
X+3581400Y+7086600D02*
X+3581400Y+7128600D01*
X+3360000Y+7350000D01*
X+9490000Y+7240000D02*
X+9641400Y+7391400D01*
X+11252200Y+7391400D01*
X+11413600Y+7230000D01*
X+11590000Y+7230000D01*
X+2921000Y+7340600D02*
X+3080600Y+7340600D01*
X+3110000Y+7370000D01*
X+2565400Y+7874000D02*
X+2584120Y+7892720D01*
X+2690000Y+7892720D01*
X+9486000Y+7760000D02*
X+9346000Y+7620000D01*
X+7239000Y+7620000D01*
X+7137400Y+7721600D01*
X+6756400Y+7721600D01*
X+6680200Y+7645400D01*
X+6680200Y+7010400D01*
X+6604000Y+6934200D01*
X+6477000Y+6934200D01*
X+4064000Y+5943600D02*
X+6375400Y+5943600D01*
X+8356600Y+1422400D02*
X+8001000Y+1422400D01*
X+9499600Y+4013200D02*
X+9499600Y+3810000D01*
X+7239000Y+6578600D02*
X+7204075Y+6543675D01*
X+6248400Y+6543675D01*
X+6181725Y+6477000D01*
X+5455920Y+6477000D01*
X+5379720Y+6553200D01*
X+5379720Y+6858000D01*
X+9982200Y+5638800D02*
X+9956800Y+5613400D01*
X+7467600Y+5613400D01*
X+7416800Y+5664200D01*
X+7239000Y+5664200D01*
X+1230000Y+4289620D02*
X+1095180Y+4289620D01*
X+1066800Y+4318000D01*
X+1230000Y+4289620D02*
X+1230000Y+4419620D01*
X+1227280Y+3779620D02*
X+1046380Y+3779620D01*
X+1016000Y+3810000D01*
X+1227280Y+3779620D02*
X+1227280Y+3919620D01*
X+7213600Y+711200D02*
X+7205751Y+719049D01*
X+6850000Y+719049D01*
X+6850000Y+750000D01*
X+7213600Y+711200D02*
X+7221449Y+719049D01*
X+7390000Y+719049D01*
X+7390000Y+750000D01*
X+7899400Y+3911600D02*
X+8788400Y+3911600D01*
X+8864600Y+3987800D01*
X+8864600Y+4673600D01*
X+8940800Y+4749800D01*
X+10171800Y+4749800D01*
X+10248000Y+4826000D01*
X+10248000Y+5010000D01*
X+8890000Y+6206000D02*
X+8890000Y+6290000D01*
X+9025040Y+6290000D01*
X+8890000Y+6070600D02*
X+8890000Y+6206000D01*
X+5549900Y+1422400D02*
X+5890000Y+1422400D01*
X+5890000Y+1620000D01*
X+4546600Y+1752600D02*
X+4800600Y+1752600D01*
X+5130800Y+1422400D01*
X+5549900Y+1422400D01*
X+330200Y+431800D02*
X+347550Y+414450D01*
X+585000Y+414450D01*
X+585000Y+410000D01*
X+1371600Y+431800D02*
X+1354250Y+414450D01*
X+1135000Y+414450D01*
X+1135000Y+410000D01*
X+330200Y+254000D02*
X+585000Y+254000D01*
X+585000Y+260000D01*
X+1371600Y+254000D02*
X+1135000Y+254000D01*
X+1135000Y+260000D01*
X+670000Y+919620D02*
X+1366380Y+919620D01*
X+1371600Y+914400D01*
X+10756000Y+7760000D02*
X+10463600Y+7467600D01*
X+9209600Y+7467600D01*
X+8982000Y+7240000D01*
X+3505200Y+2743200D02*
X+3505200Y+2641600D01*
X+3429000Y+2641600D01*
X+3429000Y+2030000D01*
X+3210000Y+2030000D01*
X+1397000Y+7188200D02*
X+1397000Y+7140280D01*
X+1570000Y+6967280D01*
X+670000Y+7179240D02*
X+1388040Y+7179240D01*
X+1397000Y+7188200D01*
X+7770000Y+5698000D02*
X+7594600Y+5698000D01*
X+7476000Y+5816600D01*
X+6046600Y+5816600D01*
X+5830000Y+5600000D01*
X+10656999Y+5257800D02*
X+10656999Y+5221399D01*
X+10566400Y+5130800D01*
X+9860800Y+5130800D01*
X+9740000Y+5010000D01*
X+2400000Y+3593000D02*
X+2030000Y+3593000D01*
X+2030000Y+3830000D01*
X+6850000Y+350000D02*
X+6654800Y+350000D01*
X+6558800Y+254000D01*
X+6023000Y+254000D01*
X+5846000Y+431000D01*
X+3230000Y+7717280D02*
X+3454400Y+7717280D01*
X+3571680Y+7600000D01*
X+3849620Y+7600000D01*
X+4670000Y+430000D02*
X+4140000Y+430000D01*
X+4140000Y+300000D01*
X+3840000Y+4347280D02*
X+4085520Y+4347280D01*
X+4165600Y+4267200D01*
X+4165600Y+4114800D01*
X+4038600Y+3987800D01*
X+4038600Y+3276600D01*
X+5549900Y+1549400D02*
X+5549900Y+1422400D01*
X+2148000Y+496000D02*
X+1766000Y+496000D01*
X+1524000Y+254000D01*
X+6781800Y+7442200D02*
X+6781800Y+7563800D01*
X+6858000Y+7640000D01*
X+7020000Y+7640000D01*
X+10515600Y+5943600D02*
X+10403000Y+6056200D01*
X+10403000Y+6290000D01*
X+8534400Y+5816600D02*
X+8534400Y+5698000D01*
X+8712000Y+5698000D01*
X+8890000Y+6206000D02*
X+8712000Y+6206000D01*
X+1550000Y+7460000D02*
X+1550000Y+7620000D01*
X+1397000Y+7188200D02*
X+1397000Y+7307000D01*
X+1550000Y+7460000D01*
X+2420000Y+7460000D01*
X+3276600Y+5537200D02*
X+3430000Y+5537200D01*
X+3430000Y+5726000D01*
X+2148000Y+496000D02*
X+2986000Y+496000D01*
X+2998000Y+508000D01*
X+2998000Y+462000D01*
X+5960000Y+7078000D02*
X+5291800Y+7078000D01*
X+5207000Y+7162800D01*
X+5207000Y+7594600D01*
X+10657000Y+5769300D02*
X+10657000Y+5943600D01*
X+10515600Y+5943600D01*
X+7770000Y+5698000D02*
X+8314200Y+5698000D01*
X+8432800Y+5816600D01*
X+7770000Y+6079000D02*
X+8424400Y+6079000D01*
X+8458200Y+6045200D01*
X+1066800Y+5029200D02*
X+1701800Y+5029200D01*
X+3708400Y+4267200D02*
X+3581400Y+4267200D01*
X+3581400Y+4313000D01*
X+3420000Y+4313000D01*
X+5549900Y+1549400D02*
X+5549900Y+1620000D01*
X+5550000Y+1620000D01*
X+10656999Y+5257800D02*
X+10756000Y+5158799D01*
X+10756000Y+5010000D01*
X+3840000Y+4347280D02*
X+3840000Y+4349750D01*
X+3746500Y+4349750D01*
X+3708400Y+4311650D01*
X+3708400Y+4267200D01*
X+4417280Y+2740000D02*
X+4417280Y+2870200D01*
X+4546600Y+2870200D01*
X+3850000Y+3647280D02*
X+3850000Y+3505200D01*
X+3683000Y+3505200D01*
X+3606800Y+3581400D01*
X+3606800Y+3606800D01*
X+3420000Y+3593000D02*
X+3420000Y+3463400D01*
X+3606800Y+3276600D01*
X+8534400Y+6070600D02*
X+8534400Y+6079000D01*
X+8712000Y+6079000D01*
X+8712000Y+5952000D02*
X+8890000Y+5952000D01*
X+8890000Y+6070600D01*
X+4670000Y+430000D02*
X+5078200Y+838200D01*
X+5334000Y+838200D01*
X+5410200Y+762000D01*
X+5410200Y+507200D01*
X+5486400Y+431000D01*
X+5846000Y+431000D01*
X+2950000Y+7717280D02*
X+2819400Y+7717280D01*
X+2816680Y+7720000D01*
X+2690000Y+7720000D01*
X+3390000Y+3040000D02*
X+3074400Y+3040000D01*
X+3073400Y+3041000D01*
X+2997000Y+3041000D01*
X+2209800Y+4318000D02*
X+2207800Y+4320000D01*
X+2030000Y+4320000D01*
X+10657000Y+5769300D02*
X+10657000Y+5715000D01*
X+10656999Y+5714999D01*
X+10656999Y+5257800D01*
X+4970000Y+7600000D02*
X+4772200Y+7797800D01*
X+4047420Y+7797800D01*
X+3849620Y+7600000D01*
X+2400000Y+3593000D02*
X+3420000Y+3593000D01*
X+10756000Y+7760000D02*
X+10921400Y+7594600D01*
X+11617320Y+7594600D01*
X+11762720Y+7740000D01*
X+2410000Y+5726000D02*
X+2783000Y+5726000D01*
X+2870200Y+5638800D01*
X+2870200Y+5059200D01*
X+2794000Y+4983000D01*
X+2410000Y+4983000D01*
X+6850000Y+350000D02*
X+7162800Y+350000D01*
X+7162801Y+350001D01*
X+7390000Y+350001D01*
X+7390000Y+350000D01*
X+7594600Y+5969000D02*
X+7594600Y+5825000D01*
X+7770000Y+5825000D01*
X+7770000Y+6079000D02*
X+7594600Y+6079000D01*
X+7594600Y+5969000D01*
X+4546600Y+2311400D02*
X+4368800Y+2311400D01*
X+4368800Y+2553800D01*
X+4445000Y+2630000D01*
X+5550000Y+2630000D01*
X+3850000Y+3647280D02*
X+3962400Y+3647280D01*
X+3962400Y+3874880D01*
X+3850000Y+3987280D01*
X+1320800Y+1295400D02*
X+1200000Y+1295400D01*
X+1200000Y+1420000D01*
X+2950000Y+7717280D02*
X+2950000Y+7717279D01*
X+3048000Y+7717279D01*
X+3048001Y+7717280D01*
X+3230000Y+7717280D01*
X+11762720Y+7230000D02*
X+11861800Y+7230000D01*
X+11861800Y+7480000D01*
X+11762720Y+7480000D01*
X+7594600Y+5969000D02*
X+7611600Y+5952000D01*
X+7770000Y+5952000D01*
X+8534400Y+5943600D02*
X+8534400Y+6070600D01*
X+11762720Y+7230000D02*
X+11762720Y+6970000D01*
X+11762720Y+7480000D02*
X+11762720Y+7740000D01*
X+8534400Y+5816600D02*
X+8432800Y+5816600D01*
X+4417280Y+2740000D02*
X+3508400Y+2740000D01*
X+3505200Y+2743200D01*
X+2410000Y+5726000D02*
X+2410000Y+5537200D01*
X+2286000Y+5537200D01*
X+3390000Y+3040000D02*
X+3598800Y+3040000D01*
X+3606800Y+3048000D01*
X+2159000Y+2794000D02*
X+2153000Y+2800000D01*
X+2030000Y+2800000D01*
X+2159000Y+3302000D02*
X+2151000Y+3310000D01*
X+2030000Y+3310000D01*
X+3708400Y+4775200D02*
X+3716320Y+4767280D01*
X+3830000Y+4767280D01*
X+2209800Y+4318000D02*
X+2214800Y+4313000D01*
X+2400000Y+4313000D01*
X+3420000Y+3593000D02*
X+3593000Y+3593000D01*
X+3606800Y+3606800D01*
X+3606800Y+5003800D02*
X+3586000Y+4983000D01*
X+3430000Y+4983000D01*
X+8712000Y+5952000D02*
X+8542800Y+5952000D01*
X+8534400Y+5943600D01*
X+8534400Y+5816600D02*
X+8542800Y+5825000D01*
X+8712000Y+5825000D01*
X+1240000Y+3419620D02*
X+1048240Y+3419620D01*
X+889000Y+3260380D01*
X+670000Y+3260380D01*
X+1240000Y+3419620D02*
X+1350980Y+3530600D01*
X+1549400Y+3530600D01*
X+1625600Y+3454400D01*
X+1625600Y+3375820D01*
X+1549400Y+3299620D01*
X+1410000Y+3299620D01*
X+1250000Y+2919620D02*
X+1066800Y+2919620D01*
X+907180Y+2760000D01*
X+670000Y+2760000D01*
X+1250000Y+2919620D02*
X+1352980Y+3022600D01*
X+1574800Y+3022600D01*
X+1651000Y+2946400D01*
X+1651000Y+2865820D01*
X+1574800Y+2789620D01*
X+1420000Y+2789620D01*
X+8356600Y+6324600D02*
X+8348200Y+6333000D01*
X+7770000Y+6333000D01*
X+8940800Y+5715000D02*
X+8945800Y+5720000D01*
X+9077280Y+5720000D01*
X+4902200Y+2438400D02*
X+4883400Y+2457200D01*
X+4543130Y+2457200D01*
X+8890000Y+279400D02*
X+8960000Y+349400D01*
X+8960000Y+606640D01*
X+7848600Y+939800D02*
X+7848600Y+1244600D01*
X+7924800Y+1320800D01*
X+8640000Y+1320800D01*
X+8640000Y+1220000D01*
X+5892800Y+1219200D02*
X+5435600Y+1219200D01*
X+5398800Y+1256000D01*
X+4740000Y+1256000D01*
X+7848600Y+939800D02*
X+6934200Y+939800D01*
X+6858000Y+1016000D01*
X+6858000Y+1219200D01*
X+6781800Y+1295400D01*
X+6248400Y+1295400D01*
X+10998200Y+203200D02*
X+10972800Y+177800D01*
X+8661400Y+177800D01*
X+8585200Y+254000D01*
X+8585200Y+406400D01*
X+8509000Y+482600D01*
X+7848600Y+482600D01*
X+670000Y+2259620D02*
X+874180Y+2463800D01*
X+1651000Y+2463800D01*
X+1727200Y+2540000D01*
X+1727200Y+3098800D01*
X+1803400Y+3175000D01*
X+5105400Y+3175000D01*
X+5184729Y+3254329D01*
X+5184729Y+4978400D01*
X+5260929Y+5054600D01*
X+7219800Y+5054600D01*
X+7264400Y+5010000D01*
X+7454000Y+5010000D01*
X+4826000Y+7289800D02*
X+4826000Y+6858000D01*
D11*
X+9780000Y+3140000D02*
X+11074400Y+3140000D01*
X+11150600Y+3216200D01*
X+11150600Y+4140980D01*
X+11530000Y+4520380D01*
X+10134600Y+4876800D02*
X+8864600Y+4876800D01*
X+8788400Y+4800600D01*
X+8788400Y+4089400D01*
X+8712200Y+4013200D01*
X+7848600Y+4013200D01*
X+7772400Y+3937000D01*
X+7772400Y+3479800D01*
X+9780000Y+1570000D02*
X+10795000Y+1570000D01*
X+10871200Y+1646200D01*
X+10871200Y+2360440D01*
X+11530000Y+3019240D01*
D10*
X+4800600Y+2235200D02*
X+4794000Y+2228600D01*
X+3852250Y+2228600D01*
X+10388600Y+965200D02*
X+10384310Y+969490D01*
X+10384310Y+1006640D01*
X+8640000Y+1006640D01*
X+8560000Y+4340000D02*
X+8382000Y+4340000D01*
X+8048400Y+4673600D01*
X+6832600Y+4673600D01*
X+6756400Y+4597400D01*
X+6756400Y+3419300D01*
X+6680200Y+3343100D01*
X+5892800Y+3343100D01*
X+5892800Y+3530600D01*
X+5969000Y+3530600D01*
X+6045200Y+3606800D01*
X+6045200Y+3866800D01*
X+5969000Y+3943000D01*
X+9296400Y+2946400D02*
X+10337800Y+2946400D01*
X+10391400Y+3000000D01*
X+10580000Y+3000000D01*
X+8559800Y+3810000D02*
X+8890000Y+3810000D01*
X+5969000Y+3943000D02*
X+5969000Y+4064000D01*
X+6070600Y+6578600D02*
X+6121400Y+6578600D01*
X+6121400Y+6624000D01*
X+6296100Y+6624000D01*
X+6530000Y+4340000D02*
X+6530000Y+3513400D01*
X+6451600Y+3435000D01*
X+5969000Y+3435000D01*
X+9398000Y+3479800D02*
X+9418200Y+3500000D01*
X+10580000Y+3500000D01*
X+6530000Y+4340000D02*
X+6530000Y+4650400D01*
X+6629400Y+4749800D01*
X+8331200Y+4749800D01*
X+8458200Y+4622800D01*
X+8636000Y+4622800D01*
X+8712200Y+4546600D01*
X+8712200Y+4165600D01*
X+8636000Y+4089400D01*
X+7670800Y+4089400D01*
X+7594600Y+4013200D01*
X+7594600Y+3378200D01*
X+7670800Y+3302000D01*
X+8864600Y+3302000D01*
X+6019800Y+6705600D02*
X+6065200Y+6751000D01*
X+6296100Y+6751000D01*
X+6477000Y+4826000D02*
X+5816600Y+4826000D01*
X+5740400Y+4749800D01*
X+5740400Y+3352800D01*
X+5816600Y+3276600D01*
X+6197600Y+3276600D01*
X+6273800Y+3200400D01*
X+6273800Y+3026200D01*
X+6530000Y+2770000D01*
X+6477000Y+6832600D02*
X+6296100Y+6832600D01*
X+6296100Y+6878000D01*
X+6477000Y+4826000D02*
X+6604000Y+4826000D01*
X+8686800Y+4826000D02*
X+6604000Y+4826000D01*
X+6604000Y+4947000D01*
X+9474200Y+4114800D02*
X+10580000Y+4114800D01*
X+10580000Y+4000000D01*
X+8559800Y+2946400D02*
X+8915400Y+2946400D01*
X+8991600Y+3022600D01*
X+8991600Y+4597400D01*
X+9067800Y+4673600D01*
X+10590000Y+4673600D01*
X+10590000Y+4500000D01*
X+8559800Y+2946400D02*
X+7340600Y+2946400D01*
X+6578600Y+7112000D02*
X+6558600Y+7132000D01*
X+6296100Y+7132000D01*
X+6731000Y+5588000D02*
X+6731000Y+5721000D01*
X+5511800Y+6832600D02*
X+6045200Y+6832600D01*
X+6121400Y+6908800D01*
X+6121400Y+7259000D01*
X+6296100Y+7259000D01*
X+4013200Y+1270000D02*
X+4021827Y+1270000D01*
X+4021827Y+1256000D01*
X+3720000Y+1256000D01*
X+8319000Y+746000D02*
X+8483600Y+746000D01*
X+8518400Y+711200D01*
X+8737600Y+711200D01*
X+8737600Y+584200D01*
X+8319000Y+746000D02*
X+8319000Y+746001D01*
X+8077200Y+746001D01*
X+8077199Y+746000D01*
X+7779000Y+746000D01*
X+8737600Y+584200D02*
X+8864600Y+711200D01*
X+9093200Y+711200D01*
X+8737600Y+584200D02*
X+8737600Y+279400D01*
X+8483600Y+279400D02*
X+8382000Y+177800D01*
X+5372200Y+177800D01*
X+5120000Y+430000D01*
X+6939280Y+5969000D02*
X+7040880Y+6070600D01*
X+7408400Y+6070600D01*
X+7543800Y+6206000D01*
X+7770000Y+6206000D01*
X+2667000Y+7239000D02*
X+2667000Y+6781800D01*
X+2794000Y+6654800D01*
X+10248000Y+7760000D02*
X+10387400Y+7899400D01*
X+11430600Y+7899400D01*
X+11590000Y+7740000D01*
X+2667000Y+7239000D02*
X+2550000Y+7239000D01*
X+2550000Y+7370000D01*
X+3098800Y+7899400D02*
X+3220600Y+7899400D01*
X+3230000Y+7890000D01*
X+6578600Y+7670800D02*
X+6578600Y+7340600D01*
X+1905000Y+6578600D02*
X+2717800Y+6578600D01*
X+2794000Y+6654800D01*
X+10530000Y+6290000D02*
X+10530000Y+6132400D01*
X+10617200Y+6045200D01*
X+11226800Y+6045200D01*
X+11303000Y+6121400D01*
X+11303000Y+6807200D01*
X+11226800Y+6883400D01*
X+9779000Y+6883400D01*
X+9702800Y+6807200D01*
X+9702800Y+6705600D01*
X+9702800Y+6604000D02*
X+9685800Y+6587000D01*
X+8712000Y+6587000D01*
X+10530000Y+6290000D02*
X+10524599Y+6290000D01*
X+10524599Y+6574599D01*
X+10550000Y+6600000D01*
X+7712000Y+7240000D02*
X+7560600Y+7391400D01*
X+7289800Y+7391400D01*
X+9702800Y+6604000D02*
X+9702800Y+6705600D01*
X+7188200Y+7061200D02*
X+7188200Y+7093900D01*
X+7150100Y+7132000D01*
X+7020000Y+7132000D01*
X+6832600Y+6959600D02*
X+6832600Y+7259000D01*
X+7020000Y+7259000D01*
X+7962000Y+7760000D02*
X+7822600Y+7899400D01*
X+6883400Y+7899400D01*
X+6824000Y+7840000D01*
X+5960000Y+7840000D01*
X+8712000Y+6460000D02*
X+8449800Y+6460000D01*
X+8356600Y+6553200D01*
X+8712000Y+6460000D02*
X+10117600Y+6460000D01*
X+10134600Y+6477000D01*
X+10194620Y+6477000D01*
X+10232720Y+6515100D01*
X+10232720Y+6600000D01*
X+10617200Y+6477000D02*
X+10657000Y+6437200D01*
X+10657000Y+6290000D01*
X+2819400Y+7823200D02*
X+2819400Y+7851900D01*
X+2857500Y+7890000D01*
X+2950000Y+7890000D01*
X+10502000Y+7760000D02*
X+10285800Y+7543800D01*
X+7239000Y+7543800D01*
X+7188200Y+7493000D01*
X+4165600Y+6096000D02*
X+6629400Y+6096000D01*
X+10845800Y+7493000D02*
X+10858800Y+7480000D01*
X+11590000Y+7480000D01*
X+2692400Y+7366000D02*
X+2708400Y+7350000D01*
X+2810000Y+7350000D01*
X+1905000Y+7010400D02*
X+2343800Y+7010400D01*
X+2420000Y+7086600D01*
X+2420000Y+7287280D01*
X+1803400Y+6604000D02*
X+1803400Y+6908800D01*
X+1905000Y+7010400D01*
X+5689600Y+6223000D02*
X+4902200Y+6223000D01*
X+1803400Y+6604000D02*
X+1803400Y+6553200D01*
X+1879600Y+6477000D01*
X+4648200Y+6477000D01*
X+4902200Y+6223000D01*
X+1397000Y+5588000D02*
X+1397000Y+6197600D01*
X+1803400Y+6604000D01*
X+7770000Y+6460000D02*
X+7594600Y+6460000D01*
X+7459200Y+6324600D01*
X+6832600Y+6324600D01*
X+6731000Y+6223000D01*
X+1905000Y+7130000D02*
X+1905000Y+7010400D01*
X+9372600Y+5715000D02*
X+9474200Y+5816600D01*
X+10083800Y+5816600D01*
X+10185400Y+5918200D01*
X+1830000Y+5237280D02*
X+1996640Y+5237280D01*
X+2077720Y+5156200D01*
X+2077720Y+4953000D01*
X+1520000Y+5227280D02*
X+1727200Y+5434480D01*
X+1727200Y+5474480D01*
X+1830000Y+5577280D01*
X+10377280Y+6600000D02*
X+10377280Y+6705600D01*
X+10165600Y+6705600D01*
X+10060000Y+6600000D01*
X+10377280Y+6600000D02*
X+10482880Y+6705600D01*
X+10720000Y+6705600D01*
X+10720000Y+6610000D01*
X+10769600Y+6560400D01*
X+10769600Y+6197600D01*
X+10185400Y+5918200D02*
X+10276000Y+6008800D01*
X+10276000Y+6290000D01*
X+1776000Y+7130000D02*
X+1905000Y+7130000D01*
X+6832600Y+5715000D02*
X+6939280Y+5715000D01*
X+6939280Y+5588000D01*
X+6731000Y+5943600D02*
X+6832600Y+5943600D01*
X+6832600Y+5880100D01*
X+7023100Y+5880100D01*
X+7112000Y+5969000D01*
X+7770000Y+6460000D02*
X+8246600Y+6460000D01*
X+8255000Y+6451600D01*
X+1830000Y+5237280D02*
X+1820000Y+5227280D01*
X+1520000Y+5227280D01*
X+4902200Y+3429000D02*
X+4800600Y+3327400D01*
X+4360000Y+3327400D01*
X+4360000Y+3680000D01*
X+1778000Y+7620000D02*
X+2250000Y+7620000D01*
X+9372600Y+5435600D02*
X+9367000Y+5430000D01*
X+9250000Y+5430000D01*
X+6731000Y+6223000D02*
X+6731000Y+5943600D01*
X+5308600Y+1016000D02*
X+5461000Y+1016000D01*
X+6731000Y+6223000D02*
X+5689600Y+6223000D01*
X+6070600Y+3073400D02*
X+6121400Y+3022600D01*
X+6121400Y+2413000D01*
X+6197600Y+2336800D01*
X+6858000Y+2336800D01*
X+6934200Y+2260600D01*
X+6934200Y+1133480D01*
X+7010400Y+1057280D01*
X+7200000Y+1057280D01*
X+9372600Y+5715000D02*
X+9367600Y+5720000D01*
X+9250000Y+5720000D01*
X+1397000Y+5588000D02*
X+1417720Y+5567280D01*
X+1520000Y+5567280D01*
X+1520000Y+5227280D02*
X+1402120Y+5227280D01*
X+1397000Y+5232400D01*
X+5715000Y+1854200D02*
X+5720000Y+1849200D01*
X+5720000Y+1620000D01*
X+5207000Y+6985000D02*
X+5207000Y+6858000D01*
X+2794000Y+6654800D02*
X+2794000Y+6600000D01*
X+4165600Y+6600000D01*
X+4165600Y+6654800D01*
X+2768600Y+6908800D02*
X+3338800Y+6908800D01*
X+3516600Y+7086600D01*
X+3581400Y+7086600D01*
X+9220200Y+7086600D02*
X+8915400Y+6781800D01*
X+7442200Y+6781800D01*
X+7366000Y+6705600D01*
X+7366000Y+6553200D01*
X+7289800Y+6477000D01*
X+6400800Y+6477000D01*
X+6324600Y+6400800D01*
X+5181600Y+6400800D01*
X+5105400Y+6477000D01*
X+5105400Y+7315200D01*
X+5029200Y+7391400D01*
X+4191000Y+7391400D01*
X+3919600Y+7120000D01*
X+3614800Y+7120000D01*
X+3581400Y+7086600D01*
X+2284000Y+6368000D02*
X+2020000Y+6104000D01*
X+2020000Y+5957000D01*
X+1905000Y+5842000D01*
X+1701800Y+5842000D01*
X+1625600Y+5765800D01*
X+1625600Y+5505600D01*
X+1520000Y+5400000D01*
D11*
X+7747000Y+1828800D02*
X+8051800Y+1828800D01*
X+8255000Y+1625600D01*
D12*
X+11530000Y+2021020D02*
X+11038020Y+2021020D01*
X+10980000Y+1963000D01*
X+10980000Y+1505800D01*
X+10894200Y+1420000D01*
X+10157600Y+1420000D01*
X+9815595Y+1077995D01*
X+8853405Y+1077995D01*
X+8763000Y+1168400D01*
X+8763000Y+1767000D01*
X+8360000Y+2170000D01*
D11*
X+4318000Y+101600D02*
X+4410000Y+80000D01*
X+11226800Y+80000D01*
X+11226800Y+101600D01*
X+11226800Y+787400D02*
X+11880000Y+787400D01*
X+11880000Y+640000D01*
D12*
X+8390000Y+1230000D02*
X+8509000Y+1111000D01*
X+8509000Y+965200D01*
X+9931400Y+431800D02*
X+10185400Y+685800D01*
X+11624200Y+685800D01*
X+11830000Y+480000D01*
X+11880000Y+480000D01*
D13*
X+1955800Y+4445000D03*
X+1524000Y+3429000D03*
X+2133600Y+3683000D03*
X+1549400Y+2921000D03*
X+2184400Y+5181600D03*
X+1600200Y+3911600D03*
X+3429000Y+5435600D03*
X+3251200Y+7518400D03*
X+3175000Y+3479800D03*
X+2971800Y+7543800D03*
X+1701800Y+3733800D03*
X+2667000Y+7518400D03*
X+5003800Y+939800D03*
X+5384800Y+3124200D03*
X+5384800Y+1854200D03*
X+7035800Y+1168400D03*
X+6781800Y+1955800D03*
X+6172200Y+4191000D03*
X+10109200Y+3225800D03*
X+9601200Y+3657600D03*
X+9601200Y+1168400D03*
X+6756400Y+863600D03*
X+5765800Y+1320800D03*
X+6553200Y+533400D03*
X+7950200Y+1143000D03*
X+7340600Y+5562600D03*
X+7340600Y+6223000D03*
X+6451600Y+965200D03*
X+7442200Y+4495800D03*
X+8102600Y+4495800D03*
X+9601200Y+5130800D03*
X+9804400Y+6781800D03*
X+9804400Y+6019800D03*
X+889000Y+101600D03*
X+889000Y+660400D03*
X+152400Y+330200D03*
X+990600Y+101600D03*
X+990600Y+533400D03*
X+2235200Y+6045200D03*
X+1828800Y+3048000D03*
X+2514600Y+2997200D03*
X+2514600Y+1498600D03*
X+2768600Y+5105400D03*
X+4064000Y+4165600D03*
X+3733800Y+5232400D03*
X+2768600Y+4165600D03*
X+4699000Y+1854200D03*
X+4699000Y+2743200D03*
X+2590800Y+4572000D03*
X+7975600Y+5435600D03*
X+7950200Y+6553200D03*
X+1498600Y+4038600D03*
X+1905000Y+1320800D03*
X+5842000Y+5207000D03*
X+7340600Y+1092200D03*
X+1117600Y+3302000D03*
X+5842000Y+3683000D03*
X+7340600Y+2438400D03*
X+8102600Y+2438400D03*
X+6273800Y+5207000D03*
X+1117600Y+3683000D03*
X+6477000Y+7239000D03*
X+1955800Y+2667000D03*
X+5816600Y+3175000D03*
X+8204200Y+965200D03*
X+1244600Y+2667000D03*
X+8636000Y+6883400D03*
X+7620000Y+6883400D03*
X+7620000Y+5359400D03*
X+4013200Y+5588000D03*
X+8890000Y+6375400D03*
X+9144000Y+6146800D03*
X+6832600Y+6629400D03*
X+7035800Y+5156200D03*
X+8432800Y+5156200D03*
X+9474200Y+5232400D03*
X+7188200Y+6858000D03*
X+7137400Y+5257800D03*
X+7239000Y+4165600D03*
X+8102600Y+4191000D03*
X+8051800Y+355600D03*
X+8229600Y+6680200D03*
X+2921000Y+7340600D03*
X+2565400Y+7874000D03*
X+6477000Y+6934200D03*
X+6375400Y+5943600D03*
X+4064000Y+5943600D03*
X+8001000Y+1422400D03*
X+8356600Y+1422400D03*
X+9499600Y+3810000D03*
X+9499600Y+4013200D03*
X+7239000Y+6578600D03*
X+7239000Y+5664200D03*
X+9982200Y+5638800D03*
X+1066800Y+4318000D03*
X+1016000Y+3810000D03*
X+7899400Y+3911600D03*
X+7213600Y+711200D03*
X+330200Y+254000D03*
X+1371600Y+254000D03*
X+1371600Y+914400D03*
X+4038600Y+3276600D03*
X+6781800Y+7442200D03*
X+5207000Y+7594600D03*
X+8458200Y+6045200D03*
X+1701800Y+5029200D03*
X+1066800Y+5029200D03*
X+4546600Y+2870200D03*
X+3606800Y+3276600D03*
X+4546600Y+2311400D03*
X+1320800Y+1295400D03*
X+1524000Y+254000D03*
X+4546600Y+1752600D03*
X+2286000Y+5537200D03*
X+3505200Y+2743200D03*
X+3708400Y+4267200D03*
X+1371600Y+431800D03*
X+10515600Y+5943600D03*
X+3276600Y+5537200D03*
X+330200Y+431800D03*
X+3606800Y+3048000D03*
X+2159000Y+2794000D03*
X+2159000Y+3302000D03*
X+3708400Y+4775200D03*
X+2209800Y+4318000D03*
X+3606800Y+5003800D03*
X+8534400Y+5943600D03*
X+8534400Y+5816600D03*
X+8356600Y+6324600D03*
X+8940800Y+5715000D03*
X+4902200Y+2438400D03*
X+8890000Y+279400D03*
X+5892800Y+1219200D03*
X+6248400Y+1295400D03*
X+7848600Y+482600D03*
X+10998200Y+203200D03*
X+7848600Y+939800D03*
X+4826000Y+7289800D03*
X+7772400Y+3479800D03*
X+10134600Y+4876800D03*
X+4800600Y+2235200D03*
X+10388600Y+965200D03*
X+9296400Y+2946400D03*
X+8890000Y+3810000D03*
X+8559800Y+3810000D03*
X+5969000Y+4064000D03*
X+6070600Y+6578600D03*
X+9398000Y+3479800D03*
X+8864600Y+3302000D03*
X+6019800Y+6705600D03*
X+6477000Y+6832600D03*
X+6477000Y+4826000D03*
X+8686800Y+4826000D03*
X+9474200Y+4114800D03*
X+7340600Y+2946400D03*
X+8559800Y+2946400D03*
X+6578600Y+7112000D03*
X+6731000Y+5588000D03*
X+5511800Y+6832600D03*
X+9093200Y+711200D03*
X+8737600Y+279400D03*
X+8483600Y+279400D03*
X+3098800Y+7899400D03*
X+6578600Y+7340600D03*
X+6578600Y+7670800D03*
X+1905000Y+6578600D03*
X+9702800Y+6705600D03*
X+7289800Y+7391400D03*
X+7188200Y+7061200D03*
X+6832600Y+6959600D03*
X+8356600Y+6553200D03*
X+10617200Y+6477000D03*
X+10134600Y+6477000D03*
X+2819400Y+7823200D03*
X+7188200Y+7493000D03*
X+6629400Y+6096000D03*
X+4165600Y+6096000D03*
X+10845800Y+7493000D03*
X+2692400Y+7366000D03*
X+4902200Y+6223000D03*
X+10769600Y+6197600D03*
X+10185400Y+5918200D03*
X+6832600Y+5715000D03*
X+8255000Y+6451600D03*
X+4902200Y+3429000D03*
X+1778000Y+7620000D03*
X+9372600Y+5435600D03*
X+5308600Y+1016000D03*
X+6070600Y+3073400D03*
X+5689600Y+6223000D03*
X+6731000Y+5943600D03*
X+9372600Y+5715000D03*
X+1397000Y+5588000D03*
X+1397000Y+5232400D03*
X+5715000Y+1854200D03*
X+5207000Y+6985000D03*
X+4165600Y+6654800D03*
X+2768600Y+6908800D03*
X+1498600Y+5892800D03*
X+7747000Y+1828800D03*
X+8255000Y+1625600D03*
X+4013200Y+1270000D03*
X+4318000Y+101600D03*
X+11226800Y+101600D03*
X+11226800Y+787400D03*
X+8509000Y+965200D03*
X+9931400Y+431800D03*
D14*
X+11898241Y+7886049D02*
X+11614573Y+7886049D01*
X+11602382Y+7898240D01*
X+11898241Y+7898240D01*
X+11898241Y+7886049D01*
X+10121000Y+7884446D02*
X+10107206Y+7898240D01*
X+10134794Y+7898240D01*
X+10121000Y+7884446D01*
X+9867000Y+7884446D02*
X+9853206Y+7898240D01*
X+9880794Y+7898240D01*
X+9867000Y+7884446D01*
X+9613000Y+7884446D02*
X+9599206Y+7898240D01*
X+9626794Y+7898240D01*
X+9613000Y+7884446D01*
X+9359000Y+7884446D02*
X+9345206Y+7898240D01*
X+9372794Y+7898240D01*
X+9359000Y+7884446D01*
X+9105000Y+7884446D02*
X+9091206Y+7898240D01*
X+9118794Y+7898240D01*
X+9105000Y+7884446D01*
X+8851000Y+7884446D02*
X+8837206Y+7898240D01*
X+8864794Y+7898240D01*
X+8851000Y+7884446D01*
X+8597000Y+7884446D02*
X+8583206Y+7898240D01*
X+8610794Y+7898240D01*
X+8597000Y+7884446D01*
X+8343000Y+7884446D02*
X+8329206Y+7898240D01*
X+8356794Y+7898240D01*
X+8343000Y+7884446D01*
X+8089000Y+7884446D02*
X+8075206Y+7898240D01*
X+8102794Y+7898240D01*
X+8089000Y+7884446D01*
X+3962109Y+7883111D02*
X+3932997Y+7853999D01*
X+3744410Y+7853999D01*
X+3616356Y+7725946D01*
X+3504373Y+7837929D01*
X+3376049Y+7837929D01*
X+3376049Y+7898240D01*
X+3977238Y+7898240D01*
X+3962109Y+7883111D01*
X+2425701Y+7867649D02*
X+1270827Y+7867649D01*
X+940627Y+7537449D01*
X+887038Y+7537449D01*
X+923999Y+7574410D01*
X+923999Y+7784830D01*
X+810589Y+7898240D01*
X+2425701Y+7898240D01*
X+2425701Y+7867649D01*
X+5756801Y+7636801D02*
X+5756801Y+7198649D01*
X+5341773Y+7198649D01*
X+5327649Y+7212773D01*
X+5327649Y+7383522D01*
X+5365170Y+7346001D01*
X+5575590Y+7346001D01*
X+5724379Y+7494790D01*
X+5724379Y+7705210D01*
X+5575590Y+7853999D01*
X+5365170Y+7853999D01*
X+5245470Y+7734299D01*
X+5194910Y+7734299D01*
X+5075210Y+7853999D01*
X+4886623Y+7853999D01*
X+4842382Y+7898240D01*
X+5756801Y+7898240D01*
X+5756801Y+7636801D01*
X+416001Y+7784830D02*
X+416001Y+7574410D01*
X+452962Y+7537449D01*
X+407227Y+7537449D01*
X+260351Y+7390573D01*
X+260351Y+2083627D01*
X+394529Y+1949449D01*
X+176227Y+1949449D01*
X+121759Y+1894981D01*
X+121759Y+7898240D01*
X+529411Y+7898240D01*
X+416001Y+7784830D01*
X+11443951Y+6945427D02*
X+11443951Y+6823951D01*
X+11898241Y+6823951D01*
X+11898241Y+1430588D01*
X+11500545Y+1430588D01*
X+11531599Y+1461642D01*
X+11531599Y+1678358D01*
X+11442936Y+1767021D01*
X+11635210Y+1767021D01*
X+11783999Y+1915810D01*
X+11783999Y+2126230D01*
X+11639019Y+2271210D01*
X+11783999Y+2416190D01*
X+11783999Y+2626610D01*
X+11640289Y+2770320D01*
X+11783999Y+2914030D01*
X+11783999Y+3124450D01*
X+11639019Y+3269430D01*
X+11783999Y+3414410D01*
X+11783999Y+3624830D01*
X+11639019Y+3769810D01*
X+11783999Y+3914790D01*
X+11783999Y+4125210D01*
X+11639019Y+4270190D01*
X+11783999Y+4415170D01*
X+11783999Y+4625590D01*
X+11635210Y+4774379D01*
X+11424790Y+4774379D01*
X+11276001Y+4625590D01*
X+11276001Y+4454963D01*
X+11017251Y+4196213D01*
X+11017251Y+3273349D01*
X+10880649Y+3273349D01*
X+10880649Y+3328551D01*
X+10911129Y+3328551D01*
X+10911129Y+3671449D01*
X+10868271Y+3671449D01*
X+10880649Y+3683827D01*
X+10880649Y+3828551D01*
X+10911129Y+3828551D01*
X+10911129Y+4171449D01*
X+10693973Y+4171449D01*
X+10629973Y+4235449D01*
X+9967624Y+4235449D01*
X+9986599Y+4254424D01*
X+9986599Y+4425576D01*
X+9865576Y+4546599D01*
X+9694424Y+4546599D01*
X+9573401Y+4425576D01*
X+9573401Y+4254424D01*
X+9592376Y+4235449D01*
X+9551115Y+4235449D01*
X+9532065Y+4254499D01*
X+9416335Y+4254499D01*
X+9334501Y+4172665D01*
X+9334501Y+4056935D01*
X+9359901Y+4031535D01*
X+9359901Y+3955335D01*
X+9378951Y+3936285D01*
X+9378951Y+3886915D01*
X+9359901Y+3867865D01*
X+9359901Y+3752135D01*
X+9441735Y+3670301D01*
X+9461501Y+3670301D01*
X+9461501Y+3620648D01*
X+9368226Y+3620648D01*
X+9367077Y+3619499D01*
X+9340135Y+3619499D01*
X+9312385Y+3591749D01*
X+9312385Y+4552951D01*
X+10438871Y+4552951D01*
X+10438871Y+4328551D01*
X+10921129Y+4328551D01*
X+10921129Y+4671449D01*
X+10906049Y+4671449D01*
X+10906049Y+4768476D01*
X+10939098Y+4768476D01*
X+11002823Y+4832201D01*
X+11083647Y+4832201D01*
X+11187799Y+4936353D01*
X+11187799Y+5083647D01*
X+11083647Y+5187799D01*
X+10936353Y+5187799D01*
X+10883000Y+5134446D01*
X+10876648Y+5140798D01*
X+10876648Y+5208773D01*
X+10777648Y+5307773D01*
X+10777648Y+5566101D01*
X+10790349Y+5566101D01*
X+10790349Y+5924552D01*
X+11276774Y+5924552D01*
X+11423649Y+6071427D01*
X+11423649Y+6857173D01*
X+11314871Y+6965951D01*
X+11423427Y+6965951D01*
X+11443951Y+6945427D01*
X+11898241Y+920749D02*
X+11291015Y+920749D01*
X+11284665Y+927099D01*
X+11168935Y+927099D01*
X+11087101Y+845265D01*
X+11087101Y+812799D01*
X+10132797Y+812799D01*
X+9891497Y+571499D01*
X+9873535Y+571499D01*
X+9791701Y+489665D01*
X+9791701Y+373935D01*
X+9867188Y+298448D01*
X+9079670Y+298448D01*
X+9080649Y+299427D01*
X+9080649Y+454241D01*
X+9125099Y+454241D01*
X+9125099Y+571501D01*
X+9151065Y+571501D01*
X+9174804Y+595240D01*
X+9261642Y+508401D01*
X+9478358Y+508401D01*
X+9631599Y+661642D01*
X+9631599Y+878358D01*
X+9623966Y+885991D01*
X+10270245Y+885991D01*
X+10330735Y+825501D01*
X+10446465Y+825501D01*
X+10528299Y+907335D01*
X+10528299Y+1023065D01*
X+10504959Y+1046405D01*
X+10504959Y+1056613D01*
X+10464504Y+1097068D01*
X+11898241Y+1097068D01*
X+11898241Y+920749D01*
X+11395170Y+226001D02*
X+11605590Y+226001D01*
X+11731411Y+351822D01*
X+11731411Y+333951D01*
X+11898241Y+333951D01*
X+11898241Y+121760D01*
X+11366499Y+121760D01*
X+11366499Y+159465D01*
X+11284665Y+241299D01*
X+11168935Y+241299D01*
X+11140985Y+213349D01*
X+11137899Y+213349D01*
X+11137899Y+258690D01*
X+11250190Y+370981D01*
X+11395170Y+226001D01*
X+3408401Y+661642D02*
X+3561642Y+508401D01*
X+3778358Y+508401D01*
X+3816351Y+546394D01*
X+3816351Y+479099D01*
X+3490901Y+479099D01*
X+3490901Y+121760D01*
X+3389599Y+121760D01*
X+3389599Y+844552D01*
X+3402774Y+844552D01*
X+3408401Y+850179D01*
X+3408401Y+661642D01*
X+2606401Y+121760D02*
X+2534099Y+121760D01*
X+2534099Y+375351D01*
X+2606401Y+375351D01*
X+2606401Y+121760D01*
X+1761901Y+121760D02*
X+1589324Y+121760D01*
X+1663699Y+196135D01*
X+1663699Y+223077D01*
X+1761901Y+321279D01*
X+1761901Y+121760D01*
X+1458676Y+121760D02*
X+1436924Y+121760D01*
X+1447800Y+132636D01*
X+1458676Y+121760D01*
X+7276201Y+7753421D02*
X+7250871Y+7778751D01*
X+7276201Y+7778751D01*
X+7276201Y+7753421D01*
X+11443951Y+7715427D02*
X+11443951Y+7715249D01*
X+11187799Y+7715249D01*
X+11187799Y+7778752D01*
X+11380626Y+7778752D01*
X+11443951Y+7715427D01*
X+10706101Y+7512049D02*
X+10678671Y+7512049D01*
X+10706101Y+7539479D01*
X+10706101Y+7512049D01*
X+4716001Y+7512049D02*
X+4603999Y+7512049D01*
X+4603999Y+7677151D01*
X+4716001Y+7677151D01*
X+4716001Y+7512049D01*
X+8855000Y+7400367D02*
X+8832216Y+7423151D01*
X+8877784Y+7423151D01*
X+8855000Y+7400367D01*
X+8601000Y+7400367D02*
X+8578216Y+7423151D01*
X+8623784Y+7423151D01*
X+8601000Y+7400367D01*
X+8347000Y+7400367D02*
X+8324216Y+7423151D01*
X+8369784Y+7423151D01*
X+8347000Y+7400367D01*
X+8093000Y+7400367D02*
X+8070216Y+7423151D01*
X+8115784Y+7423151D01*
X+8093000Y+7400367D01*
X+7839000Y+7400367D02*
X+7816216Y+7423151D01*
X+7861784Y+7423151D01*
X+7839000Y+7400367D01*
X+2273951Y+7313951D02*
X+2273951Y+7310671D01*
X+2245271Y+7339351D01*
X+2273951Y+7339351D01*
X+2273951Y+7313951D01*
X+1298401Y+7448401D02*
X+1367779Y+7448401D01*
X+1276351Y+7356973D01*
X+1276351Y+7299889D01*
X+1044311Y+7299889D01*
X+1298401Y+7553979D01*
X+1298401Y+7448401D01*
X+3521707Y+7479351D02*
X+3611060Y+7479351D01*
X+3744410Y+7346001D01*
X+3954830Y+7346001D01*
X+4099810Y+7490981D01*
X+4109884Y+7480906D01*
X+3869626Y+7240648D01*
X+3639974Y+7240648D01*
X+3506049Y+7374573D01*
X+3506049Y+7495009D01*
X+3521707Y+7479351D01*
X+11265729Y+7207249D02*
X+11217199Y+7207249D01*
X+11217199Y+7255779D01*
X+11265729Y+7207249D01*
X+7231935Y+7251701D02*
X+7254801Y+7251701D01*
X+7254801Y+7197921D01*
X+7223199Y+7229523D01*
X+7223199Y+7260437D01*
X+7231935Y+7251701D01*
X+8897832Y+7036801D02*
X+8999779Y+7036801D01*
X+8865427Y+6902449D01*
X+8775699Y+6902449D01*
X+8775699Y+6941265D01*
X+8693865Y+7023099D01*
X+8578135Y+7023099D01*
X+8559085Y+7004049D01*
X+8408671Y+7004049D01*
X+8441423Y+7036801D01*
X+8558168Y+7036801D01*
X+8601000Y+7079633D01*
X+8643832Y+7036801D01*
X+8812168Y+7036801D01*
X+8855000Y+7079633D01*
X+8897832Y+7036801D01*
X+4984751Y+7265227D02*
X+4984751Y+7004049D01*
X+4946649Y+7004049D01*
X+4946649Y+7212885D01*
X+4965699Y+7231935D01*
X+4965699Y+7270751D01*
X+4979227Y+7270751D01*
X+4984751Y+7265227D01*
X+5756801Y+6953249D02*
X+5588715Y+6953249D01*
X+5584613Y+6957351D01*
X+5756801Y+6957351D01*
X+5756801Y+6953249D01*
X+1423951Y+6942707D02*
X+1423951Y+6821231D01*
X+1682752Y+6821231D01*
X+1682751Y+6653973D01*
X+1276352Y+6247574D01*
X+1276352Y+6197600D01*
X+1276351Y+5664915D01*
X+1257301Y+5645865D01*
X+1257301Y+5530135D01*
X+1339135Y+5448301D01*
X+1366077Y+5448301D01*
X+1367747Y+5446631D01*
X+1373951Y+5446631D01*
X+1373951Y+5372099D01*
X+1339135Y+5372099D01*
X+1257301Y+5290265D01*
X+1257301Y+5174535D01*
X+1281987Y+5149849D01*
X+1143715Y+5149849D01*
X+1124665Y+5168899D01*
X+1085849Y+5168899D01*
X+1085848Y+6354394D01*
X+923999Y+6516243D01*
X+923999Y+6704830D01*
X+775210Y+6853619D01*
X+564790Y+6853619D01*
X+501649Y+6790478D01*
X+501649Y+6988382D01*
X+564790Y+6925241D01*
X+775210Y+6925241D01*
X+908560Y+7058591D01*
X+1308067Y+7058591D01*
X+1423951Y+6942707D01*
X+9631599Y+6906621D02*
X+9631599Y+6965951D01*
X+9690929Y+6965951D01*
X+9631599Y+6906621D01*
X+7480301Y+6902449D02*
X+7410449Y+6902449D01*
X+7410449Y+6909627D01*
X+7415973Y+6915151D01*
X+7480301Y+6915151D01*
X+7480301Y+6902449D01*
X+3408401Y+6761642D02*
X+3449394Y+6720649D01*
X+2898774Y+6720649D01*
X+2838393Y+6781029D01*
X+2845515Y+6788151D01*
X+3388773Y+6788151D01*
X+3408401Y+6807779D01*
X+3408401Y+6761642D01*
X+9108401Y+6761642D02*
X+9162394Y+6707649D01*
X+9011871Y+6707649D01*
X+9108401Y+6804179D01*
X+9108401Y+6761642D01*
X+2469614Y+6964901D02*
X+2546351Y+6964901D01*
X+2546351Y+6731827D01*
X+2578929Y+6699249D01*
X+1981915Y+6699249D01*
X+1962865Y+6718299D01*
X+1924049Y+6718299D01*
X+1924048Y+6858826D01*
X+1954973Y+6889751D01*
X+2393773Y+6889751D01*
X+2469268Y+6965246D01*
X+2469614Y+6964901D01*
X+6774735Y+6819901D02*
X+6816801Y+6819901D01*
X+6816801Y+6769099D01*
X+6774735Y+6769099D01*
X+6692901Y+6687265D01*
X+6692901Y+6664324D01*
X+6499299Y+6664324D01*
X+6499299Y+6692901D01*
X+6534865Y+6692901D01*
X+6616699Y+6774735D01*
X+6616699Y+6813551D01*
X+6653973Y+6813551D01*
X+6717529Y+6877107D01*
X+6774735Y+6819901D01*
X+5880101Y+6647735D02*
X+5930187Y+6597649D01*
X+5505893Y+6597649D01*
X+5500368Y+6603174D01*
X+5500368Y+6692901D01*
X+5569665Y+6692901D01*
X+5588715Y+6711951D01*
X+5880101Y+6711951D01*
X+5880101Y+6647735D01*
X+9913951Y+6580649D02*
X+9823449Y+6580649D01*
X+9823449Y+6628685D01*
X+9836865Y+6642101D01*
X+9862265Y+6642101D01*
X+9881315Y+6661151D01*
X+9913951Y+6661151D01*
X+9913951Y+6580649D01*
X+8514401Y+6580649D02*
X+8499773Y+6580649D01*
X+8496299Y+6584123D01*
X+8496299Y+6611065D01*
X+8446213Y+6661151D01*
X+8514401Y+6661151D01*
X+8514401Y+6580649D01*
X+5259072Y+6553200D02*
X+5259072Y+6521449D01*
X+5231573Y+6521449D01*
X+5226049Y+6526973D01*
X+5226049Y+6711951D01*
X+5259072Y+6711951D01*
X+5259072Y+6553200D01*
X+11182351Y+6757227D02*
X+11182351Y+6507606D01*
X+11128358Y+6561599D01*
X+11038769Y+6561599D01*
X+11038769Y+6756049D01*
X+11012893Y+6756049D01*
X+11006191Y+6762751D01*
X+11176827Y+6762751D01*
X+11182351Y+6757227D01*
X+4686301Y+7231935D02*
X+4705351Y+7212885D01*
X+4705351Y+7004049D01*
X+4679951Y+7004049D01*
X+4679951Y+6711951D01*
X+4878071Y+6711951D01*
X+4878071Y+6417751D01*
X+4698173Y+6597649D01*
X+4305299Y+6597649D01*
X+4305299Y+6712665D01*
X+4223465Y+6794499D01*
X+4107735Y+6794499D01*
X+4033885Y+6720649D01*
X+3890606Y+6720649D01*
X+3931599Y+6761642D01*
X+3931599Y+6978358D01*
X+3910605Y+6999352D01*
X+3969574Y+6999352D01*
X+4240973Y+7270751D01*
X+4686301Y+7270751D01*
X+4686301Y+7231935D01*
X+560981Y+6349430D02*
X+501649Y+6290098D01*
X+501649Y+6408762D01*
X+560981Y+6349430D01*
X+3182941Y+6251574D02*
X+3163059Y+6251574D01*
X+3173000Y+6261515D01*
X+3182941Y+6251574D01*
X+2928941Y+6251574D02*
X+2909059Y+6251574D01*
X+2919000Y+6261515D01*
X+2928941Y+6251574D01*
X+2674941Y+6251574D02*
X+2655059Y+6251574D01*
X+2665000Y+6261515D01*
X+2674941Y+6251574D01*
X+2420941Y+6251574D02*
X+2401059Y+6251574D01*
X+2411000Y+6261515D01*
X+2420941Y+6251574D01*
X+4737929Y+6216649D02*
X+4242515Y+6216649D01*
X+4223465Y+6235699D01*
X+4107735Y+6235699D01*
X+4025901Y+6153865D01*
X+4025901Y+6083299D01*
X+4006135Y+6083299D01*
X+3924301Y+6001465D01*
X+3924301Y+5885735D01*
X+4006135Y+5803901D01*
X+4121865Y+5803901D01*
X+4140915Y+5822951D01*
X+5219700Y+5822952D01*
X+5882329Y+5822951D01*
X+5862577Y+5803199D01*
X+5745832Y+5803199D01*
X+5626801Y+5684168D01*
X+5626801Y+5515832D01*
X+5745832Y+5396801D01*
X+5914168Y+5396801D01*
X+6033199Y+5515832D01*
X+6033199Y+5632577D01*
X+6096573Y+5695951D01*
X+6601461Y+5695951D01*
X+6601461Y+5656025D01*
X+6591301Y+5645865D01*
X+6591301Y+5581649D01*
X+6554027Y+5581649D01*
X+6483351Y+5510973D01*
X+6483351Y+5353049D01*
X+6474461Y+5353049D01*
X+6474461Y+5327649D01*
X+6350715Y+5327649D01*
X+6331665Y+5346699D01*
X+6215935Y+5346699D01*
X+6196885Y+5327649D01*
X+5918915Y+5327649D01*
X+5899865Y+5346699D01*
X+5784135Y+5346699D01*
X+5702301Y+5264865D01*
X+5702301Y+5238749D01*
X+4533073Y+5238749D01*
X+4152899Y+5618923D01*
X+4152899Y+5645865D01*
X+4071065Y+5727699D01*
X+3999668Y+5727699D01*
X+3924168Y+5803199D01*
X+3755832Y+5803199D01*
X+3727449Y+5774816D01*
X+3727449Y+6029973D01*
X+3656773Y+6100649D01*
X+3641599Y+6100649D01*
X+3641599Y+6166599D01*
X+3550649Y+6166599D01*
X+3550649Y+6180898D01*
X+3479973Y+6251574D01*
X+3417059Y+6251574D01*
X+3465099Y+6299614D01*
X+3465099Y+6356351D01*
X+4598227Y+6356351D01*
X+4737929Y+6216649D01*
X+8283987Y+6199649D02*
X+7967599Y+6199649D01*
X+7967599Y+6212351D01*
X+8271284Y+6212352D01*
X+8283987Y+6199649D01*
X+8514401Y+6325901D02*
X+8514401Y+6199649D01*
X+8484427Y+6199649D01*
X+8479400Y+6194622D01*
X+8474373Y+6199649D01*
X+8429213Y+6199649D01*
X+8496299Y+6266735D01*
X+8496299Y+6339351D01*
X+8514401Y+6339351D01*
X+8514401Y+6325901D01*
X+7473951Y+5937249D02*
X+7258049Y+5937249D01*
X+7258049Y+5949951D01*
X+7458373Y+5949951D01*
X+7473951Y+5965529D01*
X+7473951Y+5937249D01*
X+6571535Y+5956301D02*
X+6591301Y+5956301D01*
X+6591301Y+5937249D01*
X+6515099Y+5937249D01*
X+6515099Y+5975351D01*
X+6552485Y+5975351D01*
X+6571535Y+5956301D01*
X+10076735Y+6337301D02*
X+10142651Y+6337301D01*
X+10142651Y+6086801D01*
X+10155351Y+6086801D01*
X+10155351Y+6058773D01*
X+10154477Y+6057899D01*
X+10127535Y+6057899D01*
X+10045701Y+5976065D01*
X+10045701Y+5949123D01*
X+10033826Y+5937248D01*
X+9919412Y+5937248D01*
X+9944099Y+5961935D01*
X+9944099Y+6077665D01*
X+9862265Y+6159499D01*
X+9746535Y+6159499D01*
X+9717685Y+6130649D01*
X+9506049Y+6130649D01*
X+9506049Y+6187799D01*
X+9492399Y+6187799D01*
X+9492399Y+6339351D01*
X+10074685Y+6339351D01*
X+10076735Y+6337301D01*
X+2114551Y+5876173D02*
X+2109027Y+5870649D01*
X+2104271Y+5870649D01*
X+2114551Y+5880929D01*
X+2114551Y+5876173D01*
X+9213951Y+5866049D02*
X+9166049Y+5866049D01*
X+9166049Y+6007101D01*
X+9201865Y+6007101D01*
X+9213951Y+6019187D01*
X+9213951Y+5866049D01*
X+2821929Y+5846649D02*
X+2621599Y+5846649D01*
X+2621599Y+5859351D01*
X+2809227Y+5859351D01*
X+2821929Y+5846649D01*
X+844552Y+5704277D02*
X+775210Y+5773619D01*
X+564790Y+5773619D01*
X+501649Y+5710478D01*
X+501649Y+5908382D01*
X+564790Y+5845241D01*
X+775210Y+5845241D01*
X+844552Y+5914583D01*
X+844552Y+5704277D01*
X+8375706Y+5930130D02*
X+8312151Y+5866573D01*
X+8264227Y+5818649D01*
X+7967599Y+5818649D01*
X+7967599Y+5958351D01*
X+8347485Y+5958351D01*
X+8375706Y+5930130D01*
X+10142651Y+5657849D02*
X+10121899Y+5657849D01*
X+10121899Y+5695952D01*
X+10133774Y+5695952D01*
X+10142651Y+5704829D01*
X+10142651Y+5657849D01*
X+2146301Y+5595065D02*
X+2146301Y+5530649D01*
X+1976049Y+5530649D01*
X+1976049Y+5629351D01*
X+2180587Y+5629351D01*
X+2146301Y+5595065D01*
X+2749551Y+5588827D02*
X+2749551Y+5523471D01*
X+2742373Y+5530649D01*
X+2530649Y+5530649D01*
X+2530649Y+5539401D01*
X+2621599Y+5539401D01*
X+2621599Y+5605351D01*
X+2733027Y+5605351D01*
X+2749551Y+5588827D01*
X+560981Y+5269430D02*
X+501649Y+5210098D01*
X+501649Y+5328762D01*
X+560981Y+5269430D01*
X+844551Y+5203898D02*
X+779019Y+5269430D01*
X+844552Y+5334963D01*
X+844551Y+5203898D01*
X+9334501Y+5174535D02*
X+9365351Y+5143685D01*
X+9365351Y+5140797D01*
X+9359000Y+5134446D01*
X+9305647Y+5187799D01*
X+9158353Y+5187799D01*
X+9105000Y+5134446D01*
X+9051647Y+5187799D01*
X+8970823Y+5187799D01*
X+8945271Y+5213351D01*
X+9334501Y+5213351D01*
X+9334501Y+5174535D01*
X+8597000Y+5134446D02*
X+8594295Y+5137151D01*
X+8599705Y+5137151D01*
X+8597000Y+5134446D01*
X+2647951Y+5283827D02*
X+2647951Y+5182315D01*
X+2628901Y+5163265D01*
X+2628901Y+5103648D01*
X+2621599Y+5103648D01*
X+2621599Y+5289351D01*
X+2642427Y+5289351D01*
X+2647951Y+5283827D01*
X+3218401Y+5793401D02*
X+3218401Y+5676565D01*
X+3136901Y+5595065D01*
X+3136901Y+5479335D01*
X+3143307Y+5472929D01*
X+3079751Y+5409373D01*
X+3079751Y+4901373D01*
X+3074227Y+4895849D01*
X+3067049Y+4895849D01*
X+3067049Y+5942773D01*
X+2999546Y+6010276D01*
X+3218401Y+6010276D01*
X+3218401Y+5793401D01*
X+10428353Y+4832201D02*
X+10441231Y+4832201D01*
X+10441231Y+4794249D01*
X+10368649Y+4794249D01*
X+10368649Y+4879203D01*
X+10375000Y+4885554D01*
X+10428353Y+4832201D01*
X+844551Y+4494658D02*
X+775210Y+4563999D01*
X+564790Y+4563999D01*
X+501649Y+4500858D01*
X+501649Y+4828382D01*
X+564790Y+4765241D01*
X+775210Y+4765241D01*
X+844551Y+4834582D01*
X+844551Y+4494658D01*
X+3568701Y+4753599D02*
X+3273221Y+4753599D01*
X+3316023Y+4796401D01*
X+3568701Y+4796401D01*
X+3568701Y+4753599D01*
X+3208401Y+4687649D02*
X+3207271Y+4687649D01*
X+3208401Y+4688779D01*
X+3208401Y+4687649D01*
X+1643935Y+4889501D02*
X+1701979Y+4889501D01*
X+1378147Y+4565669D01*
X+1085849Y+4565669D01*
X+1085849Y+4889501D01*
X+1124665Y+4889501D01*
X+1143715Y+4908551D01*
X+1624885Y+4908551D01*
X+1643935Y+4889501D01*
X+8408227Y+4502151D02*
X+8429976Y+4502151D01*
X+8410224Y+4482398D01*
X+8263471Y+4629151D01*
X+8281227Y+4629151D01*
X+8408227Y+4502151D01*
X+7302501Y+4437935D02*
X+7384335Y+4356101D01*
X+7500065Y+4356101D01*
X+7519115Y+4375151D01*
X+7543401Y+4375151D01*
X+7543401Y+4286249D01*
X+7315915Y+4286249D01*
X+7296865Y+4305299D01*
X+7252385Y+4305299D01*
X+7252385Y+4552952D01*
X+7302501Y+4552952D01*
X+7302501Y+4437935D01*
X+3208401Y+4380401D02*
X+3208401Y+4280649D01*
X+2851115Y+4280649D01*
X+2826465Y+4305299D01*
X+2710735Y+4305299D01*
X+2628901Y+4223465D01*
X+2628901Y+4159249D01*
X+2611599Y+4159249D01*
X+2611599Y+4432301D01*
X+2648665Y+4432301D01*
X+2662715Y+4446351D01*
X+3208401Y+4446351D01*
X+3208401Y+4380401D01*
X+8044735Y+4356101D02*
X+8160465Y+4356101D01*
X+8177871Y+4373507D01*
X+8332027Y+4219351D01*
X+8388474Y+4219351D01*
X+8397776Y+4210049D01*
X+8242299Y+4210049D01*
X+8242299Y+4248865D01*
X+8160465Y+4330699D01*
X+8044735Y+4330699D01*
X+8000285Y+4286249D01*
X+7956599Y+4286249D01*
X+7956599Y+4375151D01*
X+8025685Y+4375151D01*
X+8044735Y+4356101D01*
X+1749351Y+4468589D02*
X+1723951Y+4468589D01*
X+1723951Y+4171411D01*
X+2176049Y+4171411D01*
X+2176049Y+4178301D01*
X+2188401Y+4178301D01*
X+2188401Y+4159249D01*
X+1575515Y+4159249D01*
X+1556465Y+4178299D01*
X+1548769Y+4178299D01*
X+1548769Y+4395047D01*
X+1749351Y+4595629D01*
X+1749351Y+4468589D01*
X+5655089Y+4835111D02*
X+5619751Y+4799773D01*
X+5619751Y+4091599D01*
X+5305378Y+4091599D01*
X+5305378Y+4928427D01*
X+5310902Y+4933951D01*
X+5753929Y+4933951D01*
X+5655089Y+4835111D01*
X+560981Y+4059810D02*
X+501649Y+4000478D01*
X+501649Y+4119142D01*
X+560981Y+4059810D01*
X+3703951Y+4013951D02*
X+3703951Y+3967648D01*
X+3631599Y+3967648D01*
X+3631599Y+4033599D01*
X+3540649Y+4033599D01*
X+3540649Y+4039351D01*
X+3703951Y+4039351D01*
X+3703951Y+4013951D01*
X+1042227Y+3968751D02*
X+1081231Y+3968751D01*
X+1081231Y+3942333D01*
X+1073865Y+3949699D01*
X+1009649Y+3949699D01*
X+1009649Y+4001329D01*
X+1042227Y+3968751D01*
X+6409351Y+4696085D02*
X+6409351Y+4511526D01*
X+6323401Y+4425576D01*
X+6323401Y+4254424D01*
X+6409351Y+4168474D01*
X+6409351Y+3946599D01*
X+6244424Y+3946599D01*
X+6165848Y+3868023D01*
X+6165848Y+3916774D01*
X+6098539Y+3984083D01*
X+6098539Y+3995975D01*
X+6108699Y+4006135D01*
X+6108699Y+4044951D01*
X+6160769Y+4044951D01*
X+6160769Y+4051301D01*
X+6230065Y+4051301D01*
X+6311899Y+4133135D01*
X+6311899Y+4248865D01*
X+6230065Y+4330699D01*
X+6160769Y+4330699D01*
X+6160769Y+4337049D01*
X+5861049Y+4337049D01*
X+5861049Y+4699827D01*
X+5866573Y+4705351D01*
X+6400085Y+4705351D01*
X+6409351Y+4696085D01*
X+10428871Y+3828551D02*
X+10639351Y+3828551D01*
X+10639351Y+3783773D01*
X+10633827Y+3778249D01*
X+9678115Y+3778249D01*
X+9659065Y+3797299D01*
X+9639299Y+3797299D01*
X+9639299Y+3867865D01*
X+9620249Y+3886915D01*
X+9620249Y+3936285D01*
X+9639299Y+3955335D01*
X+9639299Y+3994151D01*
X+10428871Y+3994151D01*
X+10428871Y+3828551D01*
X+3208401Y+3713649D02*
X+2611599Y+3713649D01*
X+2611599Y+3917951D01*
X+3208401Y+3917951D01*
X+3208401Y+3713649D01*
X+3703951Y+3680272D02*
X+3684871Y+3699352D01*
X+3703951Y+3699352D01*
X+3703951Y+3680272D01*
X+1562101Y+3675935D02*
X+1581151Y+3656885D01*
X+1581151Y+3651249D01*
X+1546049Y+3651249D01*
X+1546049Y+3771901D01*
X+1562101Y+3771901D01*
X+1562101Y+3675935D01*
X+11420981Y+3769810D02*
X+11283949Y+3632778D01*
X+11283949Y+3906842D01*
X+11420981Y+3769810D01*
X+6222176Y+3555649D02*
X+6164671Y+3555649D01*
X+6165848Y+3556826D01*
X+6165848Y+3611977D01*
X+6222176Y+3555649D01*
X+879889Y+3597689D02*
X+915226Y+3562352D01*
X+1040684Y+3562352D01*
X+1059735Y+3543301D01*
X+1093951Y+3543301D01*
X+1093951Y+3540269D01*
X+998267Y+3540269D01*
X+873794Y+3415796D01*
X+775210Y+3514379D01*
X+564790Y+3514379D01*
X+501649Y+3451238D01*
X+501649Y+3618762D01*
X+564790Y+3555621D01*
X+775210Y+3555621D01*
X+848584Y+3628994D01*
X+879889Y+3597689D01*
X+8153401Y+3654424D02*
X+8274424Y+3533401D01*
X+8445576Y+3533401D01*
X+8566599Y+3654424D01*
X+8566599Y+3670301D01*
X+8617665Y+3670301D01*
X+8636715Y+3689351D01*
X+8813085Y+3689351D01*
X+8832135Y+3670301D01*
X+8870951Y+3670301D01*
X+8870951Y+3441699D01*
X+8806735Y+3441699D01*
X+8787685Y+3422649D01*
X+7912099Y+3422649D01*
X+7912099Y+3537665D01*
X+7905749Y+3544015D01*
X+7905749Y+3771901D01*
X+7957265Y+3771901D01*
X+7976315Y+3790951D01*
X+8153401Y+3790951D01*
X+8153401Y+3654424D01*
X+10428871Y+3379351D02*
X+10428871Y+3346449D01*
X+10186115Y+3346449D01*
X+10167065Y+3365499D01*
X+10051335Y+3365499D01*
X+9969501Y+3283665D01*
X+9969501Y+3273349D01*
X+9938826Y+3273349D01*
X+9865576Y+3346599D01*
X+9694424Y+3346599D01*
X+9573401Y+3225576D01*
X+9573401Y+3067049D01*
X+9373315Y+3067049D01*
X+9354265Y+3086099D01*
X+9312385Y+3086099D01*
X+9312385Y+3367851D01*
X+9340135Y+3340101D01*
X+9455865Y+3340101D01*
X+9495116Y+3379352D01*
X+10428871Y+3379351D01*
X+4397789Y+5032789D02*
X+4433127Y+4997451D01*
X+5064080Y+4997451D01*
X+5064080Y+3304302D01*
X+5055427Y+3295649D01*
X+4966413Y+3295649D01*
X+5041899Y+3371135D01*
X+5041899Y+3486865D01*
X+4960065Y+3568699D01*
X+4844335Y+3568699D01*
X+4762501Y+3486865D01*
X+4762501Y+3459923D01*
X+4750627Y+3448049D01*
X+4626599Y+3448049D01*
X+4626599Y+4081599D01*
X+4286248Y+4081599D01*
X+4286248Y+4317174D01*
X+4135494Y+4467928D01*
X+3986049Y+4467928D01*
X+3986049Y+4666049D01*
X+3976049Y+4666049D01*
X+3976049Y+5086049D01*
X+3950649Y+5086049D01*
X+3950649Y+5338573D01*
X+3892421Y+5396801D01*
X+3924168Y+5396801D01*
X+3975668Y+5448301D01*
X+3982277Y+5448301D01*
X+4397789Y+5032789D01*
X+3917951Y+3353515D02*
X+3898901Y+3334465D01*
X+3898901Y+3295649D01*
X+3746499Y+3295649D01*
X+3746499Y+3334465D01*
X+3696413Y+3384551D01*
X+3899973Y+3384551D01*
X+3917951Y+3402529D01*
X+3917951Y+3353515D01*
X+3417129Y+3295649D02*
X+3161471Y+3295649D01*
X+3205923Y+3340101D01*
X+3232865Y+3340101D01*
X+3299165Y+3406401D01*
X+3306377Y+3406401D01*
X+3417129Y+3295649D01*
X+5353877Y+3263899D02*
X+5326935Y+3263899D01*
X+5305378Y+3242342D01*
X+5305378Y+3288401D01*
X+5378379Y+3288401D01*
X+5353877Y+3263899D01*
X+5655089Y+3267489D02*
X+5683307Y+3239271D01*
X+5676901Y+3232865D01*
X+5676901Y+3205923D01*
X+5631627Y+3160649D01*
X+5591871Y+3160649D01*
X+5630649Y+3199427D01*
X+5630649Y+3288401D01*
X+5634177Y+3288401D01*
X+5655089Y+3267489D01*
X+1687578Y+3229800D02*
X+1606551Y+3148773D01*
X+1606551Y+3143249D01*
X+1303007Y+3143249D01*
X+1225427Y+3065669D01*
X+1103951Y+3065669D01*
X+1103951Y+3040269D01*
X+1016827Y+3040269D01*
X+882884Y+2906326D01*
X+779019Y+3010190D01*
X+908560Y+3139731D01*
X+938973Y+3139731D01*
X+1010639Y+3211397D01*
X+1059735Y+3162301D01*
X+1091231Y+3162301D01*
X+1091231Y+3153571D01*
X+1556049Y+3153571D01*
X+1556049Y+3178971D01*
X+1599373Y+3178971D01*
X+1668890Y+3248488D01*
X+1687578Y+3229800D01*
X+8806735Y+3162301D02*
X+8870951Y+3162301D01*
X+8870951Y+3072573D01*
X+8865427Y+3067049D01*
X+8766599Y+3067049D01*
X+8766599Y+3181351D01*
X+8787685Y+3181351D01*
X+8806735Y+3162301D01*
X+7473951Y+3378200D02*
X+7473951Y+3328227D01*
X+7560002Y+3242176D01*
X+7543401Y+3225576D01*
X+7543401Y+3067049D01*
X+7417515Y+3067049D01*
X+7398465Y+3086099D01*
X+7282735Y+3086099D01*
X+7252385Y+3055749D01*
X+7252385Y+4025901D01*
X+7296865Y+4025901D01*
X+7315915Y+4044951D01*
X+7473951Y+4044951D01*
X+7473951Y+3378200D01*
X+8353401Y+3067049D02*
X+7956599Y+3067048D01*
X+7956599Y+3181351D01*
X+8353401Y+3181351D01*
X+8353401Y+3067049D01*
X+560981Y+3010190D02*
X+501649Y+2950858D01*
X+501649Y+3069522D01*
X+560981Y+3010190D01*
X+2745401Y+2966823D02*
X+2566227Y+2787649D01*
X+2298699Y+2787649D01*
X+2298699Y+2851865D01*
X+2281163Y+2869401D01*
X+2444835Y+2869401D01*
X+2456735Y+2857501D01*
X+2572465Y+2857501D01*
X+2654299Y+2939335D01*
X+2654299Y+3054351D01*
X+2745401Y+3054351D01*
X+2745401Y+2966823D01*
X+4923891Y+2750649D02*
X+4838699Y+2750649D01*
X+4838699Y+2801065D01*
X+4819648Y+2820116D01*
X+4819648Y+2919351D01*
X+4923891Y+2919351D01*
X+4923891Y+2750649D01*
X+6323401Y+2805977D02*
X+6323401Y+2737221D01*
X+6318249Y+2742373D01*
X+6318249Y+2811129D01*
X+6323401Y+2805977D01*
X+8353401Y+2825751D02*
X+8353401Y+2684424D01*
X+8377176Y+2660649D01*
X+7932824Y+2660649D01*
X+7956599Y+2684424D01*
X+7956599Y+2825752D01*
X+8353401Y+2825751D01*
X+7282735Y+2806701D02*
X+7398465Y+2806701D01*
X+7417515Y+2825751D01*
X+7543401Y+2825751D01*
X+7543401Y+2684424D01*
X+7567176Y+2660649D01*
X+7252385Y+2660649D01*
X+7252385Y+2837051D01*
X+7282735Y+2806701D01*
X+1606551Y+2589973D02*
X+1601027Y+2584449D01*
X+1359613Y+2584449D01*
X+1384299Y+2609135D01*
X+1384299Y+2643571D01*
X+1566049Y+2643571D01*
X+1566049Y+2668972D01*
X+1606551Y+2668972D01*
X+1606551Y+2589973D01*
X+1101231Y+2643571D02*
X+1104901Y+2643571D01*
X+1104901Y+2609135D01*
X+1129587Y+2584449D01*
X+853658Y+2584449D01*
X+908560Y+2639351D01*
X+957153Y+2639351D01*
X+1101231Y+2783429D01*
X+1101231Y+2643571D01*
X+8978865Y+2570957D02*
X+8889173Y+2660649D01*
X+8742824Y+2660649D01*
X+8766599Y+2684424D01*
X+8766599Y+2825751D01*
X+8965373Y+2825751D01*
X+8978865Y+2839243D01*
X+8978865Y+2570957D01*
X+10428871Y+2828551D02*
X+10639351Y+2828551D01*
X+10639351Y+2158173D01*
X+10615830Y+2134652D01*
X+9475027Y+2134652D01*
X+9328152Y+1987777D01*
X+9328152Y+1370774D01*
X+9322627Y+1365249D01*
X+9312385Y+1365249D01*
X+9312385Y+2806701D01*
X+9354265Y+2806701D01*
X+9373315Y+2825751D01*
X+9573401Y+2825751D01*
X+9573401Y+2684424D01*
X+9694424Y+2563401D01*
X+9865576Y+2563401D01*
X+9986599Y+2684424D01*
X+9986599Y+2825752D01*
X+10387774Y+2825752D01*
X+10428871Y+2866849D01*
X+10428871Y+2828551D01*
X+11420981Y+3269430D02*
X+11276001Y+3124450D01*
X+11276001Y+2953823D01*
X+10880649Y+2558471D01*
X+10880649Y+2828551D01*
X+10911129Y+2828551D01*
X+10911129Y+3006651D01*
X+11129633Y+3006651D01*
X+11283949Y+3160967D01*
X+11283949Y+3406462D01*
X+11420981Y+3269430D01*
X+560981Y+2509810D02*
X+501649Y+2450478D01*
X+501649Y+2569142D01*
X+560981Y+2509810D01*
X+6918865Y+2446557D02*
X+6907973Y+2457449D01*
X+6247573Y+2457449D01*
X+6242048Y+2462974D01*
X+6242048Y+2495551D01*
X+6653973Y+2495551D01*
X+6800848Y+2642426D01*
X+6800848Y+3039774D01*
X+6736599Y+3104023D01*
X+6736599Y+3225576D01*
X+6734948Y+3227226D01*
X+6877048Y+3369326D01*
X+6877048Y+4547426D01*
X+6882574Y+4552952D01*
X+6918865Y+4552952D01*
X+6918865Y+2446557D01*
X+1749351Y+2386773D02*
X+1743827Y+2381249D01*
X+1739071Y+2381249D01*
X+1749351Y+2391529D01*
X+1749351Y+2386773D01*
X+3308351Y+2691574D02*
X+3308351Y+2201599D01*
X+3117849Y+2201599D01*
X+3117849Y+2718627D01*
X+3123373Y+2724151D01*
X+3340928Y+2724151D01*
X+3308351Y+2691574D01*
X+7423151Y+2310573D02*
X+7423151Y+2178671D01*
X+7334249Y+2267573D01*
X+7334249Y+2298701D01*
X+7398465Y+2298701D01*
X+7417515Y+2317751D01*
X+7430329Y+2317751D01*
X+7423151Y+2310573D01*
X+6123401Y+2175221D02*
X+6115661Y+2182961D01*
X+6123401Y+2182961D01*
X+6123401Y+2175221D01*
X+11276001Y+2416190D02*
X+11420981Y+2271210D01*
X+11297790Y+2148019D01*
X+11004549Y+2148019D01*
X+11004549Y+2305207D01*
X+11276001Y+2576659D01*
X+11276001Y+2416190D01*
X+2876551Y+2118071D02*
X+2843973Y+2150649D01*
X+2471599Y+2150649D01*
X+2471599Y+2201599D01*
X+2076449Y+2201599D01*
X+2076449Y+2546351D01*
X+2666173Y+2546351D01*
X+2876551Y+2756729D01*
X+2876551Y+2118071D01*
X+6813552Y+2210626D02*
X+6813552Y+2095499D01*
X+6723935Y+2095499D01*
X+6704885Y+2076449D01*
X+6528624Y+2076449D01*
X+6536599Y+2084424D01*
X+6536599Y+2216151D01*
X+6808027Y+2216151D01*
X+6813552Y+2210626D01*
X+8718551Y+2210627D02*
X+8718551Y+1991051D01*
X+8566599Y+2143003D01*
X+8566599Y+2216151D01*
X+8713027Y+2216151D01*
X+8718551Y+2210627D01*
X+5857319Y+1871459D02*
X+5854699Y+1871459D01*
X+5854699Y+1874079D01*
X+5857319Y+1871459D01*
X+5575301Y+1871459D02*
X+5524499Y+1871459D01*
X+5524499Y+1879351D01*
X+5575301Y+1879351D01*
X+5575301Y+1871459D01*
X+11360212Y+1831599D02*
X+11161642Y+1831599D01*
X+11106999Y+1776956D01*
X+11106999Y+1894021D01*
X+11297790Y+1894021D01*
X+11360212Y+1831599D01*
X+3401401Y+1777751D02*
X+4146551Y+1777751D01*
X+4146551Y+1777173D01*
X+4141027Y+1771649D01*
X+3379027Y+1771649D01*
X+3346649Y+1739271D01*
X+3346649Y+1776973D01*
X+3265221Y+1858401D01*
X+3401401Y+1858401D01*
X+3401401Y+1777751D01*
X+10737851Y+1703349D02*
X+9938826Y+1703349D01*
X+9865576Y+1776599D01*
X+9694424Y+1776599D01*
X+9573401Y+1655576D01*
X+9573401Y+1484424D01*
X+9694424Y+1363401D01*
X+9865576Y+1363401D01*
X+9938826Y+1436651D01*
X+9994649Y+1436651D01*
X+9762992Y+1204994D01*
X+9740899Y+1204994D01*
X+9740899Y+1226265D01*
X+9659065Y+1308099D01*
X+9569448Y+1308099D01*
X+9569448Y+1887829D01*
X+9574973Y+1893354D01*
X+10715776Y+1893354D01*
X+10737851Y+1915429D01*
X+10737851Y+1703349D01*
X+8153401Y+2084424D02*
X+8274424Y+1963401D01*
X+8386997Y+1963401D01*
X+8573799Y+1776599D01*
X+8474424Y+1776599D01*
X+8387994Y+1690170D01*
X+8312865Y+1765299D01*
X+8303883Y+1765299D01*
X+8107033Y+1962149D01*
X+7811215Y+1962149D01*
X+7804865Y+1968499D01*
X+7689135Y+1968499D01*
X+7664449Y+1943813D01*
X+7664449Y+2210627D01*
X+7669973Y+2216151D01*
X+8153401Y+2216151D01*
X+8153401Y+2084424D01*
X+5056331Y+1667491D02*
X+4990271Y+1733551D01*
X+5056331Y+1733551D01*
X+5056331Y+1667491D01*
X+8115301Y+1576717D02*
X+8115301Y+1567735D01*
X+8139987Y+1543049D01*
X+8077915Y+1543049D01*
X+8058865Y+1562099D01*
X+7956599Y+1562099D01*
X+7956599Y+1655576D01*
X+7916724Y+1695451D01*
X+7996567Y+1695451D01*
X+8115301Y+1576717D01*
X+6122226Y+1835152D02*
X+6172200Y+1835152D01*
X+6704885Y+1835151D01*
X+6723935Y+1816101D01*
X+6813552Y+1816101D01*
X+6813552Y+1416049D01*
X+6668224Y+1416049D01*
X+6736599Y+1484424D01*
X+6736599Y+1655576D01*
X+6615576Y+1776599D01*
X+6444424Y+1776599D01*
X+6323401Y+1655576D01*
X+6323401Y+1484424D01*
X+6391776Y+1416049D01*
X+6325315Y+1416049D01*
X+6306265Y+1435099D01*
X+6190535Y+1435099D01*
X+6115049Y+1359613D01*
X+6115049Y+1842329D01*
X+6122226Y+1835152D01*
X+1403352Y+1575626D02*
X+1403352Y+1410412D01*
X+1378665Y+1435099D01*
X+1371449Y+1435099D01*
X+1371449Y+1581151D01*
X+1397827Y+1581151D01*
X+1403352Y+1575626D01*
X+3931599Y+1385963D02*
X+3931599Y+1389351D01*
X+3934987Y+1389351D01*
X+3931599Y+1385963D01*
X+7329351Y+1931227D02*
X+7329351Y+1386049D01*
X+7303951Y+1386049D01*
X+7303951Y+1376049D01*
X+7252385Y+1376049D01*
X+7252385Y+2008193D01*
X+7329351Y+1931227D01*
X+4406901Y+1810465D02*
X+4406901Y+1694735D01*
X+4488735Y+1612901D01*
X+4528401Y+1612901D01*
X+4528401Y+1331821D01*
X+4285422Y+1574800D01*
X+4387849Y+1677227D01*
X+4387849Y+1822201D01*
X+4418637Y+1822201D01*
X+4406901Y+1810465D01*
X+1661642Y+1308401D02*
X+1748401Y+1308401D01*
X+1748401Y+1307799D01*
X+1644648Y+1307799D01*
X+1644648Y+1325395D01*
X+1661642Y+1308401D01*
X+920751Y+1600000D02*
X+920751Y+1550027D01*
X+991427Y+1479351D01*
X+1028551Y+1479351D01*
X+1028551Y+1268871D01*
X+1079351Y+1268871D01*
X+1079351Y+1250649D01*
X+1009973Y+1250649D01*
X+923999Y+1336623D01*
X+923999Y+1525210D01*
X+775210Y+1673999D01*
X+564790Y+1673999D01*
X+416001Y+1525210D01*
X+416001Y+1314790D01*
X+560981Y+1169810D01*
X+416001Y+1024830D01*
X+416001Y+814410D01*
X+523812Y+706599D01*
X+338401Y+706599D01*
X+338401Y+571499D01*
X+327799Y+571499D01*
X+327799Y+696049D01*
X+270649Y+696049D01*
X+270649Y+1702627D01*
X+276173Y+1708151D01*
X+920751Y+1708151D01*
X+920751Y+1600000D01*
X+8243951Y+1175573D02*
X+8216049Y+1147671D01*
X+8216049Y+1200151D01*
X+8243951Y+1200151D01*
X+8243951Y+1175573D01*
X+10173865Y+1162536D02*
X+10209112Y+1127289D01*
X+10044491Y+1127289D01*
X+10173865Y+1256663D01*
X+10173865Y+1162536D01*
X+2945226Y+1708152D02*
X+3047175Y+1708152D01*
X+3060700Y+1721678D01*
X+3105351Y+1677027D01*
X+3105351Y+1431599D01*
X+3044401Y+1431599D01*
X+3044401Y+1085848D01*
X+2951599Y+1085848D01*
X+2951599Y+1431599D01*
X+2890649Y+1431599D01*
X+2890649Y+1472373D01*
X+2743773Y+1619249D01*
X+2591515Y+1619249D01*
X+2572465Y+1638299D01*
X+2456735Y+1638299D01*
X+2374901Y+1556465D01*
X+2374901Y+1529523D01*
X+2255351Y+1409973D01*
X+2255351Y+1356099D01*
X+2204401Y+1356099D01*
X+2204401Y+1085848D01*
X+2183574Y+1085848D01*
X+2178049Y+1091373D01*
X+2178049Y+1751773D01*
X+2071421Y+1858401D01*
X+2471599Y+1858401D01*
X+2471599Y+1909351D01*
X+2744027Y+1909351D01*
X+2945226Y+1708152D01*
X+2588401Y+1085848D02*
X+2547599Y+1085848D01*
X+2547599Y+1356099D01*
X+2542721Y+1356099D01*
X+2545523Y+1358901D01*
X+2572465Y+1358901D01*
X+2588401Y+1374837D01*
X+2588401Y+1085848D01*
X+5168901Y+958849D02*
X+5143499Y+958849D01*
X+5143499Y+996951D01*
X+5168901Y+996951D01*
X+5168901Y+958849D01*
X+3508401Y+1323401D02*
X+3508401Y+1069401D01*
X+3931599Y+1069401D01*
X+3931599Y+1135351D01*
X+3950285Y+1135351D01*
X+3955335Y+1130301D01*
X+4071065Y+1130301D01*
X+4152899Y+1212135D01*
X+4152899Y+1327865D01*
X+4091413Y+1389351D01*
X+4129627Y+1389351D01*
X+4458529Y+1060449D01*
X+3963227Y+1060449D01*
X+3856368Y+953590D01*
X+3778358Y+1031599D01*
X+3561642Y+1031599D01*
X+3473448Y+943405D01*
X+3473448Y+1524826D01*
X+3478973Y+1530351D01*
X+3508401Y+1530351D01*
X+3508401Y+1323401D01*
X+5530849Y+774539D02*
X+5530849Y+811973D01*
X+5472871Y+869951D01*
X+5626261Y+869951D01*
X+5530849Y+774539D01*
X+4744599Y+675221D02*
X+4744599Y+762091D01*
X+4687539Y+819151D01*
X+4888529Y+819151D01*
X+4744599Y+675221D01*
X+2606401Y+616649D02*
X+2534099Y+616649D01*
X+2534099Y+844552D01*
X+2606401Y+844552D01*
X+2606401Y+616649D01*
X+1761901Y+616649D02*
X+1716027Y+616649D01*
X+1710600Y+611222D01*
X+1710600Y+793751D01*
X+1761901Y+793751D01*
X+1761901Y+616649D01*
X+5564661Y+551649D02*
X+5536373Y+551649D01*
X+5530849Y+557173D01*
X+5530849Y+585461D01*
X+5564661Y+551649D01*
X+4343401Y+762091D02*
X+4343401Y+595909D01*
X+4388661Y+550649D01*
X+4090026Y+550649D01*
X+4057649Y+518272D01*
X+4057649Y+813627D01*
X+4063173Y+819151D01*
X+4400461Y+819151D01*
X+4343401Y+762091D01*
X+7188401Y+470650D02*
X+7112828Y+470650D01*
X+7112827Y+470649D01*
X+7051599Y+470649D01*
X+7051599Y+485991D01*
X+7188401Y+485991D01*
X+7188401Y+470650D01*
X+1418502Y+602201D02*
X+1701579Y+602201D01*
X+1511299Y+411921D01*
X+1511299Y+489665D01*
X+1429465Y+571499D01*
X+1381599Y+571499D01*
X+1381599Y+706599D01*
X+1370600Y+706599D01*
X+1370600Y+774701D01*
X+1418502Y+774701D01*
X+1418502Y+602201D01*
X+6495335Y+393701D02*
X+6527879Y+393701D01*
X+6508827Y+374649D01*
X+6473599Y+374649D01*
X+6473599Y+415437D01*
X+6495335Y+393701D01*
X+6338773Y+880463D02*
X+6221401Y+763091D01*
X+6221401Y+607564D01*
X+6118401Y+504564D01*
X+6118401Y+374649D01*
X+6072973Y+374649D01*
X+6023599Y+424023D01*
X+6023599Y+504564D01*
X+5920599Y+607564D01*
X+5920599Y+763091D01*
X+5803091Y+880599D01*
X+5779769Y+880599D01*
X+5779769Y+895351D01*
X+6323885Y+895351D01*
X+6338773Y+880463D01*
X+5324889Y+421889D02*
X+5436427Y+310351D01*
X+5715486Y+310351D01*
X+5727388Y+298449D01*
X+5422173Y+298449D01*
X+5297599Y+423023D01*
X+5297599Y+449179D01*
X+5324889Y+421889D01*
X+10822343Y+298448D02*
X+10677277Y+298448D01*
X+10749810Y+370981D01*
X+10822343Y+298448D01*
X+10245621Y+374790D02*
X+10321963Y+298448D01*
X+9995612Y+298448D01*
X+10071099Y+373935D01*
X+10071099Y+391897D01*
X+10238003Y+558801D01*
X+10245621Y+558801D01*
X+10245621Y+374790D01*
X+5045401Y+606564D02*
X+4942401Y+503564D01*
X+4942401Y+356436D01*
X+5046436Y+252401D01*
X+5126977Y+252401D01*
X+5166029Y+213349D01*
X+4431031Y+213349D01*
X+4387574Y+229590D01*
X+4375865Y+241299D01*
X+4359099Y+241299D01*
X+4359099Y+309351D01*
X+4539486Y+309351D01*
X+4596436Y+252401D01*
X+4743564Y+252401D01*
X+4847599Y+356436D01*
X+4847599Y+436977D01*
X+5045401Y+634779D01*
X+5045401Y+606564D01*
D15*
X+11010000Y+7760000D03*
X+10756000Y+7760000D03*
X+10502000Y+7760000D03*
X+10248000Y+7760000D03*
X+9994000Y+7760000D03*
X+9740000Y+7760000D03*
X+9486000Y+7760000D03*
X+9232000Y+7760000D03*
X+8978000Y+7760000D03*
X+8724000Y+7760000D03*
X+8470000Y+7760000D03*
X+8216000Y+7760000D03*
X+7962000Y+7760000D03*
X+7708000Y+7760000D03*
X+7454000Y+7760000D03*
X+7454000Y+5010000D03*
X+7708000Y+5010000D03*
X+7962000Y+5010000D03*
X+8216000Y+5010000D03*
X+8470000Y+5010000D03*
X+8724000Y+5010000D03*
X+8978000Y+5010000D03*
X+9232000Y+5010000D03*
X+9486000Y+5010000D03*
X+9740000Y+5010000D03*
X+9994000Y+5010000D03*
X+10248000Y+5010000D03*
X+10502000Y+5010000D03*
X+10756000Y+5010000D03*
X+11010000Y+5010000D03*
D16*
X+11014000Y+7240000D03*
X+10760000Y+7240000D03*
X+10506000Y+7240000D03*
X+10252000Y+7240000D03*
X+9998000Y+7240000D03*
X+9744000Y+7240000D03*
X+9490000Y+7240000D03*
X+9236000Y+7240000D03*
X+8982000Y+7240000D03*
X+8728000Y+7240000D03*
X+8474000Y+7240000D03*
X+8220000Y+7240000D03*
X+7966000Y+7240000D03*
X+7712000Y+7240000D03*
X+7458000Y+7240000D03*
D17*
X+5960000Y+7078000D03*
X+5960000Y+7332000D03*
X+5960000Y+7586000D03*
X+5960000Y+7840000D03*
D18*
X+670000Y+5019240D03*
X+670000Y+5519620D03*
X+670000Y+6099240D03*
X+670000Y+6599620D03*
X+670000Y+7179240D03*
X+670000Y+7679620D03*
X+11530000Y+4520380D03*
X+11530000Y+4020000D03*
X+11530000Y+3519620D03*
X+11530000Y+3019240D03*
X+11530000Y+2521400D03*
X+11530000Y+2021020D03*
D19*
X+8560000Y+3140000D03*
X+9780000Y+3140000D03*
X+9780000Y+4340000D03*
X+8560000Y+4340000D03*
X+8360000Y+3740000D03*
X+6530000Y+3140000D03*
X+7750000Y+3140000D03*
X+7750000Y+4340000D03*
X+6530000Y+4340000D03*
X+6330000Y+3740000D03*
X+6530000Y+1570000D03*
X+7750000Y+1570000D03*
X+7750000Y+2770000D03*
X+6530000Y+2770000D03*
X+6330000Y+2170000D03*
D70*
X+7770000Y+6587000D03*
X+7770000Y+6460000D03*
X+7770000Y+6333000D03*
X+7770000Y+6206000D03*
X+7770000Y+6079000D03*
X+7770000Y+5952000D03*
X+7770000Y+5825000D03*
X+7770000Y+5698000D03*
X+8712000Y+5698000D03*
X+8712000Y+5825000D03*
X+8712000Y+5952000D03*
X+8712000Y+6079000D03*
X+8712000Y+6206000D03*
X+8712000Y+6333000D03*
X+8712000Y+6460000D03*
X+8712000Y+6587000D03*
D71*
X+10276000Y+5769300D03*
X+10403000Y+5769300D03*
X+10530000Y+5769300D03*
X+10657000Y+5769300D03*
X+10657000Y+6290000D03*
X+10530000Y+6290000D03*
X+10403000Y+6290000D03*
X+10276000Y+6290000D03*
D20*
X+7020000Y+6624000D03*
X+7020000Y+6751000D03*
X+7020000Y+6878000D03*
X+7020000Y+7005000D03*
X+7020000Y+7132000D03*
X+7020000Y+7259000D03*
X+7020000Y+7386000D03*
X+7020000Y+7513000D03*
X+7020000Y+7640000D03*
X+6296100Y+7640000D03*
X+6296100Y+7513000D03*
X+6296100Y+7386000D03*
X+6296100Y+7259000D03*
X+6296100Y+7132000D03*
X+6296100Y+7005000D03*
X+6296100Y+6878000D03*
X+6296100Y+6751000D03*
X+6296100Y+6624000D03*
D21*
X+4543130Y+2000000D03*
X+4543130Y+2457200D03*
D22*
X+3852250Y+2228600D03*
D23*
X+3720000Y+1510000D03*
X+3720000Y+1256000D03*
X+4740000Y+1256000D03*
X+4740000Y+1510000D03*
X+2410000Y+5980000D03*
X+2410000Y+5726000D03*
X+3430000Y+5726000D03*
X+3430000Y+5980000D03*
D24*
X+1230000Y+4419620D03*
X+1402720Y+4419620D03*
X+1227280Y+3919620D03*
X+1400000Y+3919620D03*
X+1240000Y+3419620D03*
X+1412720Y+3419620D03*
X+1250000Y+2919620D03*
X+1422720Y+2919620D03*
X+1402720Y+4289620D03*
X+1230000Y+4289620D03*
X+1400000Y+3779620D03*
X+1227280Y+3779620D03*
X+1410000Y+3299620D03*
X+1237280Y+3299620D03*
X+1420000Y+2789620D03*
X+1247280Y+2789620D03*
D23*
X+2410000Y+5237000D03*
X+2410000Y+4983000D03*
X+3430000Y+4983000D03*
X+3430000Y+5237000D03*
X+2400000Y+4567000D03*
X+2400000Y+4313000D03*
X+3420000Y+4313000D03*
X+3420000Y+4567000D03*
X+2400000Y+3847000D03*
X+2400000Y+3593000D03*
X+3420000Y+3593000D03*
X+3420000Y+3847000D03*
D24*
X+3840000Y+4347280D03*
X+3840000Y+4520000D03*
X+3850000Y+3647280D03*
X+3850000Y+3820000D03*
X+3830000Y+4767280D03*
X+3830000Y+4940000D03*
X+3850000Y+3987280D03*
X+3850000Y+4160000D03*
D25*
X+1776000Y+6368000D03*
D26*
X+2030000Y+6368000D03*
X+2284000Y+6368000D03*
X+2538000Y+6368000D03*
X+2792000Y+6368000D03*
X+3046000Y+6368000D03*
X+3300000Y+6368000D03*
X+3300000Y+7130000D03*
X+3046000Y+7130000D03*
X+2792000Y+7130000D03*
X+2538000Y+7130000D03*
X+2284000Y+7130000D03*
X+2030000Y+7130000D03*
X+1776000Y+7130000D03*
D27*
X+1870000Y+4320000D03*
X+2030000Y+4320000D03*
X+1870000Y+3830000D03*
X+2030000Y+3830000D03*
X+1870000Y+3310000D03*
X+2030000Y+3310000D03*
X+1870000Y+2800000D03*
X+2030000Y+2800000D03*
D24*
X+3360000Y+7522720D03*
X+3360000Y+7350000D03*
X+3110000Y+7542720D03*
X+3110000Y+7370000D03*
X+2810000Y+7522720D03*
X+2810000Y+7350000D03*
X+2550000Y+7542720D03*
X+2550000Y+7370000D03*
X+1830000Y+5750000D03*
X+1830000Y+5577280D03*
X+1830000Y+5410000D03*
X+1830000Y+5237280D03*
X+1520000Y+5400000D03*
X+1520000Y+5227280D03*
X+1520000Y+5740000D03*
X+1520000Y+5567280D03*
X+11590000Y+6970000D03*
X+11762720Y+6970000D03*
X+11590000Y+7230000D03*
X+11762720Y+7230000D03*
X+11590000Y+7480000D03*
X+11762720Y+7480000D03*
X+11590000Y+7740000D03*
X+11762720Y+7740000D03*
X+1570000Y+6967280D03*
X+1570000Y+7140000D03*
X+2690000Y+7720000D03*
X+2690000Y+7892720D03*
X+2950000Y+7717280D03*
X+2950000Y+7890000D03*
X+3230000Y+7717280D03*
X+3230000Y+7890000D03*
X+9250000Y+5430000D03*
X+9077280Y+5430000D03*
X+9250000Y+5720000D03*
X+9077280Y+5720000D03*
X+10377280Y+6600000D03*
X+10550000Y+6600000D03*
X+10060000Y+6600000D03*
X+10232720Y+6600000D03*
X+10720000Y+6610000D03*
X+10892720Y+6610000D03*
D28*
X+9360000Y+6010000D03*
X+9020000Y+6010000D03*
D29*
X+10760000Y+3000000D03*
X+10580000Y+3000000D03*
X+10760000Y+3500000D03*
X+10580000Y+3500000D03*
X+10760000Y+4000000D03*
X+10580000Y+4000000D03*
D72*
X+11880000Y+480000D03*
X+11880000Y+640000D03*
D73*
X+2376000Y+1140000D03*
D30*
X+2148000Y+496000D03*
D73*
X+1920000Y+1140000D03*
D31*
X+5210000Y+1620000D03*
X+5380000Y+1620000D03*
X+5550000Y+1620000D03*
X+5720000Y+1620000D03*
X+5890000Y+1620000D03*
D32*
X+5550000Y+2630000D03*
D33*
X+1310000Y+1130000D03*
X+1624960Y+1130000D03*
D34*
X+2220000Y+2030000D03*
X+3210000Y+2030000D03*
X+4090000Y+3040000D03*
X+3390000Y+3040000D03*
X+2250000Y+7620000D03*
X+1550000Y+7620000D03*
X+2297000Y+3041000D03*
X+2997000Y+3041000D03*
D16*
X+5830000Y+5600000D03*
X+3840000Y+5600000D03*
D35*
X+3226000Y+1180000D03*
D36*
X+2998000Y+462000D03*
D35*
X+2770000Y+1180000D03*
D37*
X+1200000Y+1600000D03*
X+1200000Y+1420000D03*
D38*
X+5510000Y+3690000D03*
X+4360000Y+3680000D03*
D39*
X+4140000Y+300000D03*
X+3710000Y+300000D03*
X+1270000Y+1940000D03*
X+1700000Y+1940000D03*
D40*
X+8620000Y+820000D03*
X+8620000Y+606640D03*
X+8640000Y+1220000D03*
X+8640000Y+1006640D03*
X+8960000Y+820000D03*
X+8960000Y+606640D03*
D24*
X+4417280Y+2740000D03*
X+4590000Y+2740000D03*
X+2420000Y+7460000D03*
X+2420000Y+7287280D03*
X+7730000Y+1070000D03*
X+7730000Y+1242720D03*
X+8070000Y+1057280D03*
X+8070000Y+1230000D03*
X+7450000Y+1067280D03*
X+7450000Y+1240000D03*
X+8390000Y+1230000D03*
X+8390000Y+1057280D03*
X+7200000Y+1230000D03*
X+7200000Y+1057280D03*
D18*
X+670000Y+919620D03*
X+670000Y+1420000D03*
D41*
X+4670000Y+430000D03*
X+5120000Y+430000D03*
D42*
X+4544000Y+679000D03*
X+5246000Y+679000D03*
D43*
X+6850000Y+350000D03*
X+7390000Y+350000D03*
X+7390000Y+750000D03*
X+6850000Y+750000D03*
D41*
X+5846000Y+431000D03*
X+6296000Y+431000D03*
D42*
X+5720000Y+680000D03*
X+6422000Y+680000D03*
D43*
X+7779000Y+346000D03*
X+8319000Y+346000D03*
X+8319000Y+746000D03*
X+7779000Y+746000D03*
D18*
X+4970000Y+7600000D03*
X+5470380Y+7600000D03*
X+3849620Y+7600000D03*
X+4350000Y+7600000D03*
D44*
X+150000Y+210000D03*
X+150000Y+550000D03*
D28*
X+1224551Y+780000D03*
X+1564551Y+780000D03*
D45*
X+585000Y+410000D03*
X+635000Y+410000D03*
X+684994Y+410000D03*
X+735000Y+410000D03*
X+785000Y+410000D03*
X+835000Y+410000D03*
X+885000Y+410000D03*
X+935000Y+410000D03*
X+985000Y+410000D03*
X+1035006Y+410000D03*
X+1085000Y+410000D03*
X+1135000Y+410000D03*
X+1135000Y+260000D03*
X+1085000Y+260000D03*
X+1035006Y+260000D03*
X+985000Y+260000D03*
X+935000Y+260000D03*
X+885000Y+260000D03*
X+835000Y+260000D03*
X+785000Y+260000D03*
X+735000Y+260000D03*
X+684994Y+260000D03*
X+635000Y+260000D03*
X+585000Y+260000D03*
D46*
X+550000Y+550000D03*
X+1170000Y+550000D03*
D47*
X+1235000Y+335000D03*
D46*
X+1170000Y+120000D03*
X+550000Y+120000D03*
D47*
X+485000Y+335000D03*
D18*
X+670000Y+3809620D03*
X+670000Y+4310000D03*
X+670000Y+2259620D03*
X+670000Y+2760000D03*
X+670000Y+3260380D03*
D19*
X+8560000Y+1570000D03*
X+9780000Y+1570000D03*
X+9780000Y+2770000D03*
X+8560000Y+2770000D03*
X+8360000Y+2170000D03*
D18*
X+11500380Y+480000D03*
X+11000000Y+480000D03*
X+10499620Y+480000D03*
D29*
X+10770000Y+4500000D03*
X+10590000Y+4500000D03*
D24*
X+10587280Y+4800000D03*
X+10760000Y+4800000D03*
D48*
X+5969000Y+3943000D03*
X+5969000Y+3683000D03*
X+5969000Y+3435000D03*
X+5969000Y+3175000D03*
X+6604000Y+4947000D03*
X+6604000Y+5207000D03*
X+6731000Y+5721000D03*
X+6731000Y+5461000D03*
D33*
X+9025040Y+6290000D03*
X+9340000Y+6290000D03*
D24*
X+5842000Y+4191000D03*
X+6014720Y+4191000D03*
X+6731000Y+6223000D03*
X+6903720Y+6223000D03*
X+7112000Y+5588000D03*
X+6939280Y+5588000D03*
X+5461000Y+1016000D03*
X+5633720Y+1016000D03*
X+7112000Y+5969000D03*
X+6939280Y+5969000D03*
X+5207000Y+6858000D03*
X+5379720Y+6858000D03*
X+4826000Y+6858000D03*
X+4998720Y+6858000D03*
X+1905000Y+4953000D03*
X+2077720Y+4953000D03*
D49*
X+10000Y+10000D02*
X+12010000Y+10000D01*
X+12010000Y+8010000D01*
X+10000Y+8010000D01*
X+10000Y+10000D01*
X+9090625Y+1343828D02*
X+9200625Y+1343828D01*
X+9200625Y+4593828D01*
X+9090625Y+4593828D01*
X+9090625Y+1343828D01*
X+7030625Y+1293828D02*
X+7140625Y+1293828D01*
X+7140625Y+4583828D01*
X+7030625Y+4583828D01*
X+7030625Y+1293828D01*
X+10285625Y+1208828D02*
X+11905625Y+1208828D01*
X+11905625Y+1318828D01*
X+10285625Y+1318828D01*
X+10285625Y+1208828D01*
M02*
