G04 PROTEUS GERBER X2 FILE*
%TF.GenerationSoftware,Labcenter,Proteus,8.11-SP0-Build30052*%
%TF.CreationDate,2021-11-08T23:16:57+00:00*%
%TF.FileFunction,Copper,L2,Bot*%
%TF.FilePolarity,Positive*%
%TF.Part,Single*%
%TF.SameCoordinates,{af5e3d67-cc9f-4e8b-9fcc-2bf036155207}*%
%FSLAX45Y45*%
%MOMM*%
G01*
%TA.AperFunction,Conductor*%
%ADD10C,0.381000*%
%ADD50C,0.762000*%
%ADD11C,0.635000*%
%ADD12C,0.508000*%
%TA.AperFunction,ViaPad*%
%ADD13C,0.762000*%
%TA.AperFunction,Conductor*%
%ADD14C,1.016000*%
%TA.AperFunction,WasherPad*%
%ADD15C,1.524000*%
%TA.AperFunction,ComponentPad*%
%ADD16C,2.032000*%
%TA.AperFunction,ComponentPad*%
%ADD17R,2.032000X2.032000*%
%TA.AperFunction,ComponentPad*%
%ADD18C,3.048000*%
%TA.AperFunction,ComponentPad*%
%ADD19C,2.100000*%
%TA.AperFunction,ComponentPad*%
%ADD25R,1.270000X1.270000*%
%ADD26C,1.270000*%
%TA.AperFunction,ComponentPad*%
%ADD41C,1.520000*%
%ADD42C,1.980000*%
%AMPPAD040*
4,1,34,
-0.550010,0.550000,
0.550010,0.550000,
0.662460,0.539060,
0.766460,0.507570,
0.859980,0.457550,
0.941020,0.391020,
1.007550,0.309980,
1.057570,0.216460,
1.089060,0.112460,
1.100000,-0.000010,
1.089060,-0.112460,
1.057570,-0.216460,
1.007550,-0.309980,
0.941020,-0.391020,
0.859980,-0.457550,
0.766460,-0.507570,
0.662460,-0.539060,
0.550010,-0.550000,
-0.550010,-0.550000,
-0.662460,-0.539060,
-0.766460,-0.507570,
-0.859980,-0.457550,
-0.941020,-0.391020,
-1.007550,-0.309980,
-1.057570,-0.216460,
-1.089060,-0.112460,
-1.100000,0.000010,
-1.089060,0.112460,
-1.057570,0.216460,
-1.007550,0.309980,
-0.941020,0.391020,
-0.859980,0.457550,
-0.766460,0.507570,
-0.662460,0.539060,
-0.550010,0.550000,
0*%
%TA.AperFunction,ComponentPad*%
%ADD46PPAD040*%
%AMPPAD041*
4,1,34,
-0.350010,0.350000,
0.350010,0.350000,
0.421570,0.343040,
0.487750,0.323000,
0.547260,0.291170,
0.598830,0.248830,
0.641170,0.197260,
0.673000,0.137750,
0.693040,0.071570,
0.700000,-0.000010,
0.693040,-0.071570,
0.673000,-0.137750,
0.641170,-0.197260,
0.598830,-0.248830,
0.547260,-0.291170,
0.487750,-0.323000,
0.421570,-0.343040,
0.350010,-0.350000,
-0.350010,-0.350000,
-0.421570,-0.343040,
-0.487750,-0.323000,
-0.547260,-0.291170,
-0.598830,-0.248830,
-0.641170,-0.197260,
-0.673000,-0.137750,
-0.693040,-0.071570,
-0.700000,0.000010,
-0.693040,0.071570,
-0.673000,0.137750,
-0.641170,0.197260,
-0.598830,0.248830,
-0.547260,0.291170,
-0.487750,0.323000,
-0.421570,0.343040,
-0.350010,0.350000,
0*%
%ADD47PPAD041*%
%TA.AperFunction,Profile*%
%ADD49C,0.203200*%
%TD.AperFunction*%
G36*
X+10883000Y+7884446D02*
X+10869206Y+7898240D01*
X+10896794Y+7898240D01*
X+10883000Y+7884446D01*
G37*
G36*
X+10629000Y+7884446D02*
X+10615206Y+7898240D01*
X+10642794Y+7898240D01*
X+10629000Y+7884446D01*
G37*
G36*
X+10375000Y+7884446D02*
X+10361206Y+7898240D01*
X+10388794Y+7898240D01*
X+10375000Y+7884446D01*
G37*
G36*
X+6547677Y+7810499D02*
X+6520735Y+7810499D01*
X+6438901Y+7728665D01*
X+6438901Y+7706649D01*
X+6163199Y+7706649D01*
X+6163199Y+7898240D01*
X+6635418Y+7898240D01*
X+6547677Y+7810499D01*
G37*
G36*
X+2425701Y+7816135D02*
X+2507535Y+7734301D01*
X+2623265Y+7734301D01*
X+2673351Y+7784387D01*
X+2673351Y+7658099D01*
X+2609135Y+7658099D01*
X+2590085Y+7639049D01*
X+1931227Y+7639049D01*
X+1917699Y+7625521D01*
X+1917699Y+7677865D01*
X+1835865Y+7759699D01*
X+1720135Y+7759699D01*
X+1701085Y+7740649D01*
X+1345373Y+7740649D01*
X+1285753Y+7800269D01*
X+908560Y+7800269D01*
X+810589Y+7898240D01*
X+2425701Y+7898240D01*
X+2425701Y+7816135D01*
G37*
G36*
X+5756801Y+7636801D02*
X+5756801Y+7452649D01*
X+5715827Y+7452649D01*
X+5568952Y+7305774D01*
X+5568952Y+7207249D01*
X+5248251Y+7207249D01*
X+5387003Y+7346001D01*
X+5575590Y+7346001D01*
X+5724379Y+7494790D01*
X+5724379Y+7705210D01*
X+5575590Y+7853999D01*
X+5365170Y+7853999D01*
X+5245470Y+7734299D01*
X+5194910Y+7734299D01*
X+5075210Y+7853999D01*
X+4864790Y+7853999D01*
X+4716001Y+7705210D01*
X+4716001Y+7494790D01*
X+4781292Y+7429499D01*
X+4768135Y+7429499D01*
X+4692649Y+7354013D01*
X+4692649Y+7873173D01*
X+4667582Y+7898240D01*
X+5756801Y+7898240D01*
X+5756801Y+7636801D01*
G37*
G36*
X+11898241Y+1430588D02*
X+11500545Y+1430588D01*
X+11531599Y+1461642D01*
X+11531599Y+1678358D01*
X+11442936Y+1767021D01*
X+11635210Y+1767021D01*
X+11783999Y+1915810D01*
X+11783999Y+2126230D01*
X+11669699Y+2240530D01*
X+11669699Y+2301890D01*
X+11783999Y+2416190D01*
X+11783999Y+2626610D01*
X+11640289Y+2770320D01*
X+11783999Y+2914030D01*
X+11783999Y+3124450D01*
X+11639019Y+3269430D01*
X+11783999Y+3414410D01*
X+11783999Y+3624830D01*
X+11639019Y+3769810D01*
X+11783999Y+3914790D01*
X+11783999Y+4125210D01*
X+11639019Y+4270190D01*
X+11783999Y+4415170D01*
X+11783999Y+4625590D01*
X+11635210Y+4774379D01*
X+11424790Y+4774379D01*
X+11360149Y+4709738D01*
X+11360149Y+5262233D01*
X+11205833Y+5416549D01*
X+10409567Y+5416549D01*
X+10241651Y+5248633D01*
X+10241651Y+5187799D01*
X+10174353Y+5187799D01*
X+10121000Y+5134446D01*
X+10067647Y+5187799D01*
X+9987648Y+5187799D01*
X+9987648Y+5499101D01*
X+10040065Y+5499101D01*
X+10121899Y+5580935D01*
X+10121899Y+5696665D01*
X+10102849Y+5715715D01*
X+10102849Y+5803187D01*
X+10127535Y+5778501D01*
X+10154477Y+5778501D01*
X+10211627Y+5721351D01*
X+10743373Y+5721351D01*
X+10890249Y+5868227D01*
X+10890249Y+6059794D01*
X+10911642Y+6038401D01*
X+11128358Y+6038401D01*
X+11281599Y+6191642D01*
X+11281599Y+6408358D01*
X+11128358Y+6561599D01*
X+10911642Y+6561599D01*
X+10880649Y+6530606D01*
X+10880649Y+7073282D01*
X+10887000Y+7079633D01*
X+10929832Y+7036801D01*
X+11098168Y+7036801D01*
X+11217199Y+7155832D01*
X+11217199Y+7324168D01*
X+11098168Y+7443199D01*
X+11068049Y+7443199D01*
X+11068049Y+7582201D01*
X+11083647Y+7582201D01*
X+11187799Y+7686353D01*
X+11187799Y+7833647D01*
X+11123206Y+7898240D01*
X+11898241Y+7898240D01*
X+11898241Y+1430588D01*
G37*
G36*
X+416001Y+7784830D02*
X+416001Y+7574410D01*
X+560981Y+7429430D01*
X+416001Y+7284450D01*
X+416001Y+7074030D01*
X+564790Y+6925241D01*
X+753377Y+6925241D01*
X+844551Y+6834067D01*
X+844551Y+6784278D01*
X+775210Y+6853619D01*
X+564790Y+6853619D01*
X+416001Y+6704830D01*
X+416001Y+6494410D01*
X+560981Y+6349430D01*
X+416001Y+6204450D01*
X+416001Y+6015863D01*
X+260351Y+5860213D01*
X+260351Y+5258267D01*
X+416001Y+5102617D01*
X+416001Y+4914030D01*
X+564790Y+4765241D01*
X+775210Y+4765241D01*
X+908560Y+4898591D01*
X+999845Y+4898591D01*
X+1008935Y+4889501D01*
X+1098551Y+4889501D01*
X+1098551Y+4457699D01*
X+1008935Y+4457699D01*
X+981884Y+4430648D01*
X+908561Y+4430648D01*
X+775210Y+4563999D01*
X+564790Y+4563999D01*
X+416001Y+4415210D01*
X+416001Y+4204790D01*
X+560981Y+4059810D01*
X+416001Y+3914830D01*
X+416001Y+3704410D01*
X+564790Y+3555621D01*
X+775210Y+3555621D01*
X+908561Y+3688972D01*
X+939464Y+3688972D01*
X+958135Y+3670301D01*
X+977901Y+3670301D01*
X+977901Y+3625135D01*
X+996951Y+3606085D01*
X+996951Y+3378915D01*
X+977901Y+3359865D01*
X+977901Y+3244135D01*
X+996951Y+3225085D01*
X+996951Y+2744027D01*
X+1104901Y+2636077D01*
X+1104901Y+2609135D01*
X+1186735Y+2527301D01*
X+1302465Y+2527301D01*
X+1372370Y+2597206D01*
X+1423226Y+2546351D01*
X+1835151Y+2546351D01*
X+1835151Y+2261427D01*
X+1860551Y+2236027D01*
X+1860551Y+1831599D01*
X+1661642Y+1831599D01*
X+1508401Y+1678358D01*
X+1508401Y+1461642D01*
X+1630194Y+1339849D01*
X+1460499Y+1339849D01*
X+1460499Y+1353265D01*
X+1378665Y+1435099D01*
X+1262935Y+1435099D01*
X+1181101Y+1353265D01*
X+1181101Y+1237535D01*
X+1262935Y+1155701D01*
X+1264477Y+1155701D01*
X+1264478Y+1155700D01*
X+1250951Y+1142173D01*
X+1250951Y+991315D01*
X+1231901Y+972265D01*
X+1231901Y+856535D01*
X+1250951Y+837485D01*
X+1250951Y+706599D01*
X+1028699Y+706599D01*
X+1028699Y+718265D01*
X+1009649Y+737315D01*
X+1009649Y+1091373D01*
X+862773Y+1238249D01*
X+847458Y+1238249D01*
X+923999Y+1314790D01*
X+923999Y+1525210D01*
X+775210Y+1673999D01*
X+564790Y+1673999D01*
X+416001Y+1525210D01*
X+416001Y+1314790D01*
X+492542Y+1238249D01*
X+178627Y+1238249D01*
X+121759Y+1181381D01*
X+121759Y+7898240D01*
X+529411Y+7898240D01*
X+416001Y+7784830D01*
G37*
%LPC*%
G36*
X+923999Y+3365590D02*
X+923999Y+3155170D01*
X+779019Y+3010190D01*
X+923999Y+2865210D01*
X+923999Y+2654790D01*
X+779019Y+2509810D01*
X+923999Y+2364830D01*
X+923999Y+2154410D01*
X+775210Y+2005621D01*
X+564790Y+2005621D01*
X+416001Y+2154410D01*
X+416001Y+2364830D01*
X+560981Y+2509810D01*
X+416001Y+2654790D01*
X+416001Y+2865210D01*
X+560981Y+3010190D01*
X+416001Y+3155170D01*
X+416001Y+3365590D01*
X+564790Y+3514379D01*
X+775210Y+3514379D01*
X+923999Y+3365590D01*
G37*
%LPD*%
G36*
X+4197351Y+1624773D02*
X+3982277Y+1409699D01*
X+3955335Y+1409699D01*
X+3873501Y+1327865D01*
X+3873501Y+1212135D01*
X+3955335Y+1130301D01*
X+3964317Y+1130301D01*
X+4184651Y+909967D01*
X+4184651Y+165815D01*
X+4178301Y+159465D01*
X+4178301Y+121760D01*
X+1589324Y+121760D01*
X+1663699Y+196135D01*
X+1663699Y+311865D01*
X+1644649Y+330915D01*
X+1644649Y+481774D01*
X+1573975Y+552448D01*
X+1492249Y+552448D01*
X+1492249Y+837485D01*
X+1511299Y+856535D01*
X+1511299Y+972265D01*
X+1492249Y+991315D01*
X+1492249Y+1042227D01*
X+1548573Y+1098551D01*
X+2132773Y+1098551D01*
X+2279649Y+1245427D01*
X+2279649Y+2717085D01*
X+2298699Y+2736135D01*
X+2298699Y+2763077D01*
X+2393951Y+2858329D01*
X+2393951Y+1575515D01*
X+2374901Y+1556465D01*
X+2374901Y+1440735D01*
X+2456735Y+1358901D01*
X+2572465Y+1358901D01*
X+2654299Y+1440735D01*
X+2654299Y+1556465D01*
X+2635249Y+1575515D01*
X+2635249Y+2920285D01*
X+2654299Y+2939335D01*
X+2654299Y+3055065D01*
X+2622493Y+3086871D01*
X+2691573Y+3155951D01*
X+3486151Y+3155951D01*
X+3486151Y+3124915D01*
X+3467101Y+3105865D01*
X+3467101Y+2990135D01*
X+3486151Y+2971085D01*
X+3486151Y+2894773D01*
X+3474277Y+2882899D01*
X+3447335Y+2882899D01*
X+3365501Y+2801065D01*
X+3365501Y+2685335D01*
X+3447335Y+2603501D01*
X+3563065Y+2603501D01*
X+3644899Y+2685335D01*
X+3644899Y+2712277D01*
X+3727449Y+2794827D01*
X+3727449Y+2971085D01*
X+3746499Y+2990135D01*
X+3746499Y+3105865D01*
X+3727449Y+3124915D01*
X+3727449Y+3155951D01*
X+3961685Y+3155951D01*
X+3980735Y+3136901D01*
X+4096465Y+3136901D01*
X+4178299Y+3218735D01*
X+4178299Y+3296477D01*
X+4197351Y+3315529D01*
X+4197351Y+1624773D01*
G37*
%LPC*%
G36*
X+3408401Y+661642D02*
X+3408401Y+878358D01*
X+3561642Y+1031599D01*
X+3778358Y+1031599D01*
X+3931599Y+878358D01*
X+3931599Y+661642D01*
X+3778358Y+508401D01*
X+3561642Y+508401D01*
X+3408401Y+661642D01*
G37*
%LPD*%
G36*
X+11898241Y+121760D02*
X+11366499Y+121760D01*
X+11366499Y+159465D01*
X+11360149Y+165815D01*
X+11360149Y+261022D01*
X+11395170Y+226001D01*
X+11605590Y+226001D01*
X+11754379Y+374790D01*
X+11754379Y+585210D01*
X+11621029Y+718560D01*
X+11621029Y+862773D01*
X+11474153Y+1009649D01*
X+10844973Y+1009649D01*
X+10839449Y+1015174D01*
X+10768774Y+1085849D01*
X+10465515Y+1085849D01*
X+10454296Y+1097068D01*
X+11898241Y+1097068D01*
X+11898241Y+121760D01*
G37*
G36*
X+10859114Y+261678D02*
X+10858501Y+261065D01*
X+10858501Y+145335D01*
X+10882076Y+121760D01*
X+10833382Y+121760D01*
X+10839449Y+127827D01*
X+10839449Y+281342D01*
X+10859114Y+261678D01*
G37*
G36*
X+4596436Y+252401D02*
X+4679951Y+252401D01*
X+4679951Y+127827D01*
X+4686018Y+121760D01*
X+4457699Y+121760D01*
X+4457699Y+159465D01*
X+4451349Y+165815D01*
X+4451349Y+309351D01*
X+4539486Y+309351D01*
X+4596436Y+252401D01*
G37*
G36*
X+1458676Y+121760D02*
X+1436924Y+121760D01*
X+1447800Y+132636D01*
X+1458676Y+121760D01*
G37*
G36*
X+264876Y+121760D02*
X+121759Y+121760D01*
X+121759Y+190501D01*
X+196135Y+190501D01*
X+264876Y+121760D01*
G37*
G36*
X+7276201Y+7694021D02*
X+7263573Y+7706649D01*
X+6785071Y+7706649D01*
X+6857173Y+7778751D01*
X+7276201Y+7778751D01*
X+7276201Y+7694021D01*
G37*
G36*
X+10369551Y+7618271D02*
X+10368649Y+7619173D01*
X+10368649Y+7629203D01*
X+10369551Y+7630105D01*
X+10369551Y+7618271D01*
G37*
G36*
X+8857351Y+7629203D02*
X+8857351Y+7402718D01*
X+8855000Y+7400367D01*
X+8812168Y+7443199D01*
X+8643832Y+7443199D01*
X+8601000Y+7400367D01*
X+8594649Y+7406718D01*
X+8594649Y+7492173D01*
X+8590649Y+7496173D01*
X+8590649Y+7629203D01*
X+8597000Y+7635554D01*
X+8650353Y+7582201D01*
X+8797647Y+7582201D01*
X+8851000Y+7635554D01*
X+8857351Y+7629203D01*
G37*
G36*
X+6960427Y+7435849D02*
X+6921499Y+7435849D01*
X+6921499Y+7465351D01*
X+6989929Y+7465351D01*
X+6960427Y+7435849D01*
G37*
G36*
X+10385351Y+7478026D02*
X+10385351Y+7406718D01*
X+10379000Y+7400367D01*
X+10372649Y+7406718D01*
X+10372649Y+7490728D01*
X+10385351Y+7478026D01*
G37*
G36*
X+10127351Y+7629203D02*
X+10127351Y+7519227D01*
X+10131351Y+7515227D01*
X+10131351Y+7406718D01*
X+10125000Y+7400367D01*
X+10118649Y+7406718D01*
X+10118649Y+7568373D01*
X+10114649Y+7572373D01*
X+10114649Y+7629203D01*
X+10121000Y+7635554D01*
X+10127351Y+7629203D01*
G37*
G36*
X+9873351Y+7629203D02*
X+9873351Y+7472427D01*
X+9877351Y+7468427D01*
X+9877351Y+7406718D01*
X+9871000Y+7400367D01*
X+9864649Y+7406718D01*
X+9864649Y+7568373D01*
X+9860649Y+7572373D01*
X+9860649Y+7629203D01*
X+9867000Y+7635554D01*
X+9873351Y+7629203D01*
G37*
G36*
X+9619351Y+7629203D02*
X+9619351Y+7472427D01*
X+9623351Y+7468427D01*
X+9623351Y+7406718D01*
X+9617000Y+7400367D01*
X+9610649Y+7406718D01*
X+9610649Y+7615173D01*
X+9606649Y+7619173D01*
X+9606649Y+7629203D01*
X+9613000Y+7635554D01*
X+9619351Y+7629203D01*
G37*
G36*
X+9365351Y+7629203D02*
X+9365351Y+7519227D01*
X+9369351Y+7515227D01*
X+9369351Y+7406718D01*
X+9363000Y+7400367D01*
X+9356649Y+7406718D01*
X+9356649Y+7492173D01*
X+9352649Y+7496173D01*
X+9352649Y+7629203D01*
X+9359000Y+7635554D01*
X+9365351Y+7629203D01*
G37*
G36*
X+9111351Y+7629203D02*
X+9111351Y+7402718D01*
X+9109000Y+7400367D01*
X+9102649Y+7406718D01*
X+9102649Y+7492173D01*
X+9098649Y+7496173D01*
X+9098649Y+7629203D01*
X+9105000Y+7635554D01*
X+9111351Y+7629203D01*
G37*
G36*
X+8349351Y+7629203D02*
X+8349351Y+7402718D01*
X+8347000Y+7400367D01*
X+8340649Y+7406718D01*
X+8340649Y+7492173D01*
X+8336649Y+7496173D01*
X+8336649Y+7629203D01*
X+8343000Y+7635554D01*
X+8349351Y+7629203D01*
G37*
G36*
X+8095351Y+7629203D02*
X+8095351Y+7402718D01*
X+8093000Y+7400367D01*
X+8086649Y+7406718D01*
X+8086649Y+7538973D01*
X+8082649Y+7542973D01*
X+8082649Y+7629203D01*
X+8089000Y+7635554D01*
X+8095351Y+7629203D01*
G37*
G36*
X+7841351Y+7629203D02*
X+7841351Y+7443027D01*
X+7845351Y+7439027D01*
X+7845351Y+7406718D01*
X+7839000Y+7400367D01*
X+7832649Y+7406718D01*
X+7832649Y+7568373D01*
X+7828649Y+7572373D01*
X+7828649Y+7629203D01*
X+7835000Y+7635554D01*
X+7841351Y+7629203D01*
G37*
G36*
X+7587351Y+7629203D02*
X+7587351Y+7472427D01*
X+7591351Y+7468427D01*
X+7591351Y+7406718D01*
X+7585000Y+7400367D01*
X+7578649Y+7406718D01*
X+7578649Y+7492173D01*
X+7574649Y+7496173D01*
X+7574649Y+7629203D01*
X+7581000Y+7635554D01*
X+7587351Y+7629203D01*
G37*
G36*
X+2073689Y+7375111D02*
X+2038351Y+7339773D01*
X+2038351Y+7295099D01*
X+2025649Y+7295099D01*
X+2025649Y+7392227D01*
X+2031173Y+7397751D01*
X+2096329Y+7397751D01*
X+2073689Y+7375111D01*
G37*
G36*
X+3193335Y+7378701D02*
X+3220277Y+7378701D01*
X+3303879Y+7295099D01*
X+3231614Y+7295099D01*
X+3222468Y+7285954D01*
X+3143249Y+7365173D01*
X+3143249Y+7428787D01*
X+3193335Y+7378701D01*
G37*
G36*
X+2411000Y+7236485D02*
X+2402134Y+7245351D01*
X+2419866Y+7245351D01*
X+2411000Y+7236485D01*
G37*
G36*
X+4710987Y+7207249D02*
X+4698173Y+7207249D01*
X+4692649Y+7212773D01*
X+4692649Y+7225587D01*
X+4710987Y+7207249D01*
G37*
G36*
X+7048501Y+7119065D02*
X+7048501Y+7080249D01*
X+6909515Y+7080249D01*
X+6890465Y+7099299D01*
X+6851649Y+7099299D01*
X+6851649Y+7112827D01*
X+6858173Y+7119351D01*
X+7048787Y+7119351D01*
X+7048501Y+7119065D01*
G37*
G36*
X+3595621Y+7494790D02*
X+3728971Y+7361440D01*
X+3728971Y+7341427D01*
X+3867151Y+7203247D01*
X+3867151Y+7042806D01*
X+3778358Y+7131599D01*
X+3561642Y+7131599D01*
X+3549649Y+7119606D01*
X+3549649Y+7390573D01*
X+3390899Y+7549323D01*
X+3390899Y+7576265D01*
X+3309065Y+7658099D01*
X+3193335Y+7658099D01*
X+3111501Y+7576265D01*
X+3111501Y+7574721D01*
X+3111499Y+7574723D01*
X+3111499Y+7601665D01*
X+3066993Y+7646171D01*
X+3097973Y+7677151D01*
X+3595621Y+7677151D01*
X+3595621Y+7494790D01*
G37*
G36*
X+10639351Y+7073282D02*
X+10639351Y+6616699D01*
X+10559335Y+6616699D01*
X+10540285Y+6597649D01*
X+10211515Y+6597649D01*
X+10192465Y+6616699D01*
X+10118649Y+6616699D01*
X+10118649Y+7073282D01*
X+10125000Y+7079633D01*
X+10167832Y+7036801D01*
X+10336168Y+7036801D01*
X+10379000Y+7079633D01*
X+10421832Y+7036801D01*
X+10590168Y+7036801D01*
X+10633000Y+7079633D01*
X+10639351Y+7073282D01*
G37*
G36*
X+8099351Y+7073282D02*
X+8099351Y+6971471D01*
X+8086649Y+6984173D01*
X+8086649Y+7073282D01*
X+8093000Y+7079633D01*
X+8099351Y+7073282D01*
G37*
G36*
X+8389832Y+7036801D02*
X+8415579Y+7036801D01*
X+8340649Y+6961871D01*
X+8340649Y+7073282D01*
X+8347000Y+7079633D01*
X+8389832Y+7036801D01*
G37*
G36*
X+5434885Y+6953249D02*
X+5346699Y+6953249D01*
X+5346699Y+6965951D01*
X+5447587Y+6965951D01*
X+5434885Y+6953249D01*
G37*
G36*
X+3054351Y+6946071D02*
X+3041649Y+6958773D01*
X+3041649Y+6964901D01*
X+3054351Y+6964901D01*
X+3054351Y+6946071D01*
G37*
G36*
X+4264689Y+6975889D02*
X+4315778Y+6924800D01*
X+4260848Y+6869870D01*
X+4260848Y+6979730D01*
X+4264689Y+6975889D01*
G37*
G36*
X+9659832Y+7036801D02*
X+9776577Y+7036801D01*
X+9785351Y+7028027D01*
X+9785351Y+6921499D01*
X+9746535Y+6921499D01*
X+9670335Y+6845299D01*
X+9644935Y+6845299D01*
X+9631599Y+6831963D01*
X+9631599Y+6978358D01*
X+9573156Y+7036801D01*
X+9574168Y+7036801D01*
X+9617000Y+7079633D01*
X+9659832Y+7036801D01*
G37*
G36*
X+1909351Y+6718299D02*
X+1859721Y+6718299D01*
X+1909351Y+6767929D01*
X+1909351Y+6718299D01*
G37*
G36*
X+7321551Y+6693613D02*
X+7296865Y+6718299D01*
X+7258049Y+6718299D01*
X+7258049Y+6730285D01*
X+7321551Y+6793787D01*
X+7321551Y+6693613D01*
G37*
G36*
X+7845351Y+7073282D02*
X+7845351Y+6884227D01*
X+7931151Y+6798427D01*
X+7931151Y+6692899D01*
X+7892335Y+6692899D01*
X+7832649Y+6633213D01*
X+7832649Y+7073282D01*
X+7839000Y+7079633D01*
X+7845351Y+7073282D01*
G37*
G36*
X+7016751Y+6615871D02*
X+6972299Y+6660323D01*
X+6972299Y+6687265D01*
X+6890465Y+6769099D01*
X+6851649Y+6769099D01*
X+6851649Y+6819901D01*
X+6890465Y+6819901D01*
X+6909515Y+6838951D01*
X+7016751Y+6838951D01*
X+7016751Y+6615871D01*
G37*
G36*
X+2419889Y+6823489D02*
X+2455226Y+6788152D01*
X+2505200Y+6788152D01*
X+2691685Y+6788151D01*
X+2710735Y+6769101D01*
X+2826465Y+6769101D01*
X+2858271Y+6800907D01*
X+2925351Y+6733827D01*
X+2925351Y+6567071D01*
X+2894773Y+6597649D01*
X+2597027Y+6597649D01*
X+2538000Y+6538622D01*
X+2279649Y+6796973D01*
X+2279649Y+6963729D01*
X+2419889Y+6823489D01*
G37*
G36*
X+3308351Y+6533099D02*
X+3295649Y+6533099D01*
X+3295649Y+6964901D01*
X+3308351Y+6964901D01*
X+3308351Y+6533099D01*
G37*
G36*
X+1765301Y+6533099D02*
X+1674521Y+6533099D01*
X+1765301Y+6623879D01*
X+1765301Y+6533099D01*
G37*
G36*
X+2208946Y+6526432D02*
X+2206468Y+6523954D01*
X+2150649Y+6579773D01*
X+2150649Y+6584729D01*
X+2208946Y+6526432D01*
G37*
G36*
X+3561642Y+6608401D02*
X+3694579Y+6608401D01*
X+3549649Y+6463471D01*
X+3549649Y+6620394D01*
X+3561642Y+6608401D01*
G37*
G36*
X+4197351Y+6235699D02*
X+4184649Y+6235699D01*
X+4184649Y+6515101D01*
X+4197351Y+6515101D01*
X+4197351Y+6235699D01*
G37*
G36*
X+9023352Y+6249226D02*
X+9023352Y+6223716D01*
X+9010648Y+6211012D01*
X+9010648Y+6254751D01*
X+9017827Y+6254751D01*
X+9023352Y+6249226D01*
G37*
G36*
X+1610901Y+6401523D02*
X+1416049Y+6206671D01*
X+1416049Y+6274627D01*
X+1610901Y+6469479D01*
X+1610901Y+6401523D01*
G37*
G36*
X+6813551Y+6223827D02*
X+6813551Y+6058613D01*
X+6788865Y+6083299D01*
X+6784973Y+6083299D01*
X+6784973Y+6252405D01*
X+6813551Y+6223827D01*
G37*
G36*
X+10648951Y+6120685D02*
X+10648951Y+6007813D01*
X+10636249Y+6020515D01*
X+10636249Y+6131827D01*
X+10637029Y+6132607D01*
X+10648951Y+6120685D01*
G37*
G36*
X+9151832Y+7036801D02*
X+9166844Y+7036801D01*
X+9108401Y+6978358D01*
X+9108401Y+6761642D01*
X+9261642Y+6608401D01*
X+9478358Y+6608401D01*
X+9563101Y+6693144D01*
X+9563101Y+6647735D01*
X+9582151Y+6628685D01*
X+9582151Y+5460173D01*
X+9576627Y+5454649D01*
X+9512299Y+5454649D01*
X+9512299Y+5493465D01*
X+9493249Y+5512515D01*
X+9493249Y+5638085D01*
X+9512299Y+5657135D01*
X+9512299Y+5772865D01*
X+9430465Y+5854699D01*
X+9314735Y+5854699D01*
X+9295685Y+5835649D01*
X+9259127Y+5835649D01*
X+9157527Y+5734049D01*
X+9080499Y+5734049D01*
X+9080499Y+5772865D01*
X+8998665Y+5854699D01*
X+8882935Y+5854699D01*
X+8863885Y+5835649D01*
X+8674099Y+5835649D01*
X+8674099Y+5874465D01*
X+8668464Y+5880100D01*
X+8674099Y+5885735D01*
X+8674099Y+6001465D01*
X+8655049Y+6020515D01*
X+8655049Y+6057073D01*
X+8578849Y+6133273D01*
X+8578849Y+6211129D01*
X+8662227Y+6127751D01*
X+8939974Y+6127751D01*
X+9004301Y+6192078D01*
X+9004301Y+6088935D01*
X+9086135Y+6007101D01*
X+9201865Y+6007101D01*
X+9283699Y+6088935D01*
X+9283699Y+6204665D01*
X+9264648Y+6223716D01*
X+9264648Y+6349174D01*
X+9117773Y+6496049D01*
X+8966915Y+6496049D01*
X+8947865Y+6515099D01*
X+8832135Y+6515099D01*
X+8756649Y+6439613D01*
X+8756649Y+6806485D01*
X+8775699Y+6825535D01*
X+8775699Y+6864351D01*
X+8776973Y+6864351D01*
X+8949423Y+7036801D01*
X+9066168Y+7036801D01*
X+9109000Y+7079633D01*
X+9151832Y+7036801D01*
G37*
G36*
X+10394951Y+6231773D02*
X+10394951Y+6020515D01*
X+10375901Y+6001465D01*
X+10375901Y+5962649D01*
X+10325099Y+5962649D01*
X+10325099Y+5976065D01*
X+10243265Y+6057899D01*
X+10127535Y+6057899D01*
X+10102849Y+6033213D01*
X+10102849Y+6335027D01*
X+10105123Y+6337301D01*
X+10192465Y+6337301D01*
X+10211515Y+6356351D01*
X+10519529Y+6356351D01*
X+10394951Y+6231773D01*
G37*
G36*
X+2038351Y+6173027D02*
X+2101907Y+6109471D01*
X+2095501Y+6103065D01*
X+2095501Y+5987335D01*
X+2177335Y+5905501D01*
X+2292351Y+5905501D01*
X+2292351Y+5676899D01*
X+2228135Y+5676899D01*
X+2146301Y+5595065D01*
X+2146301Y+5479335D01*
X+2165351Y+5460285D01*
X+2165351Y+5321299D01*
X+2126535Y+5321299D01*
X+2107485Y+5302249D01*
X+1626427Y+5302249D01*
X+1619249Y+5295071D01*
X+1619249Y+5815885D01*
X+1636704Y+5833340D01*
X+1661642Y+5808401D01*
X+1878358Y+5808401D01*
X+2031599Y+5961642D01*
X+2031599Y+6178358D01*
X+2007056Y+6202901D01*
X+2038351Y+6202901D01*
X+2038351Y+6173027D01*
G37*
G36*
X+6711951Y+5792027D02*
X+6711951Y+5791915D01*
X+6704829Y+5784793D01*
X+6685721Y+5803901D01*
X+6700077Y+5803901D01*
X+6711951Y+5792027D01*
G37*
G36*
X+3943351Y+6020515D02*
X+3924301Y+6001465D01*
X+3924301Y+5885735D01*
X+4006135Y+5803901D01*
X+4044951Y+5803901D01*
X+4044951Y+5727699D01*
X+3999668Y+5727699D01*
X+3924168Y+5803199D01*
X+3755832Y+5803199D01*
X+3727448Y+5774815D01*
X+3727448Y+6300026D01*
X+3943351Y+6515929D01*
X+3943351Y+6020515D01*
G37*
G36*
X+5709351Y+5766718D02*
X+5632449Y+5689816D01*
X+5632449Y+6083301D01*
X+5709351Y+6083301D01*
X+5709351Y+5766718D01*
G37*
G36*
X+1210089Y+7534689D02*
X+1245427Y+7499351D01*
X+1657351Y+7499351D01*
X+1657351Y+7417973D01*
X+1655351Y+7415973D01*
X+1655351Y+7242836D01*
X+1610901Y+7198386D01*
X+1610901Y+7061614D01*
X+1707614Y+6964901D01*
X+1765079Y+6964901D01*
X+1174751Y+6374573D01*
X+1174751Y+5640269D01*
X+908560Y+5640269D01*
X+775210Y+5773619D01*
X+564790Y+5773619D01*
X+501649Y+5710478D01*
X+501649Y+5760267D01*
X+586623Y+5845241D01*
X+775210Y+5845241D01*
X+923999Y+5994030D01*
X+923999Y+6182617D01*
X+1085849Y+6344467D01*
X+1085849Y+6934013D01*
X+923999Y+7095863D01*
X+923999Y+7284450D01*
X+779019Y+7429430D01*
X+908560Y+7558971D01*
X+1185807Y+7558971D01*
X+1210089Y+7534689D01*
G37*
G36*
X+5662584Y+5480049D02*
X+5637973Y+5480049D01*
X+5632449Y+5485573D01*
X+5632449Y+5510184D01*
X+5662584Y+5480049D01*
G37*
G36*
X+7854952Y+6450884D02*
X+7854951Y+5512515D01*
X+7835901Y+5493465D01*
X+7835901Y+5466521D01*
X+7832649Y+5469773D01*
X+7832649Y+6473187D01*
X+7854952Y+6450884D01*
G37*
G36*
X+8115301Y+6393735D02*
X+8134351Y+6374685D01*
X+8134351Y+5639627D01*
X+8281227Y+5492751D01*
X+9232901Y+5492751D01*
X+9232901Y+5454649D01*
X+8115299Y+5454649D01*
X+8115299Y+5493465D01*
X+8096249Y+5512515D01*
X+8096248Y+6432551D01*
X+8115301Y+6432551D01*
X+8115301Y+6393735D01*
G37*
G36*
X+4044951Y+5091871D02*
X+3873499Y+5263323D01*
X+3873499Y+5290265D01*
X+3791665Y+5372099D01*
X+3727449Y+5372099D01*
X+3727449Y+5425184D01*
X+3755832Y+5396801D01*
X+3924168Y+5396801D01*
X+3975668Y+5448301D01*
X+4044951Y+5448301D01*
X+4044951Y+5091871D01*
G37*
G36*
X+3486151Y+5295071D02*
X+3485321Y+5295901D01*
X+3486151Y+5295901D01*
X+3486151Y+5295071D01*
G37*
G36*
X+9746352Y+5187799D02*
X+9740899Y+5187799D01*
X+9740899Y+5188665D01*
X+9696393Y+5233171D01*
X+9746352Y+5283130D01*
X+9746352Y+5187799D01*
G37*
G36*
X+1098551Y+5393447D02*
X+1098551Y+5168899D01*
X+1008935Y+5168899D01*
X+979925Y+5139889D01*
X+908560Y+5139889D01*
X+779019Y+5269430D01*
X+908560Y+5398971D01*
X+1093027Y+5398971D01*
X+1098551Y+5393447D01*
G37*
G36*
X+7282735Y+5422901D02*
X+7321551Y+5422901D01*
X+7321551Y+5157027D01*
X+7335566Y+5143012D01*
X+7276201Y+5083647D01*
X+7276201Y+4946649D01*
X+7060373Y+4946649D01*
X+7054849Y+4952173D01*
X+7054849Y+5016501D01*
X+7093665Y+5016501D01*
X+7175499Y+5098335D01*
X+7175499Y+5118101D01*
X+7195265Y+5118101D01*
X+7277099Y+5199935D01*
X+7277099Y+5315665D01*
X+7258049Y+5334715D01*
X+7258049Y+5447587D01*
X+7282735Y+5422901D01*
G37*
G36*
X+6610351Y+5511085D02*
X+6610351Y+4890213D01*
X+6597649Y+4902915D01*
X+6597649Y+5523787D01*
X+6610351Y+5511085D01*
G37*
G36*
X+8396353Y+4832201D02*
X+8476351Y+4832201D01*
X+8476351Y+4633773D01*
X+8459027Y+4616449D01*
X+8179515Y+4616449D01*
X+8160465Y+4635499D01*
X+8121649Y+4635499D01*
X+8121649Y+4799773D01*
X+8062434Y+4858988D01*
X+8089000Y+4885554D01*
X+8142353Y+4832201D01*
X+8289647Y+4832201D01*
X+8343000Y+4885554D01*
X+8396353Y+4832201D01*
G37*
G36*
X+10671966Y+4842588D02*
X+9861627Y+4032249D01*
X+9689271Y+4032249D01*
X+9747248Y+4090226D01*
X+9747248Y+4133401D01*
X+9865576Y+4133401D01*
X+9986599Y+4254424D01*
X+9986599Y+4425576D01*
X+9865576Y+4546599D01*
X+9834421Y+4546599D01*
X+9987648Y+4699826D01*
X+9987648Y+4832201D01*
X+9994901Y+4832201D01*
X+9994901Y+4818935D01*
X+10076735Y+4737101D01*
X+10192465Y+4737101D01*
X+10198815Y+4743451D01*
X+10354033Y+4743451D01*
X+10442783Y+4832201D01*
X+10575647Y+4832201D01*
X+10629000Y+4885554D01*
X+10671966Y+4842588D01*
G37*
G36*
X+2126535Y+5041901D02*
X+2165351Y+5041901D01*
X+2165351Y+4736271D01*
X+1841499Y+5060123D01*
X+1841499Y+5060951D01*
X+2107485Y+5060951D01*
X+2126535Y+5041901D01*
G37*
G36*
X+2671352Y+6255163D02*
X+2671352Y+6169374D01*
X+2647951Y+6145973D01*
X+2647951Y+5182315D01*
X+2628901Y+5163265D01*
X+2628901Y+5047535D01*
X+2647951Y+5028485D01*
X+2647951Y+4711699D01*
X+2621723Y+4711699D01*
X+2533649Y+4799773D01*
X+2533649Y+6202901D01*
X+2606386Y+6202901D01*
X+2665000Y+6261515D01*
X+2671352Y+6255163D01*
G37*
G36*
X+9666353Y+4832201D02*
X+9746352Y+4832201D01*
X+9746352Y+4799774D01*
X+9594849Y+4648271D01*
X+9594849Y+4799773D01*
X+9561034Y+4833588D01*
X+9613000Y+4885554D01*
X+9666353Y+4832201D01*
G37*
G36*
X+7880351Y+4699827D02*
X+7880351Y+4501824D01*
X+7835576Y+4546599D01*
X+7664424Y+4546599D01*
X+7581899Y+4464074D01*
X+7581899Y+4553665D01*
X+7500065Y+4635499D01*
X+7461249Y+4635499D01*
X+7461249Y+4705351D01*
X+7874827Y+4705351D01*
X+7880351Y+4699827D01*
G37*
G36*
X+1936751Y+4623627D02*
X+1936751Y+4584699D01*
X+1897935Y+4584699D01*
X+1816101Y+4502865D01*
X+1816101Y+4475923D01*
X+1720849Y+4380671D01*
X+1720849Y+4839529D01*
X+1936751Y+4623627D01*
G37*
G36*
X+6356351Y+4902915D02*
X+6337301Y+4883865D01*
X+6337301Y+4768135D01*
X+6419135Y+4686301D01*
X+6534865Y+4686301D01*
X+6616699Y+4768135D01*
X+6616699Y+4769679D01*
X+6757227Y+4629151D01*
X+6788151Y+4629151D01*
X+6788151Y+4368773D01*
X+6736599Y+4317221D01*
X+6736599Y+4425576D01*
X+6615576Y+4546599D01*
X+6494023Y+4546599D01*
X+6292849Y+4747773D01*
X+6292849Y+5067301D01*
X+6331665Y+5067301D01*
X+6356351Y+5091987D01*
X+6356351Y+4902915D01*
G37*
G36*
X+8353401Y+4254424D02*
X+8439351Y+4168474D01*
X+8439351Y+4024871D01*
X+8242299Y+4221923D01*
X+8242299Y+4248865D01*
X+8160465Y+4330699D01*
X+8121649Y+4330699D01*
X+8121649Y+4356101D01*
X+8160465Y+4356101D01*
X+8179515Y+4375151D01*
X+8353401Y+4375151D01*
X+8353401Y+4254424D01*
G37*
G36*
X+11029951Y+3961573D02*
X+11024427Y+3956049D01*
X+10126671Y+3956049D01*
X+11002823Y+4832201D01*
X+11029951Y+4832201D01*
X+11029951Y+3961573D01*
G37*
G36*
X+6323401Y+4375977D02*
X+6323401Y+4254424D01*
X+6444424Y+4133401D01*
X+6552779Y+4133401D01*
X+6365977Y+3946599D01*
X+6292849Y+3946599D01*
X+6292849Y+4114085D01*
X+6311899Y+4133135D01*
X+6311899Y+4248865D01*
X+6230065Y+4330699D01*
X+6191249Y+4330699D01*
X+6191249Y+4508129D01*
X+6323401Y+4375977D01*
G37*
G36*
X+1008935Y+4178301D02*
X+1098551Y+4178301D01*
X+1098551Y+3925013D01*
X+1073865Y+3949699D01*
X+958135Y+3949699D01*
X+938704Y+3930268D01*
X+908561Y+3930268D01*
X+779019Y+4059810D01*
X+908561Y+4189352D01*
X+997884Y+4189352D01*
X+1008935Y+4178301D01*
G37*
G36*
X+1440735Y+3898901D02*
X+1460501Y+3898901D01*
X+1460501Y+3854449D01*
X+1421573Y+3854449D01*
X+1416049Y+3859973D01*
X+1416049Y+3923587D01*
X+1440735Y+3898901D01*
G37*
G36*
X+7664424Y+4133401D02*
X+7835576Y+4133401D01*
X+7880351Y+4178176D01*
X+7880351Y+4051299D01*
X+7841535Y+4051299D01*
X+7759701Y+3969465D01*
X+7759701Y+3942523D01*
X+7562849Y+3745671D01*
X+7562849Y+4234976D01*
X+7664424Y+4133401D01*
G37*
G36*
X+11276001Y+4085417D02*
X+11276001Y+3914790D01*
X+11420981Y+3769810D01*
X+11304140Y+3652969D01*
X+10052048Y+3652969D01*
X+10052048Y+3709226D01*
X+10057573Y+3714751D01*
X+11124373Y+3714751D01*
X+11271249Y+3861627D01*
X+11271249Y+4090169D01*
X+11276001Y+4085417D01*
G37*
G36*
X+7880351Y+3570635D02*
X+7827633Y+3623353D01*
X+7781775Y+3623353D01*
X+7880351Y+3721929D01*
X+7880351Y+3570635D01*
G37*
G36*
X+3054351Y+3556715D02*
X+3041649Y+3544013D01*
X+3041649Y+6202901D01*
X+3054351Y+6202901D01*
X+3054351Y+3556715D01*
G37*
G36*
X+3467101Y+4972877D02*
X+3467101Y+4945935D01*
X+3486151Y+4926885D01*
X+3486151Y+4826827D01*
X+3568701Y+4744277D01*
X+3568701Y+4717335D01*
X+3587751Y+4698285D01*
X+3587751Y+4344115D01*
X+3568701Y+4325065D01*
X+3568701Y+4209335D01*
X+3650535Y+4127501D01*
X+3766265Y+4127501D01*
X+3848099Y+4209335D01*
X+3848099Y+4325065D01*
X+3829049Y+4344115D01*
X+3829049Y+4698285D01*
X+3848099Y+4717335D01*
X+3848099Y+4833065D01*
X+3766265Y+4914899D01*
X+3739323Y+4914899D01*
X+3727449Y+4926773D01*
X+3727449Y+4926885D01*
X+3746499Y+4945935D01*
X+3746499Y+5049079D01*
X+3943351Y+4852227D01*
X+3943351Y+4242515D01*
X+3924301Y+4223465D01*
X+3924301Y+4107735D01*
X+4006135Y+4025901D01*
X+4044951Y+4025901D01*
X+4044951Y+3504373D01*
X+4039426Y+3498848D01*
X+3314699Y+3498848D01*
X+3314699Y+3537665D01*
X+3295649Y+3556715D01*
X+3295649Y+5144329D01*
X+3467101Y+4972877D01*
G37*
G36*
X+2139951Y+3453573D02*
X+2128077Y+3441699D01*
X+2101135Y+3441699D01*
X+2076449Y+3417013D01*
X+2076449Y+3455227D01*
X+2139951Y+3518729D01*
X+2139951Y+3453573D01*
G37*
G36*
X+8667751Y+3580573D02*
X+8480649Y+3393471D01*
X+8480649Y+3568474D01*
X+8566599Y+3654424D01*
X+8566599Y+3670301D01*
X+8617665Y+3670301D01*
X+8667751Y+3720387D01*
X+8667751Y+3580573D01*
G37*
G36*
X+8978865Y+3385299D02*
X+8922465Y+3441699D01*
X+8870121Y+3441699D01*
X+8909049Y+3480627D01*
X+8909049Y+3670301D01*
X+8947865Y+3670301D01*
X+8978865Y+3701301D01*
X+8978865Y+3385299D01*
G37*
G36*
X+9810752Y+3346599D02*
X+9721849Y+3346599D01*
X+9721849Y+3580685D01*
X+9740899Y+3599735D01*
X+9740899Y+3715465D01*
X+9665413Y+3790951D01*
X+9810752Y+3790951D01*
X+9810752Y+3346599D01*
G37*
G36*
X+2007425Y+4197352D02*
X+2089151Y+4197352D01*
X+2089151Y+3887027D01*
X+2139951Y+3836227D01*
X+2139951Y+3822699D01*
X+2075735Y+3822699D01*
X+1993901Y+3740865D01*
X+1993901Y+3713923D01*
X+1835151Y+3555173D01*
X+1835151Y+3187699D01*
X+1770935Y+3187699D01*
X+1751885Y+3168649D01*
X+1345373Y+3168649D01*
X+1339849Y+3174173D01*
X+1339849Y+3613151D01*
X+1537529Y+3613151D01*
X+1493077Y+3568699D01*
X+1466135Y+3568699D01*
X+1384301Y+3486865D01*
X+1384301Y+3371135D01*
X+1466135Y+3289301D01*
X+1581865Y+3289301D01*
X+1663699Y+3371135D01*
X+1663699Y+3398077D01*
X+1924049Y+3658427D01*
X+1924049Y+4242627D01*
X+1943100Y+4261678D01*
X+2007425Y+4197352D01*
G37*
G36*
X+8724901Y+3267274D02*
X+8710298Y+3281876D01*
X+8724901Y+3296479D01*
X+8724901Y+3267274D01*
G37*
G36*
X+5391151Y+6679373D02*
X+5391151Y+5385627D01*
X+5538027Y+5238751D01*
X+5702301Y+5238751D01*
X+5702301Y+5149135D01*
X+5721351Y+5130085D01*
X+5721351Y+3759915D01*
X+5702301Y+3740865D01*
X+5702301Y+3713923D01*
X+5695951Y+3707573D01*
X+5695951Y+3263071D01*
X+5409373Y+3549649D01*
X+5022849Y+3549649D01*
X+5022849Y+6146085D01*
X+5041899Y+6165135D01*
X+5041899Y+6280865D01*
X+4960065Y+6362699D01*
X+4844335Y+6362699D01*
X+4762501Y+6280865D01*
X+4762501Y+6165135D01*
X+4781551Y+6146085D01*
X+4781551Y+3505915D01*
X+4762501Y+3486865D01*
X+4762501Y+3371135D01*
X+4844335Y+3289301D01*
X+4960065Y+3289301D01*
X+4979115Y+3308351D01*
X+5309427Y+3308351D01*
X+5353879Y+3263899D01*
X+5326935Y+3263899D01*
X+5245101Y+3182065D01*
X+5245101Y+3066335D01*
X+5264151Y+3047285D01*
X+5264151Y+1931115D01*
X+5245101Y+1912065D01*
X+5245101Y+1885123D01*
X+5022849Y+1662871D01*
X+5022849Y+2361485D01*
X+5041899Y+2380535D01*
X+5041899Y+2496265D01*
X+4960065Y+2578099D01*
X+4844335Y+2578099D01*
X+4819649Y+2553413D01*
X+4819649Y+2666285D01*
X+4838699Y+2685335D01*
X+4838699Y+2801065D01*
X+4756865Y+2882899D01*
X+4686299Y+2882899D01*
X+4686299Y+2928065D01*
X+4604465Y+3009899D01*
X+4488735Y+3009899D01*
X+4438649Y+2959813D01*
X+4438649Y+6706427D01*
X+4444173Y+6711951D01*
X+5423729Y+6711951D01*
X+5391151Y+6679373D01*
G37*
G36*
X+6051551Y+3213099D02*
X+6012735Y+3213099D01*
X+5993685Y+3194049D01*
X+5956299Y+3194049D01*
X+5956299Y+3232865D01*
X+5937249Y+3251915D01*
X+5937249Y+3580685D01*
X+5981699Y+3625135D01*
X+5981699Y+3740865D01*
X+5962649Y+3759915D01*
X+5962649Y+3924301D01*
X+6026865Y+3924301D01*
X+6051551Y+3948987D01*
X+6051551Y+3213099D01*
G37*
G36*
X+2451101Y+4541077D02*
X+2451101Y+4514135D01*
X+2532935Y+4432301D01*
X+2647951Y+4432301D01*
X+2647951Y+4242515D01*
X+2628901Y+4223465D01*
X+2628901Y+4107735D01*
X+2710735Y+4025901D01*
X+2800351Y+4025901D01*
X+2800351Y+3404427D01*
X+2807529Y+3397249D01*
X+2591627Y+3397249D01*
X+2279649Y+3085271D01*
X+2279649Y+3225085D01*
X+2298699Y+3244135D01*
X+2298699Y+3271077D01*
X+2381249Y+3353627D01*
X+2381249Y+3936173D01*
X+2330449Y+3986973D01*
X+2330449Y+4241085D01*
X+2349499Y+4260135D01*
X+2349499Y+4375865D01*
X+2267665Y+4457699D01*
X+2266121Y+4457699D01*
X+2400300Y+4591878D01*
X+2451101Y+4541077D01*
G37*
G36*
X+7642825Y+2955000D02*
X+7639049Y+2951224D01*
X+7639049Y+2958776D01*
X+7642825Y+2955000D01*
G37*
G36*
X+7880351Y+2931824D02*
X+7857175Y+2955000D01*
X+7880351Y+2978176D01*
X+7880351Y+2931824D01*
G37*
G36*
X+1245427Y+2927351D02*
X+1409701Y+2927351D01*
X+1409701Y+2889249D01*
X+1238249Y+2889249D01*
X+1238249Y+2934529D01*
X+1245427Y+2927351D01*
G37*
G36*
X+2038351Y+2870915D02*
X+2019301Y+2851865D01*
X+2019301Y+2801063D01*
X+2013665Y+2806699D01*
X+1935921Y+2806699D01*
X+2038351Y+2909129D01*
X+2038351Y+2870915D01*
G37*
G36*
X+1878885Y+2787649D02*
X+1613613Y+2787649D01*
X+1626315Y+2800351D01*
X+1891587Y+2800351D01*
X+1878885Y+2787649D01*
G37*
G36*
X+7880351Y+1893013D02*
X+7804865Y+1968499D01*
X+7689135Y+1968499D01*
X+7639049Y+1918413D01*
X+7639049Y+2588776D01*
X+7664424Y+2563401D01*
X+7835576Y+2563401D01*
X+7880351Y+2608176D01*
X+7880351Y+1893013D01*
G37*
G36*
X+7282735Y+2806701D02*
X+7321551Y+2806701D01*
X+7321551Y+2578099D01*
X+7282735Y+2578099D01*
X+7252385Y+2547749D01*
X+7252385Y+2837051D01*
X+7282735Y+2806701D01*
G37*
G36*
X+8225402Y+3897576D02*
X+8153401Y+3825576D01*
X+8153401Y+3654424D01*
X+8239351Y+3568474D01*
X+8239351Y+2499213D01*
X+8160465Y+2578099D01*
X+8121649Y+2578099D01*
X+8121649Y+4001329D01*
X+8225402Y+3897576D01*
G37*
G36*
X+8239351Y+2341526D02*
X+8223249Y+2325424D01*
X+8223249Y+2361485D01*
X+8239351Y+2377587D01*
X+8239351Y+2341526D01*
G37*
G36*
X+6918865Y+2016299D02*
X+6839665Y+2095499D01*
X+6800848Y+2095499D01*
X+6800848Y+3039774D01*
X+6736599Y+3104023D01*
X+6736599Y+3225576D01*
X+6615576Y+3346599D01*
X+6450649Y+3346599D01*
X+6450649Y+3568474D01*
X+6536599Y+3654424D01*
X+6536599Y+3775977D01*
X+6918865Y+4158243D01*
X+6918865Y+2016299D01*
G37*
G36*
X+8591551Y+1776599D02*
X+8524023Y+1776599D01*
X+8452773Y+1847849D01*
X+8279573Y+1847849D01*
X+8223249Y+1904173D01*
X+8223249Y+2014576D01*
X+8274424Y+1963401D01*
X+8445576Y+1963401D01*
X+8566599Y+2084424D01*
X+8566599Y+2255576D01*
X+8480649Y+2341526D01*
X+8480649Y+2563401D01*
X+8591551Y+2563401D01*
X+8591551Y+1776599D01*
G37*
G36*
X+6051551Y+2081973D02*
X+5854699Y+1885121D01*
X+5854699Y+1912065D01*
X+5835649Y+1931115D01*
X+5835649Y+2667827D01*
X+6051551Y+2883729D01*
X+6051551Y+2081973D01*
G37*
G36*
X+5629689Y+2988089D02*
X+5665027Y+2952751D01*
X+5779329Y+2952751D01*
X+5594351Y+2767773D01*
X+5594351Y+1931115D01*
X+5575301Y+1912065D01*
X+5575301Y+1885123D01*
X+5524499Y+1834321D01*
X+5524499Y+1912065D01*
X+5505449Y+1931115D01*
X+5505449Y+3047285D01*
X+5524499Y+3066335D01*
X+5524499Y+3093279D01*
X+5629689Y+2988089D01*
G37*
G36*
X+9810752Y+1776599D02*
X+9721849Y+1776599D01*
X+9721849Y+2563401D01*
X+9810752Y+2563401D01*
X+9810752Y+1776599D01*
G37*
G36*
X+6918865Y+1455957D02*
X+6902449Y+1472373D01*
X+6902449Y+1878885D01*
X+6918865Y+1895301D01*
X+6918865Y+1455957D01*
G37*
G36*
X+11420981Y+3269430D02*
X+11276001Y+3124450D01*
X+11276001Y+2914030D01*
X+11419711Y+2770320D01*
X+11276001Y+2626610D01*
X+11276001Y+2416190D01*
X+11390301Y+2301890D01*
X+11390301Y+2240530D01*
X+11276001Y+2126230D01*
X+11276001Y+1915810D01*
X+11360212Y+1831599D01*
X+11161642Y+1831599D01*
X+11008401Y+1678358D01*
X+11008401Y+1461642D01*
X+11039455Y+1430588D01*
X+10239333Y+1430588D01*
X+10229849Y+1421104D01*
X+10229849Y+3148885D01*
X+10248899Y+3167935D01*
X+10248899Y+3283665D01*
X+10167065Y+3365499D01*
X+10143349Y+3365499D01*
X+10143349Y+3386271D01*
X+11304140Y+3386271D01*
X+11420981Y+3269430D01*
G37*
G36*
X+7861301Y+1364535D02*
X+7915276Y+1310560D01*
X+7915276Y+1282699D01*
X+7892335Y+1282699D01*
X+7873285Y+1263649D01*
X+7639049Y+1263649D01*
X+7639049Y+1388776D01*
X+7664424Y+1363401D01*
X+7835576Y+1363401D01*
X+7861301Y+1389126D01*
X+7861301Y+1364535D01*
G37*
G36*
X+8743951Y+1295400D02*
X+8743951Y+1263649D01*
X+8685973Y+1263649D01*
X+8586221Y+1363401D01*
X+8645576Y+1363401D01*
X+8743951Y+1461776D01*
X+8743951Y+1295400D01*
G37*
G36*
X+7219951Y+1212849D02*
X+7217698Y+1212849D01*
X+7219951Y+1215102D01*
X+7219951Y+1212849D01*
G37*
G36*
X+4273552Y+1198230D02*
X+4192802Y+1278980D01*
X+4273552Y+1359730D01*
X+4273552Y+1198230D01*
G37*
G36*
X+6661151Y+1372427D02*
X+6871529Y+1162049D01*
X+6679373Y+1162049D01*
X+6650649Y+1190773D01*
X+6650649Y+1398474D01*
X+6661151Y+1408976D01*
X+6661151Y+1372427D01*
G37*
G36*
X+9810752Y+1116774D02*
X+9805227Y+1111249D01*
X+9740899Y+1111249D01*
X+9740899Y+1226265D01*
X+9721849Y+1245315D01*
X+9721849Y+1363401D01*
X+9810752Y+1363401D01*
X+9810752Y+1116774D01*
G37*
G36*
X+5441952Y+1080212D02*
X+5429249Y+1092915D01*
X+5429249Y+1397827D01*
X+5441952Y+1410530D01*
X+5441952Y+1080212D01*
G37*
G36*
X+6559552Y+1776599D02*
X+6444424Y+1776599D01*
X+6323401Y+1655576D01*
X+6323401Y+1484424D01*
X+6409351Y+1398474D01*
X+6409351Y+1104899D01*
X+6393735Y+1104899D01*
X+6311901Y+1023065D01*
X+6311901Y+984249D01*
X+5891973Y+984249D01*
X+5886449Y+989773D01*
X+5886449Y+1079501D01*
X+5950665Y+1079501D01*
X+5969715Y+1098551D01*
X+6222173Y+1098551D01*
X+6279323Y+1155701D01*
X+6306265Y+1155701D01*
X+6388099Y+1237535D01*
X+6388099Y+1353265D01*
X+6306265Y+1435099D01*
X+6190535Y+1435099D01*
X+6108701Y+1353265D01*
X+6108701Y+1339849D01*
X+5969715Y+1339849D01*
X+5950665Y+1358899D01*
X+5905499Y+1358899D01*
X+5905499Y+1378665D01*
X+5823665Y+1460499D01*
X+5771321Y+1460499D01*
X+6274223Y+1963401D01*
X+6415576Y+1963401D01*
X+6536599Y+2084424D01*
X+6536599Y+2255576D01*
X+6450649Y+2341526D01*
X+6450649Y+2563401D01*
X+6559552Y+2563401D01*
X+6559552Y+1776599D01*
G37*
G36*
X+9007889Y+999711D02*
X+8972551Y+964373D01*
X+8972551Y+868031D01*
X+8818231Y+1022351D01*
X+9030529Y+1022351D01*
X+9007889Y+999711D01*
G37*
G36*
X+7397751Y+837373D02*
X+7392227Y+831849D01*
X+7290515Y+831849D01*
X+7277813Y+844551D01*
X+7397751Y+844551D01*
X+7397751Y+837373D01*
G37*
G36*
X+4679951Y+826739D02*
X+4627091Y+879599D01*
X+4514848Y+879599D01*
X+4514848Y+1550226D01*
X+4577523Y+1612901D01*
X+4604465Y+1612901D01*
X+4679951Y+1688387D01*
X+4679951Y+826739D01*
G37*
G36*
X+5441952Y+766738D02*
X+5332389Y+876301D01*
X+5366465Y+876301D01*
X+5441952Y+951788D01*
X+5441952Y+766738D01*
G37*
G36*
X+7073901Y+769065D02*
X+7073901Y+654049D01*
X+6630115Y+654049D01*
X+6622599Y+661565D01*
X+6622599Y+742951D01*
X+6679485Y+742951D01*
X+6698535Y+723901D01*
X+6814265Y+723901D01*
X+6896099Y+805735D01*
X+6896099Y+844551D01*
X+7149387Y+844551D01*
X+7073901Y+769065D01*
G37*
G36*
X+11379731Y+762827D02*
X+11379731Y+718560D01*
X+11360149Y+698978D01*
X+11360149Y+723185D01*
X+11366499Y+729535D01*
X+11366499Y+768351D01*
X+11374207Y+768351D01*
X+11379731Y+762827D01*
G37*
G36*
X+416001Y+836243D02*
X+273049Y+693291D01*
X+273049Y+991427D01*
X+278573Y+996951D01*
X+416001Y+996951D01*
X+416001Y+836243D01*
G37*
G36*
X+11087101Y+733999D02*
X+10894790Y+733999D01*
X+10839449Y+678658D01*
X+10839449Y+712027D01*
X+10895773Y+768351D01*
X+11087101Y+768351D01*
X+11087101Y+733999D01*
G37*
G36*
X+9876651Y+667233D02*
X+9876167Y+666749D01*
X+9631599Y+666749D01*
X+9631599Y+869951D01*
X+9876651Y+869951D01*
X+9876651Y+667233D01*
G37*
G36*
X+8879219Y+584199D02*
X+8637803Y+584199D01*
X+8635999Y+586003D01*
X+8635999Y+827419D01*
X+8879219Y+584199D01*
G37*
G36*
X+5187951Y+1092915D02*
X+5168901Y+1073865D01*
X+5168901Y+958135D01*
X+5247437Y+879599D01*
X+5162909Y+879599D01*
X+5045401Y+762091D01*
X+5045401Y+606564D01*
X+5022848Y+584011D01*
X+5022848Y+800101D01*
X+5061665Y+800101D01*
X+5143499Y+881935D01*
X+5143499Y+997665D01*
X+5124449Y+1016715D01*
X+5124449Y+1423227D01*
X+5187951Y+1486729D01*
X+5187951Y+1092915D01*
G37*
G36*
X+10239333Y+1097068D02*
X+10322904Y+1097068D01*
X+10248901Y+1023065D01*
X+10248901Y+907335D01*
X+10330735Y+825501D01*
X+10446465Y+825501D01*
X+10465515Y+844551D01*
X+10630729Y+844551D01*
X+10598151Y+811973D01*
X+10598151Y+733999D01*
X+10394410Y+733999D01*
X+10245621Y+585210D01*
X+10245621Y+396623D01*
X+10229849Y+380851D01*
X+10229849Y+1106552D01*
X+10239333Y+1097068D01*
G37*
G36*
X+8404827Y+1058591D02*
X+8369301Y+1023065D01*
X+8369301Y+907335D01*
X+8382001Y+894635D01*
X+8382001Y+501649D01*
X+8357427Y+501649D01*
X+8230427Y+374649D01*
X+8191499Y+374649D01*
X+8191499Y+413465D01*
X+8172449Y+432515D01*
X+8172449Y+813627D01*
X+8184323Y+825501D01*
X+8262065Y+825501D01*
X+8343899Y+907335D01*
X+8343899Y+1023065D01*
X+8312149Y+1054815D01*
X+8312149Y+1116773D01*
X+8289924Y+1138998D01*
X+8289924Y+1173494D01*
X+8404827Y+1058591D01*
G37*
G36*
X+7758987Y+374649D02*
X+7708871Y+374649D01*
X+7733929Y+399707D01*
X+7758987Y+374649D01*
G37*
G36*
X+6221401Y+607564D02*
X+6118401Y+504564D01*
X+6118401Y+374649D01*
X+6023599Y+374649D01*
X+6023599Y+504564D01*
X+5920599Y+607564D01*
X+5920599Y+742951D01*
X+6221401Y+742951D01*
X+6221401Y+607564D01*
G37*
G36*
X+5441952Y+330200D02*
X+5441952Y+298449D01*
X+5239612Y+298449D01*
X+5297599Y+356436D01*
X+5297599Y+478401D01*
X+5329091Y+478401D01*
X+5441952Y+591262D01*
X+5441952Y+330200D01*
G37*
G36*
X+10592627Y+222249D02*
X+10412491Y+222249D01*
X+10416243Y+226001D01*
X+10596379Y+226001D01*
X+10592627Y+222249D01*
G37*
G36*
X+768351Y+583485D02*
X+768351Y+178515D01*
X+761599Y+171763D01*
X+761599Y+276599D01*
X+656599Y+276599D01*
X+656599Y+393401D01*
X+761599Y+393401D01*
X+761599Y+590237D01*
X+768351Y+583485D01*
G37*
D10*
X+1524000Y+3429000D02*
X+1803400Y+3708400D01*
X+1803400Y+4292600D01*
X+1955800Y+4445000D01*
X+1549400Y+2921000D02*
X+1879600Y+2921000D01*
X+1955800Y+2997200D01*
X+1955800Y+3505200D01*
X+2133600Y+3683000D01*
X+1600200Y+3911600D02*
X+1600200Y+5105400D01*
X+1676400Y+5181600D01*
X+2184400Y+5181600D01*
X+3251200Y+7518400D02*
X+3429000Y+7340600D01*
X+3429000Y+5435600D01*
X+2971800Y+7543800D02*
X+3022600Y+7493000D01*
X+3022600Y+7315200D01*
X+3175000Y+7162800D01*
X+3175000Y+3479800D01*
X+2667000Y+7518400D02*
X+1981200Y+7518400D01*
X+1905000Y+7442200D01*
X+1905000Y+6934200D01*
X+1295400Y+6324600D01*
X+1295400Y+3810000D01*
X+1371600Y+3733800D01*
X+1701800Y+3733800D01*
X+5384800Y+1854200D02*
X+5003800Y+1473200D01*
X+5003800Y+939800D01*
X+5384800Y+1854200D02*
X+5384800Y+3124200D01*
X+6781800Y+1955800D02*
X+6781800Y+1422400D01*
X+7035800Y+1168400D01*
X+10109200Y+3225800D02*
X+10109200Y+381000D01*
X+10033000Y+304800D01*
X+9017000Y+304800D01*
X+8940800Y+381000D01*
X+8407400Y+381000D01*
X+8280400Y+254000D01*
X+5638800Y+254000D01*
X+5562600Y+330200D01*
X+5562600Y+1422400D01*
X+6172200Y+2032000D01*
X+6172200Y+4191000D01*
X+9601200Y+1168400D02*
X+9601200Y+3657600D01*
X+5765800Y+1320800D02*
X+5765800Y+939800D01*
X+5842000Y+863600D01*
X+6756400Y+863600D01*
X+7950200Y+1143000D02*
X+7670800Y+1143000D01*
X+7594600Y+1066800D01*
X+7594600Y+609600D01*
X+7518400Y+533400D01*
X+6553200Y+533400D01*
X+7340600Y+6223000D02*
X+7340600Y+5562600D01*
X+7442200Y+4495800D02*
X+7442200Y+1041400D01*
X+7366000Y+965200D01*
X+6451600Y+965200D01*
X+9601200Y+5130800D02*
X+8673200Y+5130800D01*
X+8597000Y+5054600D01*
X+8597000Y+4583800D01*
X+8509000Y+4495800D01*
X+8102600Y+4495800D01*
X+9804400Y+6019800D02*
X+9804400Y+6781800D01*
X+889000Y+660400D02*
X+889000Y+101600D01*
X+152400Y+330200D02*
X+152400Y+1041400D01*
X+228600Y+1117600D01*
X+812800Y+1117600D01*
X+889000Y+1041400D01*
X+889000Y+660400D01*
X+990600Y+533400D02*
X+990600Y+101600D01*
X+2235200Y+6045200D02*
X+2235200Y+6146800D01*
X+2159000Y+6223000D01*
X+2159000Y+6400800D01*
X+2030000Y+6529800D01*
X+2030000Y+7130000D01*
X+1828800Y+3048000D02*
X+1295400Y+3048000D01*
X+1219200Y+3124200D01*
X+1219200Y+5443420D01*
X+1143000Y+5519620D01*
X+670000Y+5519620D01*
X+2514600Y+1498600D02*
X+2514600Y+2997200D01*
X+2768600Y+4165600D02*
X+2768600Y+5105400D01*
X+3733800Y+5232400D02*
X+4064000Y+4902200D01*
X+4064000Y+4165600D01*
X+2768600Y+5384800D02*
X+2768600Y+5105400D01*
X+2768600Y+5384800D02*
X+2768600Y+6096000D01*
X+2792000Y+6119400D01*
X+2792000Y+6368000D01*
X+4699000Y+2743200D02*
X+4699000Y+1854200D01*
X+2284000Y+6368000D02*
X+2413000Y+6239000D01*
X+2413000Y+4749800D01*
X+2590800Y+4572000D01*
X+7950200Y+6553200D02*
X+7975600Y+6527800D01*
X+7975600Y+5435600D01*
X+1498600Y+5892800D02*
X+1498600Y+4038600D01*
X+11010000Y+5010000D02*
X+9911600Y+3911600D01*
X+9448800Y+3911600D01*
X+9372600Y+3987800D01*
X+9372600Y+4749800D01*
X+8864600Y+4749800D01*
X+8788400Y+4673600D01*
X+8788400Y+3530600D01*
X+8560000Y+3302200D01*
X+8560000Y+3140000D01*
X+1955800Y+2667000D02*
X+1955800Y+2311400D01*
X+1981200Y+2286000D01*
X+1981200Y+1397000D01*
X+1905000Y+1320800D01*
X+6530000Y+1570000D02*
X+6530000Y+1140800D01*
X+6629400Y+1041400D01*
X+7188200Y+1041400D01*
X+7239000Y+1092200D01*
X+7340600Y+1092200D01*
X+6530000Y+3140000D02*
X+6680200Y+2989800D01*
X+6680200Y+1720200D01*
X+6530000Y+1570000D01*
X+5842000Y+3683000D02*
X+5842000Y+5207000D01*
X+8560000Y+3140000D02*
X+8712200Y+2987800D01*
X+8712200Y+1722200D01*
X+8560000Y+1570000D01*
X+8204200Y+965200D02*
X+8191500Y+977900D01*
X+8191500Y+1066800D01*
X+8169275Y+1089025D01*
X+8169275Y+1549400D01*
X+8102600Y+1616075D01*
X+8102600Y+1727200D01*
X+8229600Y+1727200D01*
X+8560000Y+1570000D02*
X+8402800Y+1727200D01*
X+8229600Y+1727200D01*
X+1244600Y+2667000D02*
X+1117600Y+2794000D01*
X+1117600Y+3200400D01*
X+7340600Y+1193800D02*
X+7340600Y+1092200D01*
X+1117600Y+3200400D02*
X+1117600Y+3302000D01*
X+5816600Y+3175000D02*
X+5816600Y+3657600D01*
X+5842000Y+3683000D01*
X+7340600Y+1193800D02*
X+7340600Y+2438400D01*
X+8229600Y+1727200D02*
X+8102600Y+1854200D01*
X+8102600Y+2438400D01*
X+1244600Y+2667000D02*
X+1244600Y+2730500D01*
X+1282700Y+2768600D01*
X+1397000Y+2768600D01*
X+1473200Y+2692400D01*
X+1473200Y+2667000D01*
X+6248400Y+5207000D02*
X+6273800Y+5207000D01*
X+6477000Y+7239000D02*
X+6273800Y+7035800D01*
X+6273800Y+6578600D01*
X+6248400Y+6553200D01*
X+6248400Y+5207000D01*
X+1117600Y+3683000D02*
X+1117600Y+3302000D01*
X+1473200Y+2667000D02*
X+1955800Y+2667000D01*
X+9144000Y+6146800D02*
X+9144000Y+6299200D01*
X+9067800Y+6375400D01*
X+8890000Y+6375400D01*
X+8890000Y+6324600D02*
X+8890000Y+6248400D01*
X+8712200Y+6248400D01*
X+8636000Y+6324600D01*
X+8636000Y+6883400D01*
X+7620000Y+5359400D02*
X+7620000Y+6883400D01*
X+4013200Y+5588000D02*
X+4001200Y+5600000D01*
X+3840000Y+5600000D01*
X+8890000Y+6324600D02*
X+8890000Y+6375400D01*
X+7035800Y+5156200D02*
X+7035800Y+6426200D01*
X+6832600Y+6629400D01*
X+9474200Y+5232400D02*
X+8509000Y+5232400D01*
X+8432800Y+5156200D01*
X+7137400Y+5257800D02*
X+7137400Y+6807200D01*
X+7188200Y+6858000D01*
X+6330000Y+3740000D02*
X+6908800Y+4318800D01*
X+6908800Y+4597400D01*
X+6985000Y+4673600D01*
X+7162800Y+4673600D01*
X+7239000Y+4597400D01*
X+7239000Y+4165600D01*
X+8360000Y+3740000D02*
X+8360000Y+3933600D01*
X+8102600Y+4191000D01*
X+8360000Y+3740000D02*
X+8360000Y+2170000D01*
X+6330000Y+3740000D02*
X+6330000Y+2170000D01*
D50*
X+11530000Y+2021020D02*
X+11530000Y+2521400D01*
D10*
X+7458000Y+7240000D02*
X+6808200Y+7240000D01*
X+6731000Y+7162800D01*
X+6731000Y+6477000D01*
X+6934200Y+6273800D01*
X+6934200Y+4902200D01*
X+7010400Y+4826000D01*
X+7924800Y+4826000D01*
X+8001000Y+4749800D01*
X+8001000Y+1574800D01*
X+8102600Y+1473200D01*
X+8102600Y+914400D01*
X+8051800Y+863600D01*
X+8051800Y+355600D01*
X+7458000Y+7240000D02*
X+7458000Y+7442200D01*
X+7454000Y+7446200D01*
X+7454000Y+7760000D01*
X+8220000Y+7240000D02*
X+8220000Y+6689800D01*
X+8229600Y+6680200D01*
X+8220000Y+7240000D02*
X+8220000Y+7442200D01*
X+8216000Y+7446200D01*
X+8216000Y+7760000D01*
X+8474000Y+7240000D02*
X+8474000Y+7442200D01*
X+8470000Y+7446200D01*
X+8470000Y+7760000D01*
X+9236000Y+7240000D02*
X+9236000Y+7442200D01*
X+9232000Y+7446200D01*
X+9232000Y+7760000D01*
X+2921000Y+7442200D02*
X+2921000Y+7340600D01*
X+3048000Y+7797800D02*
X+2997200Y+7797800D01*
X+2870200Y+7924800D01*
X+2616200Y+7924800D01*
X+2565400Y+7874000D01*
X+9486000Y+7760000D02*
X+9486000Y+7569200D01*
X+9490000Y+7565200D01*
X+9490000Y+7240000D01*
X+6375400Y+5943600D02*
X+6375400Y+6896100D01*
X+6413500Y+6934200D01*
X+6477000Y+6934200D01*
X+3048000Y+7797800D02*
X+3987800Y+7797800D01*
X+4064000Y+7721600D01*
X+4064000Y+5943600D01*
X+2921000Y+7340600D02*
X+2921000Y+6908800D01*
X+3046000Y+6783800D01*
X+3046000Y+6368000D01*
X+3048000Y+7797800D02*
X+2870200Y+7620000D01*
X+2870200Y+7493000D01*
X+2921000Y+7442200D01*
X+9744000Y+7240000D02*
X+9744000Y+7518400D01*
X+9740000Y+7522400D01*
X+9740000Y+7760000D01*
X+8001000Y+1422400D02*
X+8035925Y+1387475D01*
X+8035925Y+1041400D01*
X+7747000Y+1041400D01*
X+7670800Y+965200D01*
X+7670800Y+507200D01*
X+7594600Y+431000D01*
X+6296000Y+431000D01*
X+9499600Y+3810000D02*
X+9499600Y+1219200D01*
X+9423400Y+1143000D01*
X+8636000Y+1143000D01*
X+8356600Y+1422400D01*
X+9744000Y+7240000D02*
X+9906000Y+7078000D01*
X+9906000Y+5765800D01*
X+9867000Y+5726800D01*
X+9867000Y+4749800D01*
X+9626600Y+4509400D01*
X+9626600Y+4140200D01*
X+9499600Y+4013200D01*
X+9998000Y+7240000D02*
X+9998000Y+7518400D01*
X+9994000Y+7522400D01*
X+9994000Y+7760000D01*
X+7239000Y+5664200D02*
X+7239000Y+6578600D01*
X+9998000Y+7240000D02*
X+9998000Y+6400800D01*
X+9982200Y+6385000D01*
X+9982200Y+5638800D01*
X+1066800Y+4318000D02*
X+1058800Y+4310000D01*
X+670000Y+4310000D01*
X+1016000Y+3810000D02*
X+1015620Y+3809620D01*
X+670000Y+3809620D01*
X+7213600Y+711200D02*
X+7442200Y+711200D01*
X+7518400Y+787400D01*
X+7518400Y+3530600D01*
X+7899400Y+3911600D01*
X+330200Y+431800D02*
X+330200Y+254000D01*
X+1371600Y+431800D02*
X+1371600Y+254000D01*
X+1498600Y+1219200D02*
X+1371600Y+1092200D01*
X+1371600Y+914400D01*
X+8982000Y+7240000D02*
X+8727000Y+6985000D01*
X+8534400Y+6985000D01*
X+8458200Y+6908800D01*
X+8458200Y+6045200D01*
X+10760000Y+7240000D02*
X+10760000Y+6426200D01*
X+10515600Y+6181800D01*
X+10515600Y+5943600D01*
X+5960000Y+7078000D02*
X+5960000Y+6883400D01*
X+5906200Y+6883400D01*
X+5830000Y+6807200D01*
X+5830000Y+5600000D01*
X+670000Y+919620D02*
X+330200Y+579820D01*
X+330200Y+431800D01*
X+2159000Y+2794000D02*
X+2641600Y+3276600D01*
X+3606800Y+3276600D01*
X+4038600Y+3276600D01*
X+4546600Y+1752600D02*
X+4546600Y+2311400D01*
X+5960000Y+7078000D02*
X+6121400Y+7078000D01*
X+6121400Y+7366000D01*
X+6197600Y+7442200D01*
X+6781800Y+7442200D01*
X+2209800Y+4318000D02*
X+2209800Y+3937000D01*
X+2260600Y+3886200D01*
X+2260600Y+3403600D01*
X+2159000Y+3302000D01*
X+2209800Y+4318000D02*
X+2057400Y+4318000D01*
X+2057400Y+4419600D01*
X+3606800Y+5003800D02*
X+3276600Y+5334000D01*
X+3276600Y+5537200D01*
X+3606800Y+3048000D02*
X+3606800Y+2844800D01*
X+3505200Y+2743200D01*
X+4970000Y+7600000D02*
X+5201600Y+7600000D01*
X+5207000Y+7594600D01*
X+3606800Y+5003800D02*
X+3606800Y+4876800D01*
X+3708400Y+4775200D01*
X+3276600Y+5537200D02*
X+3276600Y+5791200D01*
X+3300000Y+5814600D01*
X+3300000Y+6368000D01*
X+8534400Y+5943600D02*
X+8534400Y+6007100D01*
X+8496300Y+6045200D01*
X+8458200Y+6045200D01*
X+2057400Y+4419600D02*
X+2057400Y+4673600D01*
X+1701800Y+5029200D01*
X+670000Y+5019240D02*
X+1056840Y+5019240D01*
X+1066800Y+5029200D01*
X+4546600Y+2311400D02*
X+4546600Y+2870200D01*
X+3606800Y+3048000D02*
X+3606800Y+3276600D01*
X+3849620Y+7600000D02*
X+3849620Y+7391400D01*
X+3987800Y+7253220D01*
X+3987800Y+6731000D01*
X+3606800Y+6350000D01*
X+3606800Y+5003800D01*
X+10756000Y+7760000D02*
X+10947400Y+7568600D01*
X+10947400Y+7427400D01*
X+10760000Y+7240000D01*
X+8982000Y+7240000D02*
X+8982000Y+7442200D01*
X+8978000Y+7446200D01*
X+8978000Y+7760000D01*
X+670000Y+6099240D02*
X+965200Y+6394440D01*
X+965200Y+6884040D01*
X+670000Y+7179240D01*
X+670000Y+5019240D02*
X+381000Y+5308240D01*
X+381000Y+5810240D01*
X+670000Y+6099240D01*
X+1371600Y+431800D02*
X+1371600Y+914400D01*
X+3708400Y+4775200D02*
X+3708400Y+4267200D01*
X+2159000Y+3302000D02*
X+2159000Y+2794000D01*
X+2159000Y+1295400D01*
X+2082800Y+1219200D01*
X+1498600Y+1219200D01*
X+1371600Y+1219200D01*
X+1371600Y+1244600D01*
X+1320800Y+1295400D01*
X+8534400Y+5816600D02*
X+8534400Y+5943600D01*
X+4670000Y+430000D02*
X+4472200Y+430000D01*
X+4394200Y+508000D01*
X+4394200Y+1600200D01*
X+4546600Y+1752600D01*
X+1371600Y+431800D02*
X+1524000Y+431800D01*
X+1524000Y+254000D01*
X+2057400Y+4419600D02*
X+2286000Y+4648200D01*
X+2286000Y+5537200D01*
X+8940800Y+5715000D02*
X+8432800Y+5715000D01*
X+8356600Y+5791200D01*
X+8356600Y+6324600D01*
X+8890000Y+279400D02*
X+8991600Y+177800D01*
X+10197420Y+177800D01*
X+10499620Y+480000D01*
X+8890000Y+279400D02*
X+8788400Y+177800D01*
X+4978400Y+177800D01*
X+4902200Y+254000D01*
X+4902200Y+2438400D01*
X+6248400Y+1295400D02*
X+6172200Y+1219200D01*
X+5892800Y+1219200D01*
X+7848600Y+939800D02*
X+7848600Y+482600D01*
X+10998200Y+203200D02*
X+11000000Y+205000D01*
X+11000000Y+480000D01*
X+4826000Y+7289800D02*
X+5160180Y+7289800D01*
X+5470380Y+7600000D01*
D11*
X+7772400Y+3479800D02*
X+7772400Y+3490004D01*
X+7750000Y+3490004D01*
X+7750000Y+3140000D01*
X+10134600Y+4876800D02*
X+10298800Y+4876800D01*
X+10375000Y+4953000D01*
X+10375000Y+5193400D01*
X+10464800Y+5283200D01*
X+11150600Y+5283200D01*
X+11226800Y+5207000D01*
X+11226800Y+4323200D01*
X+11530000Y+4020000D01*
D10*
X+10845800Y+889000D02*
X+11424180Y+889000D01*
X+11500380Y+812800D01*
X+11500380Y+480000D01*
X+10845800Y+889000D02*
X+10718800Y+762000D01*
X+10718800Y+177800D01*
X+10642600Y+101600D01*
X+4876800Y+101600D01*
X+4800600Y+177800D01*
X+4800600Y+2235200D01*
X+10718800Y+965200D02*
X+10795000Y+889000D01*
X+10845800Y+889000D01*
X+10718800Y+965200D02*
X+10388600Y+965200D01*
X+8890000Y+3810000D02*
X+8890000Y+4597400D01*
X+8966200Y+4673600D01*
X+9296400Y+4673600D01*
X+9296400Y+2946400D01*
X+8560000Y+4340000D02*
X+8560000Y+3810200D01*
X+8559800Y+3810000D01*
X+6070600Y+6578600D02*
X+6070600Y+4165600D01*
X+5969000Y+4064000D01*
X+8864600Y+3302000D02*
X+8864600Y+1295400D01*
X+8940800Y+1219200D01*
X+9321800Y+1219200D01*
X+9398000Y+1295400D01*
X+9398000Y+3479800D01*
X+6530000Y+4340000D02*
X+6172200Y+4697800D01*
X+6172200Y+6705600D01*
X+6019800Y+6705600D01*
X+6477000Y+4826000D02*
X+6477000Y+6832600D01*
X+9474200Y+4114800D02*
X+9474200Y+4749800D01*
X+9398000Y+4826000D01*
X+8686800Y+4826000D01*
X+6731000Y+5588000D02*
X+6731000Y+4826000D01*
X+6807200Y+4749800D01*
X+7264400Y+4749800D01*
X+7340600Y+4673600D01*
X+7340600Y+2946400D01*
X+8559800Y+2946400D02*
X+8560000Y+2946200D01*
X+8560000Y+2770000D01*
X+6731000Y+5588000D02*
X+6543675Y+5775325D01*
X+6543675Y+6629400D01*
X+6578600Y+6664325D01*
X+6578600Y+7112000D01*
X+4013200Y+1270000D02*
X+4318000Y+1574800D01*
X+4318000Y+6756400D01*
X+4394200Y+6832600D01*
X+5511800Y+6832600D01*
X+9093200Y+711200D02*
X+9093200Y+914400D01*
X+9169400Y+990600D01*
X+9855200Y+990600D01*
X+9931400Y+1066800D01*
X+9931400Y+3759200D01*
X+10007600Y+3835400D01*
X+11074400Y+3835400D01*
X+11150600Y+3911600D01*
X+11150600Y+5054600D01*
X+11074400Y+5130800D01*
X+10622800Y+5130800D01*
X+10502000Y+5010000D01*
X+8483600Y+279400D02*
X+8737600Y+279400D01*
X+3098800Y+7899400D02*
X+4064000Y+7899400D01*
X+4140200Y+7823200D01*
X+4140200Y+7772400D01*
X+10248000Y+7760000D02*
X+10248000Y+7569200D01*
X+10252000Y+7565200D01*
X+10252000Y+7240000D01*
X+6578600Y+7340600D02*
X+6273800Y+7340600D01*
X+6197600Y+7264400D01*
X+6197600Y+6883400D01*
X+6121400Y+6807200D01*
X+5994400Y+6807200D01*
X+5918200Y+6731000D01*
X+5918200Y+6248400D01*
X+5994400Y+6172200D01*
X+5994400Y+5435600D01*
X+5918200Y+5359400D01*
X+5588000Y+5359400D01*
X+5511800Y+5435600D01*
X+5511800Y+6629400D01*
X+5613400Y+6731000D01*
X+5613400Y+7010400D01*
X+5537200Y+7086600D01*
X+4648200Y+7086600D01*
X+4572000Y+7162800D01*
X+4572000Y+7823200D01*
X+4495800Y+7899400D01*
X+4267200Y+7899400D01*
X+4140200Y+7772400D01*
X+10248000Y+7760000D02*
X+10108600Y+7899400D01*
X+6807200Y+7899400D01*
X+6578600Y+7670800D01*
X+1905000Y+6578600D02*
X+1905000Y+6493000D01*
X+2030000Y+6368000D01*
X+7712000Y+7240000D02*
X+7712000Y+5419800D01*
X+7797800Y+5334000D01*
X+9626600Y+5334000D01*
X+9702800Y+5410200D01*
X+9702800Y+6705600D01*
X+7712000Y+7240000D02*
X+7712000Y+7518400D01*
X+7708000Y+7522400D01*
X+7708000Y+7760000D01*
X+7289800Y+7391400D02*
X+7289800Y+7509800D01*
X+7213600Y+7586000D01*
X+5960000Y+7586000D01*
X+7188200Y+7061200D02*
X+7442200Y+7061200D01*
X+7518400Y+6985000D01*
X+7518400Y+5283200D01*
X+7594600Y+5207000D01*
X+8222200Y+5207000D01*
X+8419200Y+5010000D01*
X+8470000Y+5010000D01*
X+6832600Y+6959600D02*
X+7366000Y+6959600D01*
X+7442200Y+6883400D01*
X+7442200Y+5207000D01*
X+7518400Y+5130800D01*
X+8095200Y+5130800D01*
X+8216000Y+5010000D01*
X+7966000Y+7240000D02*
X+7966000Y+6934200D01*
X+8051800Y+6848400D01*
X+8051800Y+6629400D01*
X+8128000Y+6553200D01*
X+8356600Y+6553200D01*
X+7962000Y+7760000D02*
X+7962000Y+7493000D01*
X+7966000Y+7489000D01*
X+7966000Y+7240000D01*
X+10134600Y+6477000D02*
X+10617200Y+6477000D01*
X+2538000Y+6368000D02*
X+2159000Y+6747000D01*
X+2159000Y+7289800D01*
X+2235200Y+7366000D01*
X+2692400Y+7366000D01*
X+10591800Y+7543800D02*
X+10506000Y+7458000D01*
X+10506000Y+7240000D01*
X+2692400Y+7366000D02*
X+2794000Y+7467600D01*
X+2794000Y+7797800D01*
X+2819400Y+7823200D01*
X+10502000Y+7760000D02*
X+10490200Y+7748200D01*
X+10490200Y+7543800D01*
X+6629400Y+6096000D02*
X+6664325Y+6130925D01*
X+6664325Y+7223125D01*
X+6756400Y+7315200D01*
X+7010400Y+7315200D01*
X+7188200Y+7493000D01*
X+2538000Y+6368000D02*
X+2647000Y+6477000D01*
X+2844800Y+6477000D01*
X+2921000Y+6400800D01*
X+2921000Y+3454400D01*
X+2997200Y+3378200D01*
X+4089400Y+3378200D01*
X+4165600Y+3454400D01*
X+4165600Y+6096000D01*
X+10591800Y+7543800D02*
X+10490200Y+7543800D01*
X+10591800Y+7543800D02*
X+10668000Y+7467600D01*
X+10820400Y+7467600D01*
X+10845800Y+7493000D01*
X+1778000Y+7620000D02*
X+1295400Y+7620000D01*
X+1235780Y+7679620D01*
X+670000Y+7679620D01*
X+4902200Y+3429000D02*
X+4902200Y+6223000D01*
X+5689600Y+6223000D02*
X+5689600Y+7255800D01*
X+5765800Y+7332000D01*
X+5960000Y+7332000D01*
X+10185400Y+5918200D02*
X+10261600Y+5842000D01*
X+10693400Y+5842000D01*
X+10769600Y+5918200D01*
X+10769600Y+6197600D01*
X+6731000Y+5943600D02*
X+6832600Y+5842000D01*
X+6832600Y+5715000D01*
X+9372600Y+5715000D02*
X+9309100Y+5715000D01*
X+9207500Y+5613400D01*
X+8331200Y+5613400D01*
X+8255000Y+5689600D01*
X+8255000Y+6451600D01*
X+5715000Y+1854200D02*
X+5715000Y+2717800D01*
X+6070600Y+3073400D01*
X+5715000Y+3073400D01*
X+5359400Y+3429000D01*
X+4902200Y+3429000D01*
X+1776000Y+7130000D02*
X+1776000Y+7366000D01*
X+1778000Y+7368000D01*
X+1778000Y+7620000D01*
X+1397000Y+5232400D02*
X+1397000Y+5588000D01*
X+9372600Y+5715000D02*
X+9372600Y+5435600D01*
X+5715000Y+1854200D02*
X+5308600Y+1447800D01*
X+5308600Y+1016000D01*
X+5207000Y+6985000D02*
X+4426200Y+6985000D01*
X+4350000Y+7061200D01*
X+4350000Y+7600000D01*
X+4165600Y+6654800D02*
X+4140200Y+6680200D01*
X+4140200Y+7772400D01*
X+2284000Y+7130000D02*
X+2505200Y+6908800D01*
X+2768600Y+6908800D01*
X+1498600Y+5892800D02*
X+1498600Y+6118600D01*
X+1748000Y+6368000D01*
X+1776000Y+6368000D01*
D11*
X+7750000Y+1570000D02*
X+7750000Y+1825800D01*
X+7747000Y+1828800D01*
X+8255000Y+1625600D02*
X+8255000Y+1397000D01*
X+9118600Y+533400D01*
X+9931400Y+533400D01*
X+10010000Y+612000D01*
X+10010000Y+3445820D01*
X+10083800Y+3519620D01*
X+11530000Y+3519620D01*
X+4013200Y+1270000D02*
X+4318000Y+965200D01*
X+4318000Y+101600D01*
X+11226800Y+101600D02*
X+11226800Y+787400D01*
D12*
X+8509000Y+965200D02*
X+8509000Y+533400D01*
X+8585200Y+457200D01*
X+9906000Y+457200D01*
X+9931400Y+431800D01*
D13*
X+1955800Y+4445000D03*
X+1524000Y+3429000D03*
X+2133600Y+3683000D03*
X+1549400Y+2921000D03*
X+2184400Y+5181600D03*
X+1600200Y+3911600D03*
X+3429000Y+5435600D03*
X+3251200Y+7518400D03*
X+3175000Y+3479800D03*
X+2971800Y+7543800D03*
X+1701800Y+3733800D03*
X+2667000Y+7518400D03*
X+5003800Y+939800D03*
X+5384800Y+3124200D03*
X+5384800Y+1854200D03*
X+7035800Y+1168400D03*
X+6781800Y+1955800D03*
X+6172200Y+4191000D03*
X+10109200Y+3225800D03*
X+9601200Y+3657600D03*
X+9601200Y+1168400D03*
X+6756400Y+863600D03*
X+5765800Y+1320800D03*
X+6553200Y+533400D03*
X+7950200Y+1143000D03*
X+7340600Y+5562600D03*
X+7340600Y+6223000D03*
X+6451600Y+965200D03*
X+7442200Y+4495800D03*
X+8102600Y+4495800D03*
X+9601200Y+5130800D03*
X+9804400Y+6781800D03*
X+9804400Y+6019800D03*
X+889000Y+101600D03*
X+889000Y+660400D03*
X+152400Y+330200D03*
X+990600Y+101600D03*
X+990600Y+533400D03*
X+2235200Y+6045200D03*
X+1828800Y+3048000D03*
X+2514600Y+2997200D03*
X+2514600Y+1498600D03*
X+2768600Y+5105400D03*
X+4064000Y+4165600D03*
X+3733800Y+5232400D03*
X+2768600Y+4165600D03*
X+4699000Y+1854200D03*
X+4699000Y+2743200D03*
X+2590800Y+4572000D03*
X+7975600Y+5435600D03*
X+7950200Y+6553200D03*
X+1498600Y+4038600D03*
X+1905000Y+1320800D03*
X+5842000Y+5207000D03*
X+7340600Y+1092200D03*
X+1117600Y+3302000D03*
X+5842000Y+3683000D03*
X+7340600Y+2438400D03*
X+8102600Y+2438400D03*
X+6273800Y+5207000D03*
X+1117600Y+3683000D03*
X+6477000Y+7239000D03*
X+1955800Y+2667000D03*
X+5816600Y+3175000D03*
X+8204200Y+965200D03*
X+1244600Y+2667000D03*
X+8636000Y+6883400D03*
X+7620000Y+6883400D03*
X+7620000Y+5359400D03*
X+4013200Y+5588000D03*
X+8890000Y+6375400D03*
X+9144000Y+6146800D03*
X+6832600Y+6629400D03*
X+7035800Y+5156200D03*
X+8432800Y+5156200D03*
X+9474200Y+5232400D03*
X+7188200Y+6858000D03*
X+7137400Y+5257800D03*
X+7239000Y+4165600D03*
X+8102600Y+4191000D03*
X+8051800Y+355600D03*
X+8229600Y+6680200D03*
X+2921000Y+7340600D03*
X+2565400Y+7874000D03*
X+6477000Y+6934200D03*
X+6375400Y+5943600D03*
X+4064000Y+5943600D03*
X+8001000Y+1422400D03*
X+8356600Y+1422400D03*
X+9499600Y+3810000D03*
X+9499600Y+4013200D03*
X+7239000Y+6578600D03*
X+7239000Y+5664200D03*
X+9982200Y+5638800D03*
X+1066800Y+4318000D03*
X+1016000Y+3810000D03*
X+7899400Y+3911600D03*
X+7213600Y+711200D03*
X+330200Y+254000D03*
X+1371600Y+254000D03*
X+1371600Y+914400D03*
X+4038600Y+3276600D03*
X+6781800Y+7442200D03*
X+5207000Y+7594600D03*
X+8458200Y+6045200D03*
X+1701800Y+5029200D03*
X+1066800Y+5029200D03*
X+4546600Y+2870200D03*
X+3606800Y+3276600D03*
X+4546600Y+2311400D03*
X+1320800Y+1295400D03*
X+1524000Y+254000D03*
X+4546600Y+1752600D03*
X+2286000Y+5537200D03*
X+3505200Y+2743200D03*
X+3708400Y+4267200D03*
X+1371600Y+431800D03*
X+10515600Y+5943600D03*
X+3276600Y+5537200D03*
X+330200Y+431800D03*
X+3606800Y+3048000D03*
X+2159000Y+2794000D03*
X+2159000Y+3302000D03*
X+3708400Y+4775200D03*
X+2209800Y+4318000D03*
X+3606800Y+5003800D03*
X+8534400Y+5943600D03*
X+8534400Y+5816600D03*
X+8356600Y+6324600D03*
X+8940800Y+5715000D03*
X+4902200Y+2438400D03*
X+8890000Y+279400D03*
X+5892800Y+1219200D03*
X+6248400Y+1295400D03*
X+7848600Y+482600D03*
X+10998200Y+203200D03*
X+7848600Y+939800D03*
X+4826000Y+7289800D03*
X+7772400Y+3479800D03*
X+10134600Y+4876800D03*
X+4800600Y+2235200D03*
X+10388600Y+965200D03*
X+9296400Y+2946400D03*
X+8890000Y+3810000D03*
X+8559800Y+3810000D03*
X+5969000Y+4064000D03*
X+6070600Y+6578600D03*
X+9398000Y+3479800D03*
X+8864600Y+3302000D03*
X+6019800Y+6705600D03*
X+6477000Y+6832600D03*
X+6477000Y+4826000D03*
X+8686800Y+4826000D03*
X+9474200Y+4114800D03*
X+7340600Y+2946400D03*
X+8559800Y+2946400D03*
X+6578600Y+7112000D03*
X+6731000Y+5588000D03*
X+5511800Y+6832600D03*
X+9093200Y+711200D03*
X+8737600Y+279400D03*
X+8483600Y+279400D03*
X+3098800Y+7899400D03*
X+6578600Y+7340600D03*
X+6578600Y+7670800D03*
X+1905000Y+6578600D03*
X+9702800Y+6705600D03*
X+7289800Y+7391400D03*
X+7188200Y+7061200D03*
X+6832600Y+6959600D03*
X+8356600Y+6553200D03*
X+10617200Y+6477000D03*
X+10134600Y+6477000D03*
X+2819400Y+7823200D03*
X+7188200Y+7493000D03*
X+6629400Y+6096000D03*
X+4165600Y+6096000D03*
X+10845800Y+7493000D03*
X+2692400Y+7366000D03*
X+4902200Y+6223000D03*
X+10769600Y+6197600D03*
X+10185400Y+5918200D03*
X+6832600Y+5715000D03*
X+8255000Y+6451600D03*
X+4902200Y+3429000D03*
X+1778000Y+7620000D03*
X+9372600Y+5435600D03*
X+5308600Y+1016000D03*
X+6070600Y+3073400D03*
X+5689600Y+6223000D03*
X+6731000Y+5943600D03*
X+9372600Y+5715000D03*
X+1397000Y+5588000D03*
X+1397000Y+5232400D03*
X+5715000Y+1854200D03*
X+5207000Y+6985000D03*
X+4165600Y+6654800D03*
X+2768600Y+6908800D03*
X+1498600Y+5892800D03*
X+7747000Y+1828800D03*
X+8255000Y+1625600D03*
X+4013200Y+1270000D03*
X+4318000Y+101600D03*
X+11226800Y+101600D03*
X+11226800Y+787400D03*
X+8509000Y+965200D03*
X+9931400Y+431800D03*
D14*
X+10883000Y+7884446D02*
X+10869206Y+7898240D01*
X+10896794Y+7898240D01*
X+10883000Y+7884446D01*
X+10629000Y+7884446D02*
X+10615206Y+7898240D01*
X+10642794Y+7898240D01*
X+10629000Y+7884446D01*
X+10375000Y+7884446D02*
X+10361206Y+7898240D01*
X+10388794Y+7898240D01*
X+10375000Y+7884446D01*
X+6547677Y+7810499D02*
X+6520735Y+7810499D01*
X+6438901Y+7728665D01*
X+6438901Y+7706649D01*
X+6163199Y+7706649D01*
X+6163199Y+7898240D01*
X+6635418Y+7898240D01*
X+6547677Y+7810499D01*
X+2425701Y+7816135D02*
X+2507535Y+7734301D01*
X+2623265Y+7734301D01*
X+2673351Y+7784387D01*
X+2673351Y+7658099D01*
X+2609135Y+7658099D01*
X+2590085Y+7639049D01*
X+1931227Y+7639049D01*
X+1917699Y+7625521D01*
X+1917699Y+7677865D01*
X+1835865Y+7759699D01*
X+1720135Y+7759699D01*
X+1701085Y+7740649D01*
X+1345373Y+7740649D01*
X+1285753Y+7800269D01*
X+908560Y+7800269D01*
X+810589Y+7898240D01*
X+2425701Y+7898240D01*
X+2425701Y+7816135D01*
X+5756801Y+7636801D02*
X+5756801Y+7452649D01*
X+5715827Y+7452649D01*
X+5568952Y+7305774D01*
X+5568952Y+7207249D01*
X+5248251Y+7207249D01*
X+5387003Y+7346001D01*
X+5575590Y+7346001D01*
X+5724379Y+7494790D01*
X+5724379Y+7705210D01*
X+5575590Y+7853999D01*
X+5365170Y+7853999D01*
X+5245470Y+7734299D01*
X+5194910Y+7734299D01*
X+5075210Y+7853999D01*
X+4864790Y+7853999D01*
X+4716001Y+7705210D01*
X+4716001Y+7494790D01*
X+4781292Y+7429499D01*
X+4768135Y+7429499D01*
X+4692649Y+7354013D01*
X+4692649Y+7873173D01*
X+4667582Y+7898240D01*
X+5756801Y+7898240D01*
X+5756801Y+7636801D01*
X+11898241Y+1430588D02*
X+11500545Y+1430588D01*
X+11531599Y+1461642D01*
X+11531599Y+1678358D01*
X+11442936Y+1767021D01*
X+11635210Y+1767021D01*
X+11783999Y+1915810D01*
X+11783999Y+2126230D01*
X+11669699Y+2240530D01*
X+11669699Y+2301890D01*
X+11783999Y+2416190D01*
X+11783999Y+2626610D01*
X+11640289Y+2770320D01*
X+11783999Y+2914030D01*
X+11783999Y+3124450D01*
X+11639019Y+3269430D01*
X+11783999Y+3414410D01*
X+11783999Y+3624830D01*
X+11639019Y+3769810D01*
X+11783999Y+3914790D01*
X+11783999Y+4125210D01*
X+11639019Y+4270190D01*
X+11783999Y+4415170D01*
X+11783999Y+4625590D01*
X+11635210Y+4774379D01*
X+11424790Y+4774379D01*
X+11360149Y+4709738D01*
X+11360149Y+5262233D01*
X+11205833Y+5416549D01*
X+10409567Y+5416549D01*
X+10241651Y+5248633D01*
X+10241651Y+5187799D01*
X+10174353Y+5187799D01*
X+10121000Y+5134446D01*
X+10067647Y+5187799D01*
X+9987648Y+5187799D01*
X+9987648Y+5499101D01*
X+10040065Y+5499101D01*
X+10121899Y+5580935D01*
X+10121899Y+5696665D01*
X+10102849Y+5715715D01*
X+10102849Y+5803187D01*
X+10127535Y+5778501D01*
X+10154477Y+5778501D01*
X+10211627Y+5721351D01*
X+10743373Y+5721351D01*
X+10890249Y+5868227D01*
X+10890249Y+6059794D01*
X+10911642Y+6038401D01*
X+11128358Y+6038401D01*
X+11281599Y+6191642D01*
X+11281599Y+6408358D01*
X+11128358Y+6561599D01*
X+10911642Y+6561599D01*
X+10880649Y+6530606D01*
X+10880649Y+7073282D01*
X+10887000Y+7079633D01*
X+10929832Y+7036801D01*
X+11098168Y+7036801D01*
X+11217199Y+7155832D01*
X+11217199Y+7324168D01*
X+11098168Y+7443199D01*
X+11068049Y+7443199D01*
X+11068049Y+7582201D01*
X+11083647Y+7582201D01*
X+11187799Y+7686353D01*
X+11187799Y+7833647D01*
X+11123206Y+7898240D01*
X+11898241Y+7898240D01*
X+11898241Y+1430588D01*
X+416001Y+7784830D02*
X+416001Y+7574410D01*
X+560981Y+7429430D01*
X+416001Y+7284450D01*
X+416001Y+7074030D01*
X+564790Y+6925241D01*
X+753377Y+6925241D01*
X+844551Y+6834067D01*
X+844551Y+6784278D01*
X+775210Y+6853619D01*
X+564790Y+6853619D01*
X+416001Y+6704830D01*
X+416001Y+6494410D01*
X+560981Y+6349430D01*
X+416001Y+6204450D01*
X+416001Y+6015863D01*
X+260351Y+5860213D01*
X+260351Y+5258267D01*
X+416001Y+5102617D01*
X+416001Y+4914030D01*
X+564790Y+4765241D01*
X+775210Y+4765241D01*
X+908560Y+4898591D01*
X+999845Y+4898591D01*
X+1008935Y+4889501D01*
X+1098551Y+4889501D01*
X+1098551Y+4457699D01*
X+1008935Y+4457699D01*
X+981884Y+4430648D01*
X+908561Y+4430648D01*
X+775210Y+4563999D01*
X+564790Y+4563999D01*
X+416001Y+4415210D01*
X+416001Y+4204790D01*
X+560981Y+4059810D01*
X+416001Y+3914830D01*
X+416001Y+3704410D01*
X+564790Y+3555621D01*
X+775210Y+3555621D01*
X+908561Y+3688972D01*
X+939464Y+3688972D01*
X+958135Y+3670301D01*
X+977901Y+3670301D01*
X+977901Y+3625135D01*
X+996951Y+3606085D01*
X+996951Y+3378915D01*
X+977901Y+3359865D01*
X+977901Y+3244135D01*
X+996951Y+3225085D01*
X+996951Y+2744027D01*
X+1104901Y+2636077D01*
X+1104901Y+2609135D01*
X+1186735Y+2527301D01*
X+1302465Y+2527301D01*
X+1372370Y+2597206D01*
X+1423226Y+2546351D01*
X+1835151Y+2546351D01*
X+1835151Y+2261427D01*
X+1860551Y+2236027D01*
X+1860551Y+1831599D01*
X+1661642Y+1831599D01*
X+1508401Y+1678358D01*
X+1508401Y+1461642D01*
X+1630194Y+1339849D01*
X+1460499Y+1339849D01*
X+1460499Y+1353265D01*
X+1378665Y+1435099D01*
X+1262935Y+1435099D01*
X+1181101Y+1353265D01*
X+1181101Y+1237535D01*
X+1262935Y+1155701D01*
X+1264477Y+1155701D01*
X+1264478Y+1155700D01*
X+1250951Y+1142173D01*
X+1250951Y+991315D01*
X+1231901Y+972265D01*
X+1231901Y+856535D01*
X+1250951Y+837485D01*
X+1250951Y+706599D01*
X+1028699Y+706599D01*
X+1028699Y+718265D01*
X+1009649Y+737315D01*
X+1009649Y+1091373D01*
X+862773Y+1238249D01*
X+847458Y+1238249D01*
X+923999Y+1314790D01*
X+923999Y+1525210D01*
X+775210Y+1673999D01*
X+564790Y+1673999D01*
X+416001Y+1525210D01*
X+416001Y+1314790D01*
X+492542Y+1238249D01*
X+178627Y+1238249D01*
X+121759Y+1181381D01*
X+121759Y+7898240D01*
X+529411Y+7898240D01*
X+416001Y+7784830D01*
X+923999Y+3365590D02*
X+923999Y+3155170D01*
X+779019Y+3010190D01*
X+923999Y+2865210D01*
X+923999Y+2654790D01*
X+779019Y+2509810D01*
X+923999Y+2364830D01*
X+923999Y+2154410D01*
X+775210Y+2005621D01*
X+564790Y+2005621D01*
X+416001Y+2154410D01*
X+416001Y+2364830D01*
X+560981Y+2509810D01*
X+416001Y+2654790D01*
X+416001Y+2865210D01*
X+560981Y+3010190D01*
X+416001Y+3155170D01*
X+416001Y+3365590D01*
X+564790Y+3514379D01*
X+775210Y+3514379D01*
X+923999Y+3365590D01*
X+4197351Y+1624773D02*
X+3982277Y+1409699D01*
X+3955335Y+1409699D01*
X+3873501Y+1327865D01*
X+3873501Y+1212135D01*
X+3955335Y+1130301D01*
X+3964317Y+1130301D01*
X+4184651Y+909967D01*
X+4184651Y+165815D01*
X+4178301Y+159465D01*
X+4178301Y+121760D01*
X+1589324Y+121760D01*
X+1663699Y+196135D01*
X+1663699Y+311865D01*
X+1644649Y+330915D01*
X+1644649Y+481774D01*
X+1573975Y+552448D01*
X+1492249Y+552448D01*
X+1492249Y+837485D01*
X+1511299Y+856535D01*
X+1511299Y+972265D01*
X+1492249Y+991315D01*
X+1492249Y+1042227D01*
X+1548573Y+1098551D01*
X+2132773Y+1098551D01*
X+2279649Y+1245427D01*
X+2279649Y+2717085D01*
X+2298699Y+2736135D01*
X+2298699Y+2763077D01*
X+2393951Y+2858329D01*
X+2393951Y+1575515D01*
X+2374901Y+1556465D01*
X+2374901Y+1440735D01*
X+2456735Y+1358901D01*
X+2572465Y+1358901D01*
X+2654299Y+1440735D01*
X+2654299Y+1556465D01*
X+2635249Y+1575515D01*
X+2635249Y+2920285D01*
X+2654299Y+2939335D01*
X+2654299Y+3055065D01*
X+2622493Y+3086871D01*
X+2691573Y+3155951D01*
X+3486151Y+3155951D01*
X+3486151Y+3124915D01*
X+3467101Y+3105865D01*
X+3467101Y+2990135D01*
X+3486151Y+2971085D01*
X+3486151Y+2894773D01*
X+3474277Y+2882899D01*
X+3447335Y+2882899D01*
X+3365501Y+2801065D01*
X+3365501Y+2685335D01*
X+3447335Y+2603501D01*
X+3563065Y+2603501D01*
X+3644899Y+2685335D01*
X+3644899Y+2712277D01*
X+3727449Y+2794827D01*
X+3727449Y+2971085D01*
X+3746499Y+2990135D01*
X+3746499Y+3105865D01*
X+3727449Y+3124915D01*
X+3727449Y+3155951D01*
X+3961685Y+3155951D01*
X+3980735Y+3136901D01*
X+4096465Y+3136901D01*
X+4178299Y+3218735D01*
X+4178299Y+3296477D01*
X+4197351Y+3315529D01*
X+4197351Y+1624773D01*
X+3408401Y+661642D02*
X+3408401Y+878358D01*
X+3561642Y+1031599D01*
X+3778358Y+1031599D01*
X+3931599Y+878358D01*
X+3931599Y+661642D01*
X+3778358Y+508401D01*
X+3561642Y+508401D01*
X+3408401Y+661642D01*
X+11898241Y+121760D02*
X+11366499Y+121760D01*
X+11366499Y+159465D01*
X+11360149Y+165815D01*
X+11360149Y+261022D01*
X+11395170Y+226001D01*
X+11605590Y+226001D01*
X+11754379Y+374790D01*
X+11754379Y+585210D01*
X+11621029Y+718560D01*
X+11621029Y+862773D01*
X+11474153Y+1009649D01*
X+10844973Y+1009649D01*
X+10839449Y+1015174D01*
X+10768774Y+1085849D01*
X+10465515Y+1085849D01*
X+10454296Y+1097068D01*
X+11898241Y+1097068D01*
X+11898241Y+121760D01*
X+10859114Y+261678D02*
X+10858501Y+261065D01*
X+10858501Y+145335D01*
X+10882076Y+121760D01*
X+10833382Y+121760D01*
X+10839449Y+127827D01*
X+10839449Y+281342D01*
X+10859114Y+261678D01*
X+4596436Y+252401D02*
X+4679951Y+252401D01*
X+4679951Y+127827D01*
X+4686018Y+121760D01*
X+4457699Y+121760D01*
X+4457699Y+159465D01*
X+4451349Y+165815D01*
X+4451349Y+309351D01*
X+4539486Y+309351D01*
X+4596436Y+252401D01*
X+1458676Y+121760D02*
X+1436924Y+121760D01*
X+1447800Y+132636D01*
X+1458676Y+121760D01*
X+264876Y+121760D02*
X+121759Y+121760D01*
X+121759Y+190501D01*
X+196135Y+190501D01*
X+264876Y+121760D01*
X+7276201Y+7694021D02*
X+7263573Y+7706649D01*
X+6785071Y+7706649D01*
X+6857173Y+7778751D01*
X+7276201Y+7778751D01*
X+7276201Y+7694021D01*
X+10369551Y+7618271D02*
X+10368649Y+7619173D01*
X+10368649Y+7629203D01*
X+10369551Y+7630105D01*
X+10369551Y+7618271D01*
X+8857351Y+7629203D02*
X+8857351Y+7402718D01*
X+8855000Y+7400367D01*
X+8812168Y+7443199D01*
X+8643832Y+7443199D01*
X+8601000Y+7400367D01*
X+8594649Y+7406718D01*
X+8594649Y+7492173D01*
X+8590649Y+7496173D01*
X+8590649Y+7629203D01*
X+8597000Y+7635554D01*
X+8650353Y+7582201D01*
X+8797647Y+7582201D01*
X+8851000Y+7635554D01*
X+8857351Y+7629203D01*
X+6960427Y+7435849D02*
X+6921499Y+7435849D01*
X+6921499Y+7465351D01*
X+6989929Y+7465351D01*
X+6960427Y+7435849D01*
X+10385351Y+7478026D02*
X+10385351Y+7406718D01*
X+10379000Y+7400367D01*
X+10372649Y+7406718D01*
X+10372649Y+7490728D01*
X+10385351Y+7478026D01*
X+10127351Y+7629203D02*
X+10127351Y+7519227D01*
X+10131351Y+7515227D01*
X+10131351Y+7406718D01*
X+10125000Y+7400367D01*
X+10118649Y+7406718D01*
X+10118649Y+7568373D01*
X+10114649Y+7572373D01*
X+10114649Y+7629203D01*
X+10121000Y+7635554D01*
X+10127351Y+7629203D01*
X+9873351Y+7629203D02*
X+9873351Y+7472427D01*
X+9877351Y+7468427D01*
X+9877351Y+7406718D01*
X+9871000Y+7400367D01*
X+9864649Y+7406718D01*
X+9864649Y+7568373D01*
X+9860649Y+7572373D01*
X+9860649Y+7629203D01*
X+9867000Y+7635554D01*
X+9873351Y+7629203D01*
X+9619351Y+7629203D02*
X+9619351Y+7472427D01*
X+9623351Y+7468427D01*
X+9623351Y+7406718D01*
X+9617000Y+7400367D01*
X+9610649Y+7406718D01*
X+9610649Y+7615173D01*
X+9606649Y+7619173D01*
X+9606649Y+7629203D01*
X+9613000Y+7635554D01*
X+9619351Y+7629203D01*
X+9365351Y+7629203D02*
X+9365351Y+7519227D01*
X+9369351Y+7515227D01*
X+9369351Y+7406718D01*
X+9363000Y+7400367D01*
X+9356649Y+7406718D01*
X+9356649Y+7492173D01*
X+9352649Y+7496173D01*
X+9352649Y+7629203D01*
X+9359000Y+7635554D01*
X+9365351Y+7629203D01*
X+9111351Y+7629203D02*
X+9111351Y+7402718D01*
X+9109000Y+7400367D01*
X+9102649Y+7406718D01*
X+9102649Y+7492173D01*
X+9098649Y+7496173D01*
X+9098649Y+7629203D01*
X+9105000Y+7635554D01*
X+9111351Y+7629203D01*
X+8349351Y+7629203D02*
X+8349351Y+7402718D01*
X+8347000Y+7400367D01*
X+8340649Y+7406718D01*
X+8340649Y+7492173D01*
X+8336649Y+7496173D01*
X+8336649Y+7629203D01*
X+8343000Y+7635554D01*
X+8349351Y+7629203D01*
X+8095351Y+7629203D02*
X+8095351Y+7402718D01*
X+8093000Y+7400367D01*
X+8086649Y+7406718D01*
X+8086649Y+7538973D01*
X+8082649Y+7542973D01*
X+8082649Y+7629203D01*
X+8089000Y+7635554D01*
X+8095351Y+7629203D01*
X+7841351Y+7629203D02*
X+7841351Y+7443027D01*
X+7845351Y+7439027D01*
X+7845351Y+7406718D01*
X+7839000Y+7400367D01*
X+7832649Y+7406718D01*
X+7832649Y+7568373D01*
X+7828649Y+7572373D01*
X+7828649Y+7629203D01*
X+7835000Y+7635554D01*
X+7841351Y+7629203D01*
X+7587351Y+7629203D02*
X+7587351Y+7472427D01*
X+7591351Y+7468427D01*
X+7591351Y+7406718D01*
X+7585000Y+7400367D01*
X+7578649Y+7406718D01*
X+7578649Y+7492173D01*
X+7574649Y+7496173D01*
X+7574649Y+7629203D01*
X+7581000Y+7635554D01*
X+7587351Y+7629203D01*
X+2073689Y+7375111D02*
X+2038351Y+7339773D01*
X+2038351Y+7295099D01*
X+2025649Y+7295099D01*
X+2025649Y+7392227D01*
X+2031173Y+7397751D01*
X+2096329Y+7397751D01*
X+2073689Y+7375111D01*
X+3193335Y+7378701D02*
X+3220277Y+7378701D01*
X+3303879Y+7295099D01*
X+3231614Y+7295099D01*
X+3222468Y+7285954D01*
X+3143249Y+7365173D01*
X+3143249Y+7428787D01*
X+3193335Y+7378701D01*
X+2411000Y+7236485D02*
X+2402134Y+7245351D01*
X+2419866Y+7245351D01*
X+2411000Y+7236485D01*
X+4710987Y+7207249D02*
X+4698173Y+7207249D01*
X+4692649Y+7212773D01*
X+4692649Y+7225587D01*
X+4710987Y+7207249D01*
X+7048501Y+7119065D02*
X+7048501Y+7080249D01*
X+6909515Y+7080249D01*
X+6890465Y+7099299D01*
X+6851649Y+7099299D01*
X+6851649Y+7112827D01*
X+6858173Y+7119351D01*
X+7048787Y+7119351D01*
X+7048501Y+7119065D01*
X+3595621Y+7494790D02*
X+3728971Y+7361440D01*
X+3728971Y+7341427D01*
X+3867151Y+7203247D01*
X+3867151Y+7042806D01*
X+3778358Y+7131599D01*
X+3561642Y+7131599D01*
X+3549649Y+7119606D01*
X+3549649Y+7390573D01*
X+3390899Y+7549323D01*
X+3390899Y+7576265D01*
X+3309065Y+7658099D01*
X+3193335Y+7658099D01*
X+3111501Y+7576265D01*
X+3111501Y+7574721D01*
X+3111499Y+7574723D01*
X+3111499Y+7601665D01*
X+3066993Y+7646171D01*
X+3097973Y+7677151D01*
X+3595621Y+7677151D01*
X+3595621Y+7494790D01*
X+10639351Y+7073282D02*
X+10639351Y+6616699D01*
X+10559335Y+6616699D01*
X+10540285Y+6597649D01*
X+10211515Y+6597649D01*
X+10192465Y+6616699D01*
X+10118649Y+6616699D01*
X+10118649Y+7073282D01*
X+10125000Y+7079633D01*
X+10167832Y+7036801D01*
X+10336168Y+7036801D01*
X+10379000Y+7079633D01*
X+10421832Y+7036801D01*
X+10590168Y+7036801D01*
X+10633000Y+7079633D01*
X+10639351Y+7073282D01*
X+8099351Y+7073282D02*
X+8099351Y+6971471D01*
X+8086649Y+6984173D01*
X+8086649Y+7073282D01*
X+8093000Y+7079633D01*
X+8099351Y+7073282D01*
X+8389832Y+7036801D02*
X+8415579Y+7036801D01*
X+8340649Y+6961871D01*
X+8340649Y+7073282D01*
X+8347000Y+7079633D01*
X+8389832Y+7036801D01*
X+5434885Y+6953249D02*
X+5346699Y+6953249D01*
X+5346699Y+6965951D01*
X+5447587Y+6965951D01*
X+5434885Y+6953249D01*
X+3054351Y+6946071D02*
X+3041649Y+6958773D01*
X+3041649Y+6964901D01*
X+3054351Y+6964901D01*
X+3054351Y+6946071D01*
X+4264689Y+6975889D02*
X+4315778Y+6924800D01*
X+4260848Y+6869870D01*
X+4260848Y+6979730D01*
X+4264689Y+6975889D01*
X+9659832Y+7036801D02*
X+9776577Y+7036801D01*
X+9785351Y+7028027D01*
X+9785351Y+6921499D01*
X+9746535Y+6921499D01*
X+9670335Y+6845299D01*
X+9644935Y+6845299D01*
X+9631599Y+6831963D01*
X+9631599Y+6978358D01*
X+9573156Y+7036801D01*
X+9574168Y+7036801D01*
X+9617000Y+7079633D01*
X+9659832Y+7036801D01*
X+1909351Y+6718299D02*
X+1859721Y+6718299D01*
X+1909351Y+6767929D01*
X+1909351Y+6718299D01*
X+7321551Y+6693613D02*
X+7296865Y+6718299D01*
X+7258049Y+6718299D01*
X+7258049Y+6730285D01*
X+7321551Y+6793787D01*
X+7321551Y+6693613D01*
X+7845351Y+7073282D02*
X+7845351Y+6884227D01*
X+7931151Y+6798427D01*
X+7931151Y+6692899D01*
X+7892335Y+6692899D01*
X+7832649Y+6633213D01*
X+7832649Y+7073282D01*
X+7839000Y+7079633D01*
X+7845351Y+7073282D01*
X+7016751Y+6615871D02*
X+6972299Y+6660323D01*
X+6972299Y+6687265D01*
X+6890465Y+6769099D01*
X+6851649Y+6769099D01*
X+6851649Y+6819901D01*
X+6890465Y+6819901D01*
X+6909515Y+6838951D01*
X+7016751Y+6838951D01*
X+7016751Y+6615871D01*
X+2419889Y+6823489D02*
X+2455226Y+6788152D01*
X+2505200Y+6788152D01*
X+2691685Y+6788151D01*
X+2710735Y+6769101D01*
X+2826465Y+6769101D01*
X+2858271Y+6800907D01*
X+2925351Y+6733827D01*
X+2925351Y+6567071D01*
X+2894773Y+6597649D01*
X+2597027Y+6597649D01*
X+2538000Y+6538622D01*
X+2279649Y+6796973D01*
X+2279649Y+6963729D01*
X+2419889Y+6823489D01*
X+3308351Y+6533099D02*
X+3295649Y+6533099D01*
X+3295649Y+6964901D01*
X+3308351Y+6964901D01*
X+3308351Y+6533099D01*
X+1765301Y+6533099D02*
X+1674521Y+6533099D01*
X+1765301Y+6623879D01*
X+1765301Y+6533099D01*
X+2208946Y+6526432D02*
X+2206468Y+6523954D01*
X+2150649Y+6579773D01*
X+2150649Y+6584729D01*
X+2208946Y+6526432D01*
X+3561642Y+6608401D02*
X+3694579Y+6608401D01*
X+3549649Y+6463471D01*
X+3549649Y+6620394D01*
X+3561642Y+6608401D01*
X+4197351Y+6235699D02*
X+4184649Y+6235699D01*
X+4184649Y+6515101D01*
X+4197351Y+6515101D01*
X+4197351Y+6235699D01*
X+9023352Y+6249226D02*
X+9023352Y+6223716D01*
X+9010648Y+6211012D01*
X+9010648Y+6254751D01*
X+9017827Y+6254751D01*
X+9023352Y+6249226D01*
X+1610901Y+6401523D02*
X+1416049Y+6206671D01*
X+1416049Y+6274627D01*
X+1610901Y+6469479D01*
X+1610901Y+6401523D01*
X+6813551Y+6223827D02*
X+6813551Y+6058613D01*
X+6788865Y+6083299D01*
X+6784973Y+6083299D01*
X+6784973Y+6252405D01*
X+6813551Y+6223827D01*
X+10648951Y+6120685D02*
X+10648951Y+6007813D01*
X+10636249Y+6020515D01*
X+10636249Y+6131827D01*
X+10637029Y+6132607D01*
X+10648951Y+6120685D01*
X+9151832Y+7036801D02*
X+9166844Y+7036801D01*
X+9108401Y+6978358D01*
X+9108401Y+6761642D01*
X+9261642Y+6608401D01*
X+9478358Y+6608401D01*
X+9563101Y+6693144D01*
X+9563101Y+6647735D01*
X+9582151Y+6628685D01*
X+9582151Y+5460173D01*
X+9576627Y+5454649D01*
X+9512299Y+5454649D01*
X+9512299Y+5493465D01*
X+9493249Y+5512515D01*
X+9493249Y+5638085D01*
X+9512299Y+5657135D01*
X+9512299Y+5772865D01*
X+9430465Y+5854699D01*
X+9314735Y+5854699D01*
X+9295685Y+5835649D01*
X+9259127Y+5835649D01*
X+9157527Y+5734049D01*
X+9080499Y+5734049D01*
X+9080499Y+5772865D01*
X+8998665Y+5854699D01*
X+8882935Y+5854699D01*
X+8863885Y+5835649D01*
X+8674099Y+5835649D01*
X+8674099Y+5874465D01*
X+8668464Y+5880100D01*
X+8674099Y+5885735D01*
X+8674099Y+6001465D01*
X+8655049Y+6020515D01*
X+8655049Y+6057073D01*
X+8578849Y+6133273D01*
X+8578849Y+6211129D01*
X+8662227Y+6127751D01*
X+8939974Y+6127751D01*
X+9004301Y+6192078D01*
X+9004301Y+6088935D01*
X+9086135Y+6007101D01*
X+9201865Y+6007101D01*
X+9283699Y+6088935D01*
X+9283699Y+6204665D01*
X+9264648Y+6223716D01*
X+9264648Y+6349174D01*
X+9117773Y+6496049D01*
X+8966915Y+6496049D01*
X+8947865Y+6515099D01*
X+8832135Y+6515099D01*
X+8756649Y+6439613D01*
X+8756649Y+6806485D01*
X+8775699Y+6825535D01*
X+8775699Y+6864351D01*
X+8776973Y+6864351D01*
X+8949423Y+7036801D01*
X+9066168Y+7036801D01*
X+9109000Y+7079633D01*
X+9151832Y+7036801D01*
X+10394951Y+6231773D02*
X+10394951Y+6020515D01*
X+10375901Y+6001465D01*
X+10375901Y+5962649D01*
X+10325099Y+5962649D01*
X+10325099Y+5976065D01*
X+10243265Y+6057899D01*
X+10127535Y+6057899D01*
X+10102849Y+6033213D01*
X+10102849Y+6335027D01*
X+10105123Y+6337301D01*
X+10192465Y+6337301D01*
X+10211515Y+6356351D01*
X+10519529Y+6356351D01*
X+10394951Y+6231773D01*
X+2038351Y+6173027D02*
X+2101907Y+6109471D01*
X+2095501Y+6103065D01*
X+2095501Y+5987335D01*
X+2177335Y+5905501D01*
X+2292351Y+5905501D01*
X+2292351Y+5676899D01*
X+2228135Y+5676899D01*
X+2146301Y+5595065D01*
X+2146301Y+5479335D01*
X+2165351Y+5460285D01*
X+2165351Y+5321299D01*
X+2126535Y+5321299D01*
X+2107485Y+5302249D01*
X+1626427Y+5302249D01*
X+1619249Y+5295071D01*
X+1619249Y+5815885D01*
X+1636704Y+5833340D01*
X+1661642Y+5808401D01*
X+1878358Y+5808401D01*
X+2031599Y+5961642D01*
X+2031599Y+6178358D01*
X+2007056Y+6202901D01*
X+2038351Y+6202901D01*
X+2038351Y+6173027D01*
X+6711951Y+5792027D02*
X+6711951Y+5791915D01*
X+6704829Y+5784793D01*
X+6685721Y+5803901D01*
X+6700077Y+5803901D01*
X+6711951Y+5792027D01*
X+3943351Y+6020515D02*
X+3924301Y+6001465D01*
X+3924301Y+5885735D01*
X+4006135Y+5803901D01*
X+4044951Y+5803901D01*
X+4044951Y+5727699D01*
X+3999668Y+5727699D01*
X+3924168Y+5803199D01*
X+3755832Y+5803199D01*
X+3727448Y+5774815D01*
X+3727448Y+6300026D01*
X+3943351Y+6515929D01*
X+3943351Y+6020515D01*
X+5709351Y+5766718D02*
X+5632449Y+5689816D01*
X+5632449Y+6083301D01*
X+5709351Y+6083301D01*
X+5709351Y+5766718D01*
X+1210089Y+7534689D02*
X+1245427Y+7499351D01*
X+1657351Y+7499351D01*
X+1657351Y+7417973D01*
X+1655351Y+7415973D01*
X+1655351Y+7242836D01*
X+1610901Y+7198386D01*
X+1610901Y+7061614D01*
X+1707614Y+6964901D01*
X+1765079Y+6964901D01*
X+1174751Y+6374573D01*
X+1174751Y+5640269D01*
X+908560Y+5640269D01*
X+775210Y+5773619D01*
X+564790Y+5773619D01*
X+501649Y+5710478D01*
X+501649Y+5760267D01*
X+586623Y+5845241D01*
X+775210Y+5845241D01*
X+923999Y+5994030D01*
X+923999Y+6182617D01*
X+1085849Y+6344467D01*
X+1085849Y+6934013D01*
X+923999Y+7095863D01*
X+923999Y+7284450D01*
X+779019Y+7429430D01*
X+908560Y+7558971D01*
X+1185807Y+7558971D01*
X+1210089Y+7534689D01*
X+5662584Y+5480049D02*
X+5637973Y+5480049D01*
X+5632449Y+5485573D01*
X+5632449Y+5510184D01*
X+5662584Y+5480049D01*
X+7854952Y+6450884D02*
X+7854951Y+5512515D01*
X+7835901Y+5493465D01*
X+7835901Y+5466521D01*
X+7832649Y+5469773D01*
X+7832649Y+6473187D01*
X+7854952Y+6450884D01*
X+8115301Y+6393735D02*
X+8134351Y+6374685D01*
X+8134351Y+5639627D01*
X+8281227Y+5492751D01*
X+9232901Y+5492751D01*
X+9232901Y+5454649D01*
X+8115299Y+5454649D01*
X+8115299Y+5493465D01*
X+8096249Y+5512515D01*
X+8096248Y+6432551D01*
X+8115301Y+6432551D01*
X+8115301Y+6393735D01*
X+4044951Y+5091871D02*
X+3873499Y+5263323D01*
X+3873499Y+5290265D01*
X+3791665Y+5372099D01*
X+3727449Y+5372099D01*
X+3727449Y+5425184D01*
X+3755832Y+5396801D01*
X+3924168Y+5396801D01*
X+3975668Y+5448301D01*
X+4044951Y+5448301D01*
X+4044951Y+5091871D01*
X+3486151Y+5295071D02*
X+3485321Y+5295901D01*
X+3486151Y+5295901D01*
X+3486151Y+5295071D01*
X+9746352Y+5187799D02*
X+9740899Y+5187799D01*
X+9740899Y+5188665D01*
X+9696393Y+5233171D01*
X+9746352Y+5283130D01*
X+9746352Y+5187799D01*
X+1098551Y+5393447D02*
X+1098551Y+5168899D01*
X+1008935Y+5168899D01*
X+979925Y+5139889D01*
X+908560Y+5139889D01*
X+779019Y+5269430D01*
X+908560Y+5398971D01*
X+1093027Y+5398971D01*
X+1098551Y+5393447D01*
X+7282735Y+5422901D02*
X+7321551Y+5422901D01*
X+7321551Y+5157027D01*
X+7335566Y+5143012D01*
X+7276201Y+5083647D01*
X+7276201Y+4946649D01*
X+7060373Y+4946649D01*
X+7054849Y+4952173D01*
X+7054849Y+5016501D01*
X+7093665Y+5016501D01*
X+7175499Y+5098335D01*
X+7175499Y+5118101D01*
X+7195265Y+5118101D01*
X+7277099Y+5199935D01*
X+7277099Y+5315665D01*
X+7258049Y+5334715D01*
X+7258049Y+5447587D01*
X+7282735Y+5422901D01*
X+6610351Y+5511085D02*
X+6610351Y+4890213D01*
X+6597649Y+4902915D01*
X+6597649Y+5523787D01*
X+6610351Y+5511085D01*
X+8396353Y+4832201D02*
X+8476351Y+4832201D01*
X+8476351Y+4633773D01*
X+8459027Y+4616449D01*
X+8179515Y+4616449D01*
X+8160465Y+4635499D01*
X+8121649Y+4635499D01*
X+8121649Y+4799773D01*
X+8062434Y+4858988D01*
X+8089000Y+4885554D01*
X+8142353Y+4832201D01*
X+8289647Y+4832201D01*
X+8343000Y+4885554D01*
X+8396353Y+4832201D01*
X+10671966Y+4842588D02*
X+9861627Y+4032249D01*
X+9689271Y+4032249D01*
X+9747248Y+4090226D01*
X+9747248Y+4133401D01*
X+9865576Y+4133401D01*
X+9986599Y+4254424D01*
X+9986599Y+4425576D01*
X+9865576Y+4546599D01*
X+9834421Y+4546599D01*
X+9987648Y+4699826D01*
X+9987648Y+4832201D01*
X+9994901Y+4832201D01*
X+9994901Y+4818935D01*
X+10076735Y+4737101D01*
X+10192465Y+4737101D01*
X+10198815Y+4743451D01*
X+10354033Y+4743451D01*
X+10442783Y+4832201D01*
X+10575647Y+4832201D01*
X+10629000Y+4885554D01*
X+10671966Y+4842588D01*
X+2126535Y+5041901D02*
X+2165351Y+5041901D01*
X+2165351Y+4736271D01*
X+1841499Y+5060123D01*
X+1841499Y+5060951D01*
X+2107485Y+5060951D01*
X+2126535Y+5041901D01*
X+2671352Y+6255163D02*
X+2671352Y+6169374D01*
X+2647951Y+6145973D01*
X+2647951Y+5182315D01*
X+2628901Y+5163265D01*
X+2628901Y+5047535D01*
X+2647951Y+5028485D01*
X+2647951Y+4711699D01*
X+2621723Y+4711699D01*
X+2533649Y+4799773D01*
X+2533649Y+6202901D01*
X+2606386Y+6202901D01*
X+2665000Y+6261515D01*
X+2671352Y+6255163D01*
X+9666353Y+4832201D02*
X+9746352Y+4832201D01*
X+9746352Y+4799774D01*
X+9594849Y+4648271D01*
X+9594849Y+4799773D01*
X+9561034Y+4833588D01*
X+9613000Y+4885554D01*
X+9666353Y+4832201D01*
X+7880351Y+4699827D02*
X+7880351Y+4501824D01*
X+7835576Y+4546599D01*
X+7664424Y+4546599D01*
X+7581899Y+4464074D01*
X+7581899Y+4553665D01*
X+7500065Y+4635499D01*
X+7461249Y+4635499D01*
X+7461249Y+4705351D01*
X+7874827Y+4705351D01*
X+7880351Y+4699827D01*
X+1936751Y+4623627D02*
X+1936751Y+4584699D01*
X+1897935Y+4584699D01*
X+1816101Y+4502865D01*
X+1816101Y+4475923D01*
X+1720849Y+4380671D01*
X+1720849Y+4839529D01*
X+1936751Y+4623627D01*
X+6356351Y+4902915D02*
X+6337301Y+4883865D01*
X+6337301Y+4768135D01*
X+6419135Y+4686301D01*
X+6534865Y+4686301D01*
X+6616699Y+4768135D01*
X+6616699Y+4769679D01*
X+6757227Y+4629151D01*
X+6788151Y+4629151D01*
X+6788151Y+4368773D01*
X+6736599Y+4317221D01*
X+6736599Y+4425576D01*
X+6615576Y+4546599D01*
X+6494023Y+4546599D01*
X+6292849Y+4747773D01*
X+6292849Y+5067301D01*
X+6331665Y+5067301D01*
X+6356351Y+5091987D01*
X+6356351Y+4902915D01*
X+8353401Y+4254424D02*
X+8439351Y+4168474D01*
X+8439351Y+4024871D01*
X+8242299Y+4221923D01*
X+8242299Y+4248865D01*
X+8160465Y+4330699D01*
X+8121649Y+4330699D01*
X+8121649Y+4356101D01*
X+8160465Y+4356101D01*
X+8179515Y+4375151D01*
X+8353401Y+4375151D01*
X+8353401Y+4254424D01*
X+11029951Y+3961573D02*
X+11024427Y+3956049D01*
X+10126671Y+3956049D01*
X+11002823Y+4832201D01*
X+11029951Y+4832201D01*
X+11029951Y+3961573D01*
X+6323401Y+4375977D02*
X+6323401Y+4254424D01*
X+6444424Y+4133401D01*
X+6552779Y+4133401D01*
X+6365977Y+3946599D01*
X+6292849Y+3946599D01*
X+6292849Y+4114085D01*
X+6311899Y+4133135D01*
X+6311899Y+4248865D01*
X+6230065Y+4330699D01*
X+6191249Y+4330699D01*
X+6191249Y+4508129D01*
X+6323401Y+4375977D01*
X+1008935Y+4178301D02*
X+1098551Y+4178301D01*
X+1098551Y+3925013D01*
X+1073865Y+3949699D01*
X+958135Y+3949699D01*
X+938704Y+3930268D01*
X+908561Y+3930268D01*
X+779019Y+4059810D01*
X+908561Y+4189352D01*
X+997884Y+4189352D01*
X+1008935Y+4178301D01*
X+1440735Y+3898901D02*
X+1460501Y+3898901D01*
X+1460501Y+3854449D01*
X+1421573Y+3854449D01*
X+1416049Y+3859973D01*
X+1416049Y+3923587D01*
X+1440735Y+3898901D01*
X+7664424Y+4133401D02*
X+7835576Y+4133401D01*
X+7880351Y+4178176D01*
X+7880351Y+4051299D01*
X+7841535Y+4051299D01*
X+7759701Y+3969465D01*
X+7759701Y+3942523D01*
X+7562849Y+3745671D01*
X+7562849Y+4234976D01*
X+7664424Y+4133401D01*
X+11276001Y+4085417D02*
X+11276001Y+3914790D01*
X+11420981Y+3769810D01*
X+11304140Y+3652969D01*
X+10052048Y+3652969D01*
X+10052048Y+3709226D01*
X+10057573Y+3714751D01*
X+11124373Y+3714751D01*
X+11271249Y+3861627D01*
X+11271249Y+4090169D01*
X+11276001Y+4085417D01*
X+7880351Y+3570635D02*
X+7827633Y+3623353D01*
X+7781775Y+3623353D01*
X+7880351Y+3721929D01*
X+7880351Y+3570635D01*
X+3054351Y+3556715D02*
X+3041649Y+3544013D01*
X+3041649Y+6202901D01*
X+3054351Y+6202901D01*
X+3054351Y+3556715D01*
X+3467101Y+4972877D02*
X+3467101Y+4945935D01*
X+3486151Y+4926885D01*
X+3486151Y+4826827D01*
X+3568701Y+4744277D01*
X+3568701Y+4717335D01*
X+3587751Y+4698285D01*
X+3587751Y+4344115D01*
X+3568701Y+4325065D01*
X+3568701Y+4209335D01*
X+3650535Y+4127501D01*
X+3766265Y+4127501D01*
X+3848099Y+4209335D01*
X+3848099Y+4325065D01*
X+3829049Y+4344115D01*
X+3829049Y+4698285D01*
X+3848099Y+4717335D01*
X+3848099Y+4833065D01*
X+3766265Y+4914899D01*
X+3739323Y+4914899D01*
X+3727449Y+4926773D01*
X+3727449Y+4926885D01*
X+3746499Y+4945935D01*
X+3746499Y+5049079D01*
X+3943351Y+4852227D01*
X+3943351Y+4242515D01*
X+3924301Y+4223465D01*
X+3924301Y+4107735D01*
X+4006135Y+4025901D01*
X+4044951Y+4025901D01*
X+4044951Y+3504373D01*
X+4039426Y+3498848D01*
X+3314699Y+3498848D01*
X+3314699Y+3537665D01*
X+3295649Y+3556715D01*
X+3295649Y+5144329D01*
X+3467101Y+4972877D01*
X+2139951Y+3453573D02*
X+2128077Y+3441699D01*
X+2101135Y+3441699D01*
X+2076449Y+3417013D01*
X+2076449Y+3455227D01*
X+2139951Y+3518729D01*
X+2139951Y+3453573D01*
X+8667751Y+3580573D02*
X+8480649Y+3393471D01*
X+8480649Y+3568474D01*
X+8566599Y+3654424D01*
X+8566599Y+3670301D01*
X+8617665Y+3670301D01*
X+8667751Y+3720387D01*
X+8667751Y+3580573D01*
X+8978865Y+3385299D02*
X+8922465Y+3441699D01*
X+8870121Y+3441699D01*
X+8909049Y+3480627D01*
X+8909049Y+3670301D01*
X+8947865Y+3670301D01*
X+8978865Y+3701301D01*
X+8978865Y+3385299D01*
X+9810752Y+3346599D02*
X+9721849Y+3346599D01*
X+9721849Y+3580685D01*
X+9740899Y+3599735D01*
X+9740899Y+3715465D01*
X+9665413Y+3790951D01*
X+9810752Y+3790951D01*
X+9810752Y+3346599D01*
X+2007425Y+4197352D02*
X+2089151Y+4197352D01*
X+2089151Y+3887027D01*
X+2139951Y+3836227D01*
X+2139951Y+3822699D01*
X+2075735Y+3822699D01*
X+1993901Y+3740865D01*
X+1993901Y+3713923D01*
X+1835151Y+3555173D01*
X+1835151Y+3187699D01*
X+1770935Y+3187699D01*
X+1751885Y+3168649D01*
X+1345373Y+3168649D01*
X+1339849Y+3174173D01*
X+1339849Y+3613151D01*
X+1537529Y+3613151D01*
X+1493077Y+3568699D01*
X+1466135Y+3568699D01*
X+1384301Y+3486865D01*
X+1384301Y+3371135D01*
X+1466135Y+3289301D01*
X+1581865Y+3289301D01*
X+1663699Y+3371135D01*
X+1663699Y+3398077D01*
X+1924049Y+3658427D01*
X+1924049Y+4242627D01*
X+1943100Y+4261678D01*
X+2007425Y+4197352D01*
X+8724901Y+3267274D02*
X+8710298Y+3281876D01*
X+8724901Y+3296479D01*
X+8724901Y+3267274D01*
X+5391151Y+6679373D02*
X+5391151Y+5385627D01*
X+5538027Y+5238751D01*
X+5702301Y+5238751D01*
X+5702301Y+5149135D01*
X+5721351Y+5130085D01*
X+5721351Y+3759915D01*
X+5702301Y+3740865D01*
X+5702301Y+3713923D01*
X+5695951Y+3707573D01*
X+5695951Y+3263071D01*
X+5409373Y+3549649D01*
X+5022849Y+3549649D01*
X+5022849Y+6146085D01*
X+5041899Y+6165135D01*
X+5041899Y+6280865D01*
X+4960065Y+6362699D01*
X+4844335Y+6362699D01*
X+4762501Y+6280865D01*
X+4762501Y+6165135D01*
X+4781551Y+6146085D01*
X+4781551Y+3505915D01*
X+4762501Y+3486865D01*
X+4762501Y+3371135D01*
X+4844335Y+3289301D01*
X+4960065Y+3289301D01*
X+4979115Y+3308351D01*
X+5309427Y+3308351D01*
X+5353879Y+3263899D01*
X+5326935Y+3263899D01*
X+5245101Y+3182065D01*
X+5245101Y+3066335D01*
X+5264151Y+3047285D01*
X+5264151Y+1931115D01*
X+5245101Y+1912065D01*
X+5245101Y+1885123D01*
X+5022849Y+1662871D01*
X+5022849Y+2361485D01*
X+5041899Y+2380535D01*
X+5041899Y+2496265D01*
X+4960065Y+2578099D01*
X+4844335Y+2578099D01*
X+4819649Y+2553413D01*
X+4819649Y+2666285D01*
X+4838699Y+2685335D01*
X+4838699Y+2801065D01*
X+4756865Y+2882899D01*
X+4686299Y+2882899D01*
X+4686299Y+2928065D01*
X+4604465Y+3009899D01*
X+4488735Y+3009899D01*
X+4438649Y+2959813D01*
X+4438649Y+6706427D01*
X+4444173Y+6711951D01*
X+5423729Y+6711951D01*
X+5391151Y+6679373D01*
X+6051551Y+3213099D02*
X+6012735Y+3213099D01*
X+5993685Y+3194049D01*
X+5956299Y+3194049D01*
X+5956299Y+3232865D01*
X+5937249Y+3251915D01*
X+5937249Y+3580685D01*
X+5981699Y+3625135D01*
X+5981699Y+3740865D01*
X+5962649Y+3759915D01*
X+5962649Y+3924301D01*
X+6026865Y+3924301D01*
X+6051551Y+3948987D01*
X+6051551Y+3213099D01*
X+2451101Y+4541077D02*
X+2451101Y+4514135D01*
X+2532935Y+4432301D01*
X+2647951Y+4432301D01*
X+2647951Y+4242515D01*
X+2628901Y+4223465D01*
X+2628901Y+4107735D01*
X+2710735Y+4025901D01*
X+2800351Y+4025901D01*
X+2800351Y+3404427D01*
X+2807529Y+3397249D01*
X+2591627Y+3397249D01*
X+2279649Y+3085271D01*
X+2279649Y+3225085D01*
X+2298699Y+3244135D01*
X+2298699Y+3271077D01*
X+2381249Y+3353627D01*
X+2381249Y+3936173D01*
X+2330449Y+3986973D01*
X+2330449Y+4241085D01*
X+2349499Y+4260135D01*
X+2349499Y+4375865D01*
X+2267665Y+4457699D01*
X+2266121Y+4457699D01*
X+2400300Y+4591878D01*
X+2451101Y+4541077D01*
X+7642825Y+2955000D02*
X+7639049Y+2951224D01*
X+7639049Y+2958776D01*
X+7642825Y+2955000D01*
X+7880351Y+2931824D02*
X+7857175Y+2955000D01*
X+7880351Y+2978176D01*
X+7880351Y+2931824D01*
X+1245427Y+2927351D02*
X+1409701Y+2927351D01*
X+1409701Y+2889249D01*
X+1238249Y+2889249D01*
X+1238249Y+2934529D01*
X+1245427Y+2927351D01*
X+2038351Y+2870915D02*
X+2019301Y+2851865D01*
X+2019301Y+2801063D01*
X+2013665Y+2806699D01*
X+1935921Y+2806699D01*
X+2038351Y+2909129D01*
X+2038351Y+2870915D01*
X+1878885Y+2787649D02*
X+1613613Y+2787649D01*
X+1626315Y+2800351D01*
X+1891587Y+2800351D01*
X+1878885Y+2787649D01*
X+7880351Y+1893013D02*
X+7804865Y+1968499D01*
X+7689135Y+1968499D01*
X+7639049Y+1918413D01*
X+7639049Y+2588776D01*
X+7664424Y+2563401D01*
X+7835576Y+2563401D01*
X+7880351Y+2608176D01*
X+7880351Y+1893013D01*
X+7282735Y+2806701D02*
X+7321551Y+2806701D01*
X+7321551Y+2578099D01*
X+7282735Y+2578099D01*
X+7252385Y+2547749D01*
X+7252385Y+2837051D01*
X+7282735Y+2806701D01*
X+8225402Y+3897576D02*
X+8153401Y+3825576D01*
X+8153401Y+3654424D01*
X+8239351Y+3568474D01*
X+8239351Y+2499213D01*
X+8160465Y+2578099D01*
X+8121649Y+2578099D01*
X+8121649Y+4001329D01*
X+8225402Y+3897576D01*
X+8239351Y+2341526D02*
X+8223249Y+2325424D01*
X+8223249Y+2361485D01*
X+8239351Y+2377587D01*
X+8239351Y+2341526D01*
X+6918865Y+2016299D02*
X+6839665Y+2095499D01*
X+6800848Y+2095499D01*
X+6800848Y+3039774D01*
X+6736599Y+3104023D01*
X+6736599Y+3225576D01*
X+6615576Y+3346599D01*
X+6450649Y+3346599D01*
X+6450649Y+3568474D01*
X+6536599Y+3654424D01*
X+6536599Y+3775977D01*
X+6918865Y+4158243D01*
X+6918865Y+2016299D01*
X+8591551Y+1776599D02*
X+8524023Y+1776599D01*
X+8452773Y+1847849D01*
X+8279573Y+1847849D01*
X+8223249Y+1904173D01*
X+8223249Y+2014576D01*
X+8274424Y+1963401D01*
X+8445576Y+1963401D01*
X+8566599Y+2084424D01*
X+8566599Y+2255576D01*
X+8480649Y+2341526D01*
X+8480649Y+2563401D01*
X+8591551Y+2563401D01*
X+8591551Y+1776599D01*
X+6051551Y+2081973D02*
X+5854699Y+1885121D01*
X+5854699Y+1912065D01*
X+5835649Y+1931115D01*
X+5835649Y+2667827D01*
X+6051551Y+2883729D01*
X+6051551Y+2081973D01*
X+5629689Y+2988089D02*
X+5665027Y+2952751D01*
X+5779329Y+2952751D01*
X+5594351Y+2767773D01*
X+5594351Y+1931115D01*
X+5575301Y+1912065D01*
X+5575301Y+1885123D01*
X+5524499Y+1834321D01*
X+5524499Y+1912065D01*
X+5505449Y+1931115D01*
X+5505449Y+3047285D01*
X+5524499Y+3066335D01*
X+5524499Y+3093279D01*
X+5629689Y+2988089D01*
X+9810752Y+1776599D02*
X+9721849Y+1776599D01*
X+9721849Y+2563401D01*
X+9810752Y+2563401D01*
X+9810752Y+1776599D01*
X+6918865Y+1455957D02*
X+6902449Y+1472373D01*
X+6902449Y+1878885D01*
X+6918865Y+1895301D01*
X+6918865Y+1455957D01*
X+11420981Y+3269430D02*
X+11276001Y+3124450D01*
X+11276001Y+2914030D01*
X+11419711Y+2770320D01*
X+11276001Y+2626610D01*
X+11276001Y+2416190D01*
X+11390301Y+2301890D01*
X+11390301Y+2240530D01*
X+11276001Y+2126230D01*
X+11276001Y+1915810D01*
X+11360212Y+1831599D01*
X+11161642Y+1831599D01*
X+11008401Y+1678358D01*
X+11008401Y+1461642D01*
X+11039455Y+1430588D01*
X+10239333Y+1430588D01*
X+10229849Y+1421104D01*
X+10229849Y+3148885D01*
X+10248899Y+3167935D01*
X+10248899Y+3283665D01*
X+10167065Y+3365499D01*
X+10143349Y+3365499D01*
X+10143349Y+3386271D01*
X+11304140Y+3386271D01*
X+11420981Y+3269430D01*
X+7861301Y+1364535D02*
X+7915276Y+1310560D01*
X+7915276Y+1282699D01*
X+7892335Y+1282699D01*
X+7873285Y+1263649D01*
X+7639049Y+1263649D01*
X+7639049Y+1388776D01*
X+7664424Y+1363401D01*
X+7835576Y+1363401D01*
X+7861301Y+1389126D01*
X+7861301Y+1364535D01*
X+8743951Y+1295400D02*
X+8743951Y+1263649D01*
X+8685973Y+1263649D01*
X+8586221Y+1363401D01*
X+8645576Y+1363401D01*
X+8743951Y+1461776D01*
X+8743951Y+1295400D01*
X+7219951Y+1212849D02*
X+7217698Y+1212849D01*
X+7219951Y+1215102D01*
X+7219951Y+1212849D01*
X+4273552Y+1198230D02*
X+4192802Y+1278980D01*
X+4273552Y+1359730D01*
X+4273552Y+1198230D01*
X+6661151Y+1372427D02*
X+6871529Y+1162049D01*
X+6679373Y+1162049D01*
X+6650649Y+1190773D01*
X+6650649Y+1398474D01*
X+6661151Y+1408976D01*
X+6661151Y+1372427D01*
X+9810752Y+1116774D02*
X+9805227Y+1111249D01*
X+9740899Y+1111249D01*
X+9740899Y+1226265D01*
X+9721849Y+1245315D01*
X+9721849Y+1363401D01*
X+9810752Y+1363401D01*
X+9810752Y+1116774D01*
X+5441952Y+1080212D02*
X+5429249Y+1092915D01*
X+5429249Y+1397827D01*
X+5441952Y+1410530D01*
X+5441952Y+1080212D01*
X+6559552Y+1776599D02*
X+6444424Y+1776599D01*
X+6323401Y+1655576D01*
X+6323401Y+1484424D01*
X+6409351Y+1398474D01*
X+6409351Y+1104899D01*
X+6393735Y+1104899D01*
X+6311901Y+1023065D01*
X+6311901Y+984249D01*
X+5891973Y+984249D01*
X+5886449Y+989773D01*
X+5886449Y+1079501D01*
X+5950665Y+1079501D01*
X+5969715Y+1098551D01*
X+6222173Y+1098551D01*
X+6279323Y+1155701D01*
X+6306265Y+1155701D01*
X+6388099Y+1237535D01*
X+6388099Y+1353265D01*
X+6306265Y+1435099D01*
X+6190535Y+1435099D01*
X+6108701Y+1353265D01*
X+6108701Y+1339849D01*
X+5969715Y+1339849D01*
X+5950665Y+1358899D01*
X+5905499Y+1358899D01*
X+5905499Y+1378665D01*
X+5823665Y+1460499D01*
X+5771321Y+1460499D01*
X+6274223Y+1963401D01*
X+6415576Y+1963401D01*
X+6536599Y+2084424D01*
X+6536599Y+2255576D01*
X+6450649Y+2341526D01*
X+6450649Y+2563401D01*
X+6559552Y+2563401D01*
X+6559552Y+1776599D01*
X+9007889Y+999711D02*
X+8972551Y+964373D01*
X+8972551Y+868031D01*
X+8818231Y+1022351D01*
X+9030529Y+1022351D01*
X+9007889Y+999711D01*
X+7397751Y+837373D02*
X+7392227Y+831849D01*
X+7290515Y+831849D01*
X+7277813Y+844551D01*
X+7397751Y+844551D01*
X+7397751Y+837373D01*
X+4679951Y+826739D02*
X+4627091Y+879599D01*
X+4514848Y+879599D01*
X+4514848Y+1550226D01*
X+4577523Y+1612901D01*
X+4604465Y+1612901D01*
X+4679951Y+1688387D01*
X+4679951Y+826739D01*
X+5441952Y+766738D02*
X+5332389Y+876301D01*
X+5366465Y+876301D01*
X+5441952Y+951788D01*
X+5441952Y+766738D01*
X+7073901Y+769065D02*
X+7073901Y+654049D01*
X+6630115Y+654049D01*
X+6622599Y+661565D01*
X+6622599Y+742951D01*
X+6679485Y+742951D01*
X+6698535Y+723901D01*
X+6814265Y+723901D01*
X+6896099Y+805735D01*
X+6896099Y+844551D01*
X+7149387Y+844551D01*
X+7073901Y+769065D01*
X+11379731Y+762827D02*
X+11379731Y+718560D01*
X+11360149Y+698978D01*
X+11360149Y+723185D01*
X+11366499Y+729535D01*
X+11366499Y+768351D01*
X+11374207Y+768351D01*
X+11379731Y+762827D01*
X+416001Y+836243D02*
X+273049Y+693291D01*
X+273049Y+991427D01*
X+278573Y+996951D01*
X+416001Y+996951D01*
X+416001Y+836243D01*
X+11087101Y+733999D02*
X+10894790Y+733999D01*
X+10839449Y+678658D01*
X+10839449Y+712027D01*
X+10895773Y+768351D01*
X+11087101Y+768351D01*
X+11087101Y+733999D01*
X+9876651Y+667233D02*
X+9876167Y+666749D01*
X+9631599Y+666749D01*
X+9631599Y+869951D01*
X+9876651Y+869951D01*
X+9876651Y+667233D01*
X+8879219Y+584199D02*
X+8637803Y+584199D01*
X+8635999Y+586003D01*
X+8635999Y+827419D01*
X+8879219Y+584199D01*
X+5187951Y+1092915D02*
X+5168901Y+1073865D01*
X+5168901Y+958135D01*
X+5247437Y+879599D01*
X+5162909Y+879599D01*
X+5045401Y+762091D01*
X+5045401Y+606564D01*
X+5022848Y+584011D01*
X+5022848Y+800101D01*
X+5061665Y+800101D01*
X+5143499Y+881935D01*
X+5143499Y+997665D01*
X+5124449Y+1016715D01*
X+5124449Y+1423227D01*
X+5187951Y+1486729D01*
X+5187951Y+1092915D01*
X+10239333Y+1097068D02*
X+10322904Y+1097068D01*
X+10248901Y+1023065D01*
X+10248901Y+907335D01*
X+10330735Y+825501D01*
X+10446465Y+825501D01*
X+10465515Y+844551D01*
X+10630729Y+844551D01*
X+10598151Y+811973D01*
X+10598151Y+733999D01*
X+10394410Y+733999D01*
X+10245621Y+585210D01*
X+10245621Y+396623D01*
X+10229849Y+380851D01*
X+10229849Y+1106552D01*
X+10239333Y+1097068D01*
X+8404827Y+1058591D02*
X+8369301Y+1023065D01*
X+8369301Y+907335D01*
X+8382001Y+894635D01*
X+8382001Y+501649D01*
X+8357427Y+501649D01*
X+8230427Y+374649D01*
X+8191499Y+374649D01*
X+8191499Y+413465D01*
X+8172449Y+432515D01*
X+8172449Y+813627D01*
X+8184323Y+825501D01*
X+8262065Y+825501D01*
X+8343899Y+907335D01*
X+8343899Y+1023065D01*
X+8312149Y+1054815D01*
X+8312149Y+1116773D01*
X+8289924Y+1138998D01*
X+8289924Y+1173494D01*
X+8404827Y+1058591D01*
X+7758987Y+374649D02*
X+7708871Y+374649D01*
X+7733929Y+399707D01*
X+7758987Y+374649D01*
X+6221401Y+607564D02*
X+6118401Y+504564D01*
X+6118401Y+374649D01*
X+6023599Y+374649D01*
X+6023599Y+504564D01*
X+5920599Y+607564D01*
X+5920599Y+742951D01*
X+6221401Y+742951D01*
X+6221401Y+607564D01*
X+5441952Y+330200D02*
X+5441952Y+298449D01*
X+5239612Y+298449D01*
X+5297599Y+356436D01*
X+5297599Y+478401D01*
X+5329091Y+478401D01*
X+5441952Y+591262D01*
X+5441952Y+330200D01*
X+10592627Y+222249D02*
X+10412491Y+222249D01*
X+10416243Y+226001D01*
X+10596379Y+226001D01*
X+10592627Y+222249D01*
X+768351Y+583485D02*
X+768351Y+178515D01*
X+761599Y+171763D01*
X+761599Y+276599D01*
X+656599Y+276599D01*
X+656599Y+393401D01*
X+761599Y+393401D01*
X+761599Y+590237D01*
X+768351Y+583485D01*
D15*
X+11010000Y+7760000D03*
X+10756000Y+7760000D03*
X+10502000Y+7760000D03*
X+10248000Y+7760000D03*
X+9994000Y+7760000D03*
X+9740000Y+7760000D03*
X+9486000Y+7760000D03*
X+9232000Y+7760000D03*
X+8978000Y+7760000D03*
X+8724000Y+7760000D03*
X+8470000Y+7760000D03*
X+8216000Y+7760000D03*
X+7962000Y+7760000D03*
X+7708000Y+7760000D03*
X+7454000Y+7760000D03*
X+7454000Y+5010000D03*
X+7708000Y+5010000D03*
X+7962000Y+5010000D03*
X+8216000Y+5010000D03*
X+8470000Y+5010000D03*
X+8724000Y+5010000D03*
X+8978000Y+5010000D03*
X+9232000Y+5010000D03*
X+9486000Y+5010000D03*
X+9740000Y+5010000D03*
X+9994000Y+5010000D03*
X+10248000Y+5010000D03*
X+10502000Y+5010000D03*
X+10756000Y+5010000D03*
X+11010000Y+5010000D03*
D16*
X+11014000Y+7240000D03*
X+10760000Y+7240000D03*
X+10506000Y+7240000D03*
X+10252000Y+7240000D03*
X+9998000Y+7240000D03*
X+9744000Y+7240000D03*
X+9490000Y+7240000D03*
X+9236000Y+7240000D03*
X+8982000Y+7240000D03*
X+8728000Y+7240000D03*
X+8474000Y+7240000D03*
X+8220000Y+7240000D03*
X+7966000Y+7240000D03*
X+7712000Y+7240000D03*
X+7458000Y+7240000D03*
D17*
X+5960000Y+7078000D03*
X+5960000Y+7332000D03*
X+5960000Y+7586000D03*
X+5960000Y+7840000D03*
D18*
X+670000Y+5019240D03*
X+670000Y+5519620D03*
X+670000Y+6099240D03*
X+670000Y+6599620D03*
X+670000Y+7179240D03*
X+670000Y+7679620D03*
X+11530000Y+4520380D03*
X+11530000Y+4020000D03*
X+11530000Y+3519620D03*
X+11530000Y+3019240D03*
X+11530000Y+2521400D03*
X+11530000Y+2021020D03*
D19*
X+8560000Y+3140000D03*
X+9780000Y+3140000D03*
X+9780000Y+4340000D03*
X+8560000Y+4340000D03*
X+8360000Y+3740000D03*
X+6530000Y+3140000D03*
X+7750000Y+3140000D03*
X+7750000Y+4340000D03*
X+6530000Y+4340000D03*
X+6330000Y+3740000D03*
X+6530000Y+1570000D03*
X+7750000Y+1570000D03*
X+7750000Y+2770000D03*
X+6530000Y+2770000D03*
X+6330000Y+2170000D03*
D25*
X+1776000Y+6368000D03*
D26*
X+2030000Y+6368000D03*
X+2284000Y+6368000D03*
X+2538000Y+6368000D03*
X+2792000Y+6368000D03*
X+3046000Y+6368000D03*
X+3300000Y+6368000D03*
X+3300000Y+7130000D03*
X+3046000Y+7130000D03*
X+2792000Y+7130000D03*
X+2538000Y+7130000D03*
X+2284000Y+7130000D03*
X+2030000Y+7130000D03*
X+1776000Y+7130000D03*
D16*
X+5830000Y+5600000D03*
X+3840000Y+5600000D03*
D18*
X+670000Y+919620D03*
X+670000Y+1420000D03*
D41*
X+4670000Y+430000D03*
X+5120000Y+430000D03*
D42*
X+4544000Y+679000D03*
X+5246000Y+679000D03*
D41*
X+5846000Y+431000D03*
X+6296000Y+431000D03*
D42*
X+5720000Y+680000D03*
X+6422000Y+680000D03*
D18*
X+4970000Y+7600000D03*
X+5470380Y+7600000D03*
X+3849620Y+7600000D03*
X+4350000Y+7600000D03*
D46*
X+550000Y+550000D03*
X+1170000Y+550000D03*
D47*
X+1235000Y+335000D03*
D46*
X+1170000Y+120000D03*
X+550000Y+120000D03*
D47*
X+485000Y+335000D03*
D18*
X+670000Y+3809620D03*
X+670000Y+4310000D03*
X+670000Y+2259620D03*
X+670000Y+2760000D03*
X+670000Y+3260380D03*
D19*
X+8560000Y+1570000D03*
X+9780000Y+1570000D03*
X+9780000Y+2770000D03*
X+8560000Y+2770000D03*
X+8360000Y+2170000D03*
D18*
X+11500380Y+480000D03*
X+11000000Y+480000D03*
X+10499620Y+480000D03*
D49*
X+10000Y+10000D02*
X+12010000Y+10000D01*
X+12010000Y+8010000D01*
X+10000Y+8010000D01*
X+10000Y+10000D01*
X+9090625Y+1343828D02*
X+9200625Y+1343828D01*
X+9200625Y+4593828D01*
X+9090625Y+4593828D01*
X+9090625Y+1343828D01*
X+7030625Y+1293828D02*
X+7140625Y+1293828D01*
X+7140625Y+4583828D01*
X+7030625Y+4583828D01*
X+7030625Y+1293828D01*
X+10285625Y+1208828D02*
X+11905625Y+1208828D01*
X+11905625Y+1318828D01*
X+10285625Y+1318828D01*
X+10285625Y+1208828D01*
M02*
