<svg xmlns="http://www.w3.org/2000/svg" viewBox="0 0 140.02 169.92"><defs><style>.cls-1{fill:#ffcd03;}</style></defs><g id="font"><circle cx="70.01" cy="70.01" r="70.01"/><rect x="51.42" y="125.28" width="39.6" height="44.64"/></g><g id="details"><circle class="cls-1" cx="71.67" cy="25.53" r="16.21"/><circle class="cls-1" cx="110.55" cy="47.85" r="16.21"/><circle class="cls-1" cx="32.96" cy="70.01" r="17.1"/><rect class="cls-1" x="68.34" y="40.68" width="5.76" height="125.28"/><rect class="cls-1" x="57.9" y="108.72" width="5.76" height="57.24"/><rect class="cls-1" x="79.5" y="108.72" width="5.76" height="57.24"/><polygon class="cls-1" points="85.26 108.72 86.23 106.86 108.91 63.36 103.2 62.29 79.5 108.72 79.5 110.66 85.26 110.66 85.26 108.72"/><circle cx="71.67" cy="25.53" r="12.24"/><circle cx="110.55" cy="47.85" r="12.24"/><circle cx="32.96" cy="70.01" r="12.24"/><polygon class="cls-1" points="57.9 110.66 63.66 110.66 63.66 108.72 62.06 106.91 42.13 84.44 36.13 86.45 56.66 107.45 57.9 108.72 57.9 110.66"/></g></svg>